SplineFontDB: 3.2
FontName: ClassWizCWMathExt-Regular
FullName: ClassWiz CW Math Ext Regular
FamilyName: ClassWiz CW Math Ext
Weight: Regular
Copyright: Copyright (c) 2025, Hayden Wong (https://github.com/haydenwong7bm/),\nCopyright (c) 2023-2025, Windy Deng (windy0deng@gmail.com),\nCopyright (c) 2023-2025, CASIO Computer Co., Ltd (https://www.casio.com/).
Version: 3.912
ItalicAngle: 0
UnderlinePosition: -21
UnderlineWidth: 8
Ascent: 130
Descent: 10
InvalidEm: 0
LayerCount: 2
Layer: 0 0 "Back" 1
Layer: 1 0 "Fore" 0
XUID: [1021 199 1599025585 9496]
StyleMap: 0x0040
FSType: 0
OS2Version: 4
OS2_WeightWidthSlopeOnly: 0
OS2_UseTypoMetrics: 1
CreationTime: 1688717740
ModificationTime: 1761143611
PfmFamily: 81
TTFWeight: 400
TTFWidth: 5
LineGap: 30
VLineGap: 0
Panose: 0 0 0 0 0 0 0 0 0 0
OS2TypoAscent: 130
OS2TypoAOffset: 0
OS2TypoDescent: -10
OS2TypoDOffset: 0
OS2TypoLinegap: 30
OS2WinAscent: 150
OS2WinAOffset: 0
OS2WinDescent: 20
OS2WinDOffset: 0
HheadAscent: 130
HheadAOffset: 0
HheadDescent: -10
HheadDOffset: 0
OS2SubXSize: 110
OS2SubYSize: 130
OS2SubXOff: 0
OS2SubYOff: 5
OS2SupXSize: 110
OS2SupYSize: 130
OS2SupXOff: 0
OS2SupYOff: 15
OS2StrikeYSize: -10
OS2StrikeYPos: 54
OS2CapHeight: 120
OS2XHeight: 90
OS2Vendor: '    '
OS2CodePages: 40000003.00000000
OS2UnicodeRanges: 20000007.12000001.02000000.00000000
Lookup: 1 0 0 "'ss02' Style Set 2 lookup 4 subtable" { "'ss02' Style Set 2 lookup 4 subtable"  } ['    ' ('DFLT' <'dflt' > 'cyrl' <'dflt' > 'grek' <'dflt' > 'latn' <'dflt' > 'math' <'dflt' > ) 'ss02' ('DFLT' <'dflt' > 'cyrl' <'dflt' > 'grek' <'dflt' > 'latn' <'dflt' > 'math' <'dflt' > ) ]
Lookup: 1 0 0 "'zero' Slashed Zero lookup 0" { "'zero' Slashed Zero lookup 0 subtable"  } ['    ' ('DFLT' <'dflt' > 'cyrl' <'dflt' > 'grek' <'dflt' > 'latn' <'dflt' > 'math' <'dflt' > ) 'zero' ('DFLT' <'dflt' > 'cyrl' <'dflt' > 'grek' <'dflt' > 'latn' <'dflt' > 'math' <'dflt' > ) ]

StartChar: .notdef
Encoding: 1114112 -1 0
Width: 110
GlyphClass: 1
Flags: W
HStem: -10 10<10 90> 10 20<40 60> 40 20<40 50> 70 20<20 30> 80 20<40 60> 110 10<10 90>
VStem: 0 10<0 110> 20 20<70 80> 40 20<10 30 40 50> 60 20<70 80> 90 10<0 110>
LayerCount: 2
Fore
SplineSet
0 -10 m 1xe620
 0 120 l 1
 100 120 l 1
 100 -10 l 1
 0 -10 l 1xe620
10 0 m 1
 90 0 l 1
 90 110 l 1
 10 110 l 1
 10 0 l 1
20 70 m 1xf760
 20 90 l 1
 30 90 l 1xf760
 30 100 l 1
 70 100 l 1xef60
 70 90 l 1
 80 90 l 1
 80 60 l 1xf760
 70 60 l 1
 70 50 l 1
 60 50 l 1
 60 40 l 1
 40 40 l 1
 40 60 l 1xf6a0
 50 60 l 1
 50 70 l 1
 60 70 l 1xf660
 60 80 l 1
 40 80 l 1xef60
 40 70 l 1
 20 70 l 1xf760
40 10 m 1xe6a0
 40 30 l 1
 60 30 l 1
 60 10 l 1
 40 10 l 1xe6a0
EndSplineSet
Validated: 1
EndChar

StartChar: exclam
Encoding: 33 33 4
Width: 110
GlyphClass: 2
Flags: W
HStem: 100 20G<40 60>
VStem: 40 20<40 120>
LayerCount: 2
Fore
SplineSet
40 120 m 1
 60 120 l 1
 60 40 l 1
 40 40 l 1
 40 120 l 1
40 20 m 1
 40 0 l 1
 60 0 l 1
 60 20 l 1
 40 20 l 1
EndSplineSet
Validated: 9
AlternateSubs2: "'ssty' Math Script Style lookup 4 subtable" exclam.ssty exclam.ssty2
AlternateSubs2: "'aalt' Access All Alternates lookup 1 subtable" exclam.ssty exclam.ssty2
EndChar

StartChar: quotedbl
Encoding: 34 34 5
Width: 110
GlyphClass: 2
Flags: W
HStem: 80 40<20 40 50 70>
VStem: 20 20<80 120> 50 20<80 120>
LayerCount: 2
Fore
SplineSet
20 80 m 1
 20 120 l 1
 40 120 l 1
 40 80 l 1
 20 80 l 1
50 80 m 1
 50 120 l 1
 70 120 l 1
 70 80 l 1
 50 80 l 1
EndSplineSet
Validated: 1
AlternateSubs2: "'ssty' Math Script Style lookup 4 subtable" quotedbl.ssty quotedbl.ssty2
AlternateSubs2: "'aalt' Access All Alternates lookup 1 subtable" quotedbl.ssty quotedbl.ssty2
EndChar

StartChar: numbersign
Encoding: 35 35 6
Width: 110
GlyphClass: 2
Flags: W
HStem: 0 21G<20 40 50 70> 30 20<10 20 80 90> 70 20<20 30 90 100> 100 20G<40 60 70 90>
VStem: 20 20<0 30> 30 20<50 70> 40 20<90 120> 50 20<0 30> 60 20<50 70> 70 20<90 120>
LayerCount: 2
Fore
SplineSet
10 50 m 1xf9
 30 50 l 1
 30 70 l 1xf4
 20 70 l 1
 20 90 l 1xf8
 40 90 l 1
 40 120 l 1
 60 120 l 1
 60 90 l 1
 70 90 l 1
 70 120 l 1
 90 120 l 1
 90 90 l 1xf240
 100 90 l 1
 100 70 l 1
 80 70 l 1
 80 50 l 1xf080
 90 50 l 1
 90 30 l 1xf040
 70 30 l 1
 70 0 l 1
 50 0 l 1
 50 30 l 1
 40 30 l 1
 40 0 l 1
 20 0 l 1
 20 30 l 1
 10 30 l 1
 10 50 l 1xf9
50 70 m 1
 50 50 l 1
 60 50 l 1
 60 70 l 1xf480
 50 70 l 1
EndSplineSet
Validated: 1
AlternateSubs2: "'ssty' Math Script Style lookup 4 subtable" numbersign.ssty numbersign.ssty2
AlternateSubs2: "'aalt' Access All Alternates lookup 1 subtable" numbersign.ssty numbersign.ssty2
EndChar

StartChar: dollar
Encoding: 36 36 7
Width: 110
GlyphClass: 2
Flags: W
HStem: 0 21G<40 60> 10 20<30 40 60 70> 20 20<10 20> 50 20<30 40 60 70> 80 20<80 90> 90 20<30 40 60 70> 100 20G<40 60>
VStem: 10 20<30 40 70 90> 40 20<0 10 30 50 70 90 110 120> 70 20<30 50 80 90>
CounterMasks: 1 01c0
LayerCount: 2
Fore
SplineSet
10 20 m 1x31c0
 10 40 l 1
 30 40 l 1x31c0
 30 30 l 1
 40 30 l 1
 40 50 l 1
 20 50 l 1
 20 60 l 1
 10 60 l 1
 10 100 l 1
 20 100 l 1x53c0
 20 110 l 1
 40 110 l 1x15c0
 40 120 l 1
 60 120 l 1x13c0
 60 110 l 1
 80 110 l 1x15c0
 80 100 l 1
 90 100 l 1
 90 80 l 1
 70 80 l 1x19c0
 70 90 l 1
 60 90 l 1
 60 70 l 1
 80 70 l 1
 80 60 l 1
 90 60 l 1
 90 20 l 1
 80 20 l 1x35c0
 80 10 l 1
 60 10 l 1x51c0
 60 0 l 1
 40 0 l 1x91c0
 40 10 l 1
 20 10 l 1x51c0
 20 20 l 1
 10 20 l 1x31c0
30 70 m 1
 40 70 l 1
 40 90 l 1
 30 90 l 1x15c0
 30 70 l 1
60 30 m 1x51c0
 70 30 l 1
 70 50 l 1
 60 50 l 1
 60 30 l 1x51c0
EndSplineSet
Validated: 1
EndChar

StartChar: percent
Encoding: 37 37 8
Width: 110
GlyphClass: 2
Flags: W
HStem: 0 20<10 20> 0 10<70 80> 10 30<50 60 90 100> 40 10<70 80> 70 10<20 30> 80 30<0 10 40 50> 100 20<80 90> 110 10<20 30>
VStem: 0 20<80 110> 10 20<0 10> 20 20<20 30> 30 20<40 50 90 110> 50 20<10 30 70 80> 60 20<90 100> 70 20<110 120> 80 20<10 40>
LayerCount: 2
Fore
SplineSet
10 80 m 1x0440
 0 80 l 1
 0 110 l 1x0480
 10 110 l 1x0440
 10 120 l 1x0140
 40 120 l 1x0120
 40 110 l 1x0420
 50 110 l 1x0410
 50 90 l 1
 60 90 l 1
 60 110 l 1x0114
 70 110 l 1
 70 120 l 1x0102
 90 120 l 1
 90 100 l 1x0202
 80 100 l 1x0204
 80 80 l 1
 70 80 l 1x0409
 70 60 l 1x0402
 60 60 l 1
 60 50 l 1x1404
 90 50 l 1x1402
 90 40 l 1x2002
 100 40 l 1
 100 10 l 1x2001
 90 10 l 1x2002
 90 0 l 1x4002
 60 0 l 1x4004
 60 10 l 1x2004
 50 10 l 1
 50 30 l 1
 40 30 l 1
 40 10 l 1x2028
 30 10 l 1x2040
 30 0 l 1x4040
 10 0 l 1
 10 20 l 1x8040
 20 20 l 1
 20 40 l 1x9020
 30 40 l 1
 30 60 l 1x9010
 40 60 l 1
 40 70 l 1x9820
 10 70 l 1x9840
 10 80 l 1x0440
30 80 m 1x0990
 30 110 l 1
 20 110 l 1
 20 80 l 1
 30 80 l 1x0990
70 10 m 1x5008
 80 10 l 1
 80 40 l 1x5009
 70 40 l 1x5002
 70 10 l 1x5008
50 40 m 1x2014
 60 40 l 1x2014
 60 50 l 1
 50 50 l 1x1014
 50 40 l 1x2014
40 80 m 1x0428
 40 70 l 1
 50 70 l 1x0828
 50 80 l 1
 40 80 l 1x0428
EndSplineSet
Validated: 5
AlternateSubs2: "'ssty' Math Script Style lookup 4 subtable" percent.ssty percent.ssty2
AlternateSubs2: "'aalt' Access All Alternates lookup 1 subtable" percent.ssty percent.ssty2
EndChar

StartChar: ampersand
Encoding: 38 38 9
Width: 110
GlyphClass: 2
Flags: W
HStem: 0 20<20 50 80 100> 100 20<30 50>
VStem: 0 20<20 40> 10 20<80 100> 40 20<40 50> 50 20<90 100> 70 20<40 60>
LayerCount: 2
Fore
SplineSet
0 10 m 1xe0
 0 50 l 1xe0
 10 50 l 1
 10 60 l 1xd0
 20 60 l 1
 20 70 l 1xe0
 10 70 l 1
 10 110 l 1xd0
 20 110 l 1
 20 120 l 1
 60 120 l 1
 60 110 l 1
 70 110 l 1
 70 80 l 1
 60 80 l 1
 60 70 l 1xea
 50 70 l 1
 50 60 l 1xc4
 60 60 l 1
 60 40 l 1
 70 40 l 1
 70 60 l 1
 90 60 l 1
 90 30 l 1
 80 30 l 1
 80 20 l 1
 100 20 l 1
 100 0 l 1
 70 0 l 1
 70 10 l 1
 60 10 l 1
 60 0 l 1
 10 0 l 1
 10 10 l 1xda
 0 10 l 1xe0
30 80 m 1xd4
 40 80 l 1
 40 90 l 1xd8
 50 90 l 1
 50 100 l 1
 30 100 l 1
 30 80 l 1xd4
40 30 m 1
 40 50 l 1
 30 50 l 1
 30 40 l 1xd8
 20 40 l 1
 20 20 l 1
 50 20 l 1
 50 30 l 1xe4
 40 30 l 1
EndSplineSet
Validated: 1
EndChar

StartChar: quotesingle
Encoding: 39 39 10
Width: 110
GlyphClass: 2
Flags: W
HStem: 80 40<40 60>
VStem: 40 20<80 120>
LayerCount: 2
Fore
SplineSet
40 80 m 1
 40 120 l 1
 60 120 l 1
 60 80 l 1
 40 80 l 1
EndSplineSet
Validated: 1
AlternateSubs2: "'ssty' Math Script Style lookup 4 subtable" quotesingle.ssty quotesingle.ssty2
AlternateSubs2: "'aalt' Access All Alternates lookup 1 subtable" quotesingle.ssty quotesingle.ssty2
EndChar

StartChar: parenleft
Encoding: 40 40 11
Width: 110
GlyphClass: 2
Flags: W
IsExtendedShape: 1
GlyphVariantsVertical: parenleft parenleft.v1 parenleft.v2 parenleft.v3 parenleft.v4 parenleft.v5 parenleft.v6 parenleft.v7
GlyphCompositionVertical: 3  uni239D%0,0,45,210 uni239C%1,90,90,90 uni239B%0,45,0,210
HStem: 0 20<70 80> 100 20<70 80>
VStem: 30 20<50 70> 40 30<20 30 90 100> 40 20<30 40 80 90> 50 30<10 20 100 110> 60 20<0 10 110 120>
LayerCount: 2
Fore
SplineSet
80 120 m 1xc2
 80 100 l 1xc4
 70 100 l 1
 70 90 l 1xd0
 60 90 l 1xc8
 60 70 l 1
 50 70 l 1
 50 50 l 1
 60 50 l 1xe2
 60 30 l 1xc8
 70 30 l 1
 70 20 l 1xd0
 80 20 l 1xc4
 80 0 l 1
 60 0 l 1
 60 10 l 1xc2
 50 10 l 1
 50 20 l 1xc4
 40 20 l 1xd0
 40 40 l 1xc8
 30 40 l 1
 30 80 l 1xe0
 40 80 l 1xc8
 40 100 l 1xd0
 50 100 l 1
 50 110 l 1xc4
 60 110 l 1
 60 120 l 1
 80 120 l 1xc2
EndSplineSet
Validated: 1
AlternateSubs2: "'ssty' Math Script Style lookup 4 subtable" parenleft.ssty parenleft.ssty2
AlternateSubs2: "'aalt' Access All Alternates lookup 1 subtable" parenleft.ssty parenleft.ssty2
EndChar

StartChar: parenright
Encoding: 41 41 12
Width: 110
GlyphClass: 2
Flags: W
IsExtendedShape: 1
GlyphVariantsVertical: parenright parenright.v1 parenright.v2 parenright.v3 parenright.v4 parenright.v5 parenright.v6 parenright.v7
GlyphCompositionVertical: 3  uni23A0%0,0,45,210 uni239F%1,90,90,90 uni239E%0,45,0,210
HStem: 0 20<30 40> 100 20<30 40>
VStem: 30 30<10 20 100 110> 30 20<0 10 110 120> 40 30<20 30 90 100> 50 20<30 40 80 90> 60 20<50 70>
LayerCount: 2
Fore
SplineSet
30 120 m 1xd0
 50 120 l 1
 50 110 l 1xd0
 60 110 l 1
 60 100 l 1xe0
 70 100 l 1xc8
 70 80 l 1xc4
 80 80 l 1
 80 40 l 1xc2
 70 40 l 1xc4
 70 20 l 1xc8
 60 20 l 1
 60 10 l 1xe0
 50 10 l 1
 50 0 l 1
 30 0 l 1xd0
 30 20 l 1xe0
 40 20 l 1
 40 30 l 1xc8
 50 30 l 1
 50 50 l 1xc4
 60 50 l 1
 60 70 l 1xc2
 50 70 l 1
 50 90 l 1xc4
 40 90 l 1
 40 100 l 1xc8
 30 100 l 1xe0
 30 120 l 1xd0
EndSplineSet
Validated: 1
AlternateSubs2: "'ssty' Math Script Style lookup 4 subtable" parenright.ssty parenright.ssty2
AlternateSubs2: "'aalt' Access All Alternates lookup 1 subtable" parenright.ssty parenright.ssty2
EndChar

StartChar: asterisk
Encoding: 42 42 13
Width: 110
GlyphClass: 2
Flags: W
HStem: 20 30<20 30 70 80> 20 20<10 20 80 90> 60 30<20 30 70 80> 70 20<10 20 80 90>
VStem: 10 20<20 30 80 90> 40 20<10 30 80 100> 70 20<20 30 80 90>
CounterMasks: 1 0e
LayerCount: 2
Fore
SplineSet
40 100 m 1x2e
 60 100 l 1
 60 80 l 1
 70 80 l 1
 70 90 l 1x2e
 90 90 l 1
 90 70 l 1
 80 70 l 1x1e
 80 60 l 1
 70 60 l 1
 70 50 l 1
 80 50 l 1xae
 80 40 l 1
 90 40 l 1
 90 20 l 1x4e
 70 20 l 1
 70 30 l 1
 60 30 l 1
 60 10 l 1
 40 10 l 1
 40 30 l 1
 30 30 l 1
 30 20 l 1x8e
 10 20 l 1
 10 40 l 1
 20 40 l 1x4e
 20 50 l 1
 30 50 l 1
 30 60 l 1
 20 60 l 1xae
 20 70 l 1
 10 70 l 1
 10 90 l 1x1e
 30 90 l 1
 30 80 l 1
 40 80 l 1
 40 100 l 1x2e
EndSplineSet
AlternateSubs2: "'ssty' Math Script Style lookup 4 subtable" asterisk.ssty asterisk.ssty2
AlternateSubs2: "'aalt' Access All Alternates lookup 1 subtable" asterisk.ssty asterisk.ssty2
EndChar

StartChar: plus
Encoding: 43 43 14
Width: 110
GlyphClass: 2
Flags: W
HStem: 50 20<0 40 60 100>
VStem: 40 20<10 50 70 110>
LayerCount: 2
Fore
SplineSet
40 110 m 1
 60 110 l 1
 60 70 l 1
 100 70 l 1
 100 50 l 1
 60 50 l 1
 60 10 l 1
 40 10 l 1
 40 50 l 1
 0 50 l 1
 0 70 l 1
 40 70 l 1
 40 110 l 1
EndSplineSet
Validated: 1
AlternateSubs2: "'ssty' Math Script Style lookup 4 subtable" plus.ssty plus.ssty2
AlternateSubs2: "'aalt' Access All Alternates lookup 1 subtable" plus.ssty plus.ssty2
EndChar

StartChar: comma
Encoding: 44 44 15
Width: 110
GlyphClass: 2
Flags: W
HStem: -10 21G<20 40>
VStem: 20 30<10 40> 20 20<-10 10>
LayerCount: 2
Fore
SplineSet
20 -10 m 1xa0
 20 40 l 1
 50 40 l 1
 50 10 l 1xc0
 40 10 l 1
 40 -10 l 1
 20 -10 l 1xa0
EndSplineSet
Validated: 1
AlternateSubs2: "'ssty' Math Script Style lookup 4 subtable" comma.ssty comma.ssty2
AlternateSubs2: "'aalt' Access All Alternates lookup 1 subtable" comma.ssty comma.ssty2
EndChar

StartChar: hyphen
Encoding: 45 45 16
AltUni2: 002212.ffffffff.0
Width: 110
GlyphClass: 2
Flags: W
HStem: 50 20<0 100>
LayerCount: 2
Fore
SplineSet
0 50 m 1
 0 70 l 1
 100 70 l 1
 100 50 l 1
 0 50 l 1
EndSplineSet
AlternateSubs2: "'aalt' Access All Alternates lookup 1 subtable" hyphen.ssty hyphen.ssty2
AlternateSubs2: "'ssty' Math Script Style lookup 4 subtable" hyphen.ssty hyphen.ssty2
EndChar

StartChar: period
Encoding: 46 46 17
Width: 110
GlyphClass: 2
Flags: W
HStem: 0 21G<30 50> 10 20<20 30 50 60>
VStem: 30 20<0 10 30 40>
LayerCount: 2
Fore
SplineSet
20 30 m 1x60
 30 30 l 1
 30 40 l 1
 50 40 l 1
 50 30 l 1
 60 30 l 1
 60 10 l 1
 50 10 l 1x60
 50 0 l 1
 30 0 l 1xa0
 30 10 l 1
 20 10 l 1
 20 30 l 1x60
EndSplineSet
Validated: 1
AlternateSubs2: "'ssty' Math Script Style lookup 4 subtable" period.ssty period.ssty2
AlternateSubs2: "'aalt' Access All Alternates lookup 1 subtable" period.ssty period.ssty2
EndChar

StartChar: slash
Encoding: 47 47 18
Width: 110
GlyphClass: 2
Flags: W
HStem: 0 21G<20 40> 100 20G<60 80>
VStem: 20 20<0 20> 30 20<30 40> 40 20<50 70> 50 20<80 90> 60 20<100 120>
LayerCount: 2
Fore
SplineSet
20 0 m 1xe4
 20 30 l 1xe4
 30 30 l 1
 30 50 l 1xd0
 40 50 l 1
 40 80 l 1xc8
 50 80 l 1
 50 100 l 1xc4
 60 100 l 1
 60 120 l 1
 80 120 l 1
 80 90 l 1xc2
 70 90 l 1
 70 70 l 1xc4
 60 70 l 1xc8
 60 40 l 1
 50 40 l 1xd2
 50 20 l 1
 40 20 l 1
 40 0 l 1
 20 0 l 1xe4
EndSplineSet
Validated: 1
AlternateSubs2: "'ssty' Math Script Style lookup 4 subtable" slash.ssty slash.ssty2
AlternateSubs2: "'aalt' Access All Alternates lookup 1 subtable" slash.ssty slash.ssty2
EndChar

StartChar: zero
Encoding: 48 48 19
Width: 110
GlyphClass: 2
Flags: W
HStem: 0 20<30 70> 100 20<30 70>
VStem: 10 20<20 100> 70 20<20 100>
LayerCount: 2
Fore
SplineSet
30 20 m 1
 70 20 l 1
 70 100 l 1
 30 100 l 1
 30 20 l 1
10 10 m 1
 10 110 l 1
 20 110 l 1
 20 120 l 1
 80 120 l 1
 80 110 l 1
 90 110 l 1
 90 10 l 1
 80 10 l 1
 80 0 l 1
 20 0 l 1
 20 10 l 1
 10 10 l 1
EndSplineSet
Validated: 1
AlternateSubs2: "'ssty' Math Script Style lookup 4 subtable" zero.ssty zero.ssty2
AlternateSubs2: "'aalt' Access All Alternates lookup 1 subtable" zero.ssty zero.ssty2
Substitution2: "'zero' Slashed Zero lookup 0 subtable" zero.zero
Substitution2: "'ss02' Style Set 2 lookup 4 subtable" zero.zero
EndChar

StartChar: one
Encoding: 49 49 20
Width: 110
GlyphClass: 2
Flags: W
HStem: 0 21G<50 70> 80 20<20 30> 100 20G<40 70>
VStem: 20 20<80 90> 50 20<0 90>
LayerCount: 2
Fore
SplineSet
50 0 m 1xb8
 50 90 l 1
 40 90 l 1
 40 80 l 1
 20 80 l 1
 20 100 l 1
 30 100 l 1xd8
 30 110 l 1
 40 110 l 1
 40 120 l 1
 70 120 l 1
 70 0 l 1
 50 0 l 1xb8
EndSplineSet
Validated: 1
AlternateSubs2: "'ssty' Math Script Style lookup 4 subtable" one.ssty one.ssty2
AlternateSubs2: "'aalt' Access All Alternates lookup 1 subtable" one.ssty one.ssty2
Substitution2: "'ss02' Style Set 2 lookup 4 subtable" one.ss02
EndChar

StartChar: two
Encoding: 50 50 21
Width: 110
GlyphClass: 2
Flags: W
HStem: 0 20<40 90> 40 20<50 60> 90 20<10 20> 100 20<30 70>
VStem: 10 20<90 100> 70 20<70 100>
LayerCount: 2
Fore
SplineSet
10 0 m 1xec
 10 30 l 1
 20 30 l 1
 20 40 l 1
 30 40 l 1
 30 50 l 1
 40 50 l 1
 40 60 l 1
 60 60 l 1
 60 70 l 1
 70 70 l 1
 70 100 l 1
 30 100 l 1xdc
 30 90 l 1
 10 90 l 1
 10 110 l 1
 20 110 l 1xec
 20 120 l 1
 80 120 l 1xdc
 80 110 l 1
 90 110 l 1
 90 60 l 1
 80 60 l 1
 80 50 l 1
 70 50 l 1
 70 40 l 1
 50 40 l 1
 50 30 l 1
 40 30 l 1
 40 20 l 1
 90 20 l 1
 90 0 l 1
 10 0 l 1xec
EndSplineSet
Validated: 1
AlternateSubs2: "'ssty' Math Script Style lookup 4 subtable" two.ssty two.ssty2
AlternateSubs2: "'aalt' Access All Alternates lookup 1 subtable" two.ssty two.ssty2
EndChar

StartChar: three
Encoding: 51 51 22
Width: 110
GlyphClass: 2
Flags: W
HStem: 0 20<30 70> 10 20<10 20> 50 20<30 70> 90 20<10 20> 100 20<30 70>
VStem: 10 20<20 30 90 100> 70 20<20 50 70 100>
LayerCount: 2
Fore
SplineSet
70 100 m 1xae
 30 100 l 1xae
 30 90 l 1
 10 90 l 1
 10 110 l 1
 20 110 l 1x36
 20 120 l 1
 80 120 l 1x2e
 80 110 l 1
 90 110 l 1
 90 70 l 1
 80 70 l 1
 80 60 l 1
 90 60 l 1
 90 10 l 1
 80 10 l 1x76
 80 0 l 1
 20 0 l 1xa6
 20 10 l 1
 10 10 l 1
 10 30 l 1
 30 30 l 1x66
 30 20 l 1
 70 20 l 1
 70 50 l 1
 30 50 l 1
 30 70 l 1
 70 70 l 1
 70 100 l 1xae
EndSplineSet
Validated: 1
AlternateSubs2: "'ssty' Math Script Style lookup 4 subtable" three.ssty three.ssty2
AlternateSubs2: "'aalt' Access All Alternates lookup 1 subtable" three.ssty three.ssty2
EndChar

StartChar: four
Encoding: 52 52 23
Width: 110
GlyphClass: 2
Flags: W
HStem: 0 21G<60 80> 20 20<30 60 80 90> 100 20G<50 80>
VStem: 10 20<40 50> 20 20<60 70> 30 20<80 90> 60 20<0 20 40 90>
LayerCount: 2
Fore
SplineSet
30 40 m 1x72
 60 40 l 1
 60 90 l 1
 50 90 l 1
 50 70 l 1x66
 40 70 l 1
 40 50 l 1x6a
 30 50 l 1
 30 40 l 1x72
60 0 m 1xa6
 60 20 l 1
 10 20 l 1
 10 60 l 1x72
 20 60 l 1
 20 80 l 1x6a
 30 80 l 1
 30 100 l 1x66
 40 100 l 1
 40 110 l 1x6a
 50 110 l 1
 50 120 l 1
 80 120 l 1
 80 40 l 1
 90 40 l 1
 90 20 l 1
 80 20 l 1x66
 80 0 l 1
 60 0 l 1xa6
EndSplineSet
Validated: 1
AlternateSubs2: "'ssty' Math Script Style lookup 4 subtable" four.ssty four.ssty2
AlternateSubs2: "'aalt' Access All Alternates lookup 1 subtable" four.ssty four.ssty2
EndChar

StartChar: five
Encoding: 53 53 24
Width: 110
GlyphClass: 2
Flags: W
HStem: 0 20<30 70> 10 20<10 20> 60 20<30 70> 100 20<30 90>
VStem: 10 20<20 30 80 100> 70 20<20 60>
LayerCount: 2
Fore
SplineSet
90 100 m 1xbc
 30 100 l 1
 30 80 l 1
 80 80 l 1
 80 70 l 1
 90 70 l 1
 90 10 l 1
 80 10 l 1x7c
 80 0 l 1
 20 0 l 1xbc
 20 10 l 1
 10 10 l 1
 10 30 l 1
 30 30 l 1x7c
 30 20 l 1
 70 20 l 1
 70 60 l 1
 10 60 l 1
 10 120 l 1
 90 120 l 1
 90 100 l 1xbc
EndSplineSet
Validated: 1
AlternateSubs2: "'ssty' Math Script Style lookup 4 subtable" five.ssty five.ssty2
AlternateSubs2: "'aalt' Access All Alternates lookup 1 subtable" five.ssty five.ssty2
EndChar

StartChar: six
Encoding: 54 54 25
Width: 110
GlyphClass: 2
Flags: W
HStem: 0 20<30 70> 50 20<30 70> 90 20<80 90> 100 20<30 70>
VStem: 10 20<20 50 70 100> 70 20<20 50 90 100>
LayerCount: 2
Fore
SplineSet
30 20 m 1xcc
 70 20 l 1
 70 50 l 1
 30 50 l 1
 30 20 l 1xcc
30 100 m 1xdc
 30 70 l 1
 80 70 l 1
 80 60 l 1
 90 60 l 1
 90 10 l 1
 80 10 l 1
 80 0 l 1
 20 0 l 1
 20 10 l 1
 10 10 l 1
 10 110 l 1
 20 110 l 1xec
 20 120 l 1
 80 120 l 1xdc
 80 110 l 1
 90 110 l 1
 90 90 l 1
 70 90 l 1xec
 70 100 l 1
 30 100 l 1xdc
EndSplineSet
Validated: 1
AlternateSubs2: "'ssty' Math Script Style lookup 4 subtable" six.ssty six.ssty2
AlternateSubs2: "'aalt' Access All Alternates lookup 1 subtable" six.ssty six.ssty2
EndChar

StartChar: seven
Encoding: 55 55 26
Width: 110
GlyphClass: 2
Flags: W
HStem: 0 21G<30 50> 100 20<10 70>
VStem: 30 20<0 20> 40 20<30 40> 50 20<50 60> 60 20<70 80> 70 20<90 100>
LayerCount: 2
Fore
SplineSet
50 0 m 1xe4
 30 0 l 1
 30 30 l 1xe4
 40 30 l 1
 40 50 l 1xd0
 50 50 l 1
 50 70 l 1xc8
 60 70 l 1
 60 90 l 1xc4
 70 90 l 1
 70 100 l 1
 10 100 l 1
 10 120 l 1
 90 120 l 1
 90 80 l 1xc2
 80 80 l 1
 80 60 l 1xc4
 70 60 l 1xc8
 70 40 l 1
 60 40 l 1xd2
 60 20 l 1
 50 20 l 1
 50 0 l 1xe4
EndSplineSet
Validated: 1
AlternateSubs2: "'ssty' Math Script Style lookup 4 subtable" seven.ssty seven.ssty2
AlternateSubs2: "'aalt' Access All Alternates lookup 1 subtable" seven.ssty seven.ssty2
EndChar

StartChar: eight
Encoding: 56 56 27
Width: 110
GlyphClass: 2
Flags: W
HStem: 0 20<30 70> 50 20<30 70> 100 20<30 70>
VStem: 10 20<20 50 70 100> 70 20<20 50 70 100>
CounterMasks: 1 e0
LayerCount: 2
Fore
SplineSet
30 70 m 1
 70 70 l 1
 70 100 l 1
 30 100 l 1
 30 70 l 1
30 20 m 1
 70 20 l 1
 70 50 l 1
 30 50 l 1
 30 20 l 1
10 70 m 1
 10 110 l 1
 20 110 l 1
 20 120 l 1
 80 120 l 1
 80 110 l 1
 90 110 l 1
 90 70 l 1
 80 70 l 1
 80 60 l 1
 90 60 l 1
 90 10 l 1
 80 10 l 1
 80 0 l 1
 20 0 l 1
 20 10 l 1
 10 10 l 1
 10 60 l 1
 20 60 l 1
 20 70 l 1
 10 70 l 1
EndSplineSet
Validated: 1
AlternateSubs2: "'ssty' Math Script Style lookup 4 subtable" eight.ssty eight.ssty2
AlternateSubs2: "'aalt' Access All Alternates lookup 1 subtable" eight.ssty eight.ssty2
EndChar

StartChar: nine
Encoding: 57 57 28
Width: 110
GlyphClass: 2
Flags: W
HStem: 0 20<30 70> 10 20<10 20> 50 20<30 70> 100 20<30 70>
VStem: 10 20<20 30 70 100> 70 20<20 50 70 100>
LayerCount: 2
Fore
SplineSet
70 100 m 1x3c
 30 100 l 1
 30 70 l 1
 70 70 l 1
 70 100 l 1x3c
70 20 m 1xbc
 70 50 l 1
 20 50 l 1
 20 60 l 1
 10 60 l 1
 10 110 l 1
 20 110 l 1
 20 120 l 1
 80 120 l 1
 80 110 l 1
 90 110 l 1
 90 10 l 1
 80 10 l 1x7c
 80 0 l 1
 20 0 l 1xbc
 20 10 l 1
 10 10 l 1
 10 30 l 1
 30 30 l 1x7c
 30 20 l 1
 70 20 l 1xbc
EndSplineSet
Validated: 1
AlternateSubs2: "'ssty' Math Script Style lookup 4 subtable" nine.ssty nine.ssty2
AlternateSubs2: "'aalt' Access All Alternates lookup 1 subtable" nine.ssty nine.ssty2
EndChar

StartChar: colon
Encoding: 58 58 29
Width: 110
GlyphClass: 2
Flags: W
HStem: 10 30<40 70> 70 30<40 70>
VStem: 40 30<10 40 70 100>
LayerCount: 2
Fore
SplineSet
40 10 m 1
 40 40 l 1
 70 40 l 1
 70 10 l 1
 40 10 l 1
40 70 m 1
 40 100 l 1
 70 100 l 1
 70 70 l 1
 40 70 l 1
EndSplineSet
Validated: 1
AlternateSubs2: "'ssty' Math Script Style lookup 4 subtable" colon.ssty colon.ssty2
AlternateSubs2: "'aalt' Access All Alternates lookup 1 subtable" colon.ssty colon.ssty2
EndChar

StartChar: semicolon
Encoding: 59 59 30
Width: 110
GlyphClass: 2
Flags: W
HStem: -10 21G<40 60> 70 30<40 70>
VStem: 40 30<10 40 70 100> 40 20<-10 10>
LayerCount: 2
Fore
SplineSet
40 70 m 1xe0
 40 100 l 1
 70 100 l 1
 70 70 l 1
 40 70 l 1xe0
40 -10 m 1xd0
 40 40 l 1
 70 40 l 1
 70 10 l 1xe0
 60 10 l 1
 60 -10 l 1
 40 -10 l 1xd0
EndSplineSet
Validated: 1
AlternateSubs2: "'ssty' Math Script Style lookup 4 subtable" semicolon.ssty semicolon.ssty2
AlternateSubs2: "'aalt' Access All Alternates lookup 1 subtable" semicolon.ssty semicolon.ssty2
EndChar

StartChar: less
Encoding: 60 60 31
Width: 110
GlyphClass: 2
Flags: W
HStem: 0 20<70 80> 90 20<70 80>
VStem: 20 30<40 50 60 70> 20 20<50 60> 30 30<30 40 70 80> 40 30<20 30 80 90> 50 30<10 20 90 100> 60 20<0 10 100 110>
LayerCount: 2
Fore
SplineSet
80 0 m 1xc1
 60 0 l 1
 60 10 l 1xc1
 50 10 l 1
 50 20 l 1xc2
 40 20 l 1
 40 30 l 1xc4
 30 30 l 1
 30 40 l 1xc8
 20 40 l 1
 20 70 l 1xe0
 30 70 l 1
 30 80 l 1xc8
 40 80 l 1
 40 90 l 1xc4
 50 90 l 1
 50 100 l 1xc2
 60 100 l 1
 60 110 l 1
 80 110 l 1xc1
 80 90 l 1xc2
 70 90 l 1
 70 80 l 1xc4
 60 80 l 1
 60 70 l 1xc8
 50 70 l 1
 50 60 l 1xe0
 40 60 l 1
 40 50 l 1xd0
 50 50 l 1
 50 40 l 1xe0
 60 40 l 1
 60 30 l 1xc8
 70 30 l 1
 70 20 l 1xc4
 80 20 l 1xc2
 80 0 l 1xc1
EndSplineSet
Validated: 1
AlternateSubs2: "'ssty' Math Script Style lookup 4 subtable" less.ssty less.ssty2
AlternateSubs2: "'aalt' Access All Alternates lookup 1 subtable" less.ssty less.ssty2
EndChar

StartChar: equal
Encoding: 61 61 32
Width: 110
GlyphClass: 2
Flags: W
HStem: 30 20<0 100> 70 20<0 100>
LayerCount: 2
Fore
SplineSet
0 70 m 1
 0 90 l 1
 100 90 l 1
 100 70 l 1
 0 70 l 1
0 30 m 1
 0 50 l 1
 100 50 l 1
 100 30 l 1
 0 30 l 1
EndSplineSet
Validated: 1
AlternateSubs2: "'ssty' Math Script Style lookup 4 subtable" equal.ssty equal.ssty2
AlternateSubs2: "'aalt' Access All Alternates lookup 1 subtable" equal.ssty equal.ssty2
EndChar

StartChar: greater
Encoding: 62 62 33
Width: 110
GlyphClass: 2
Flags: W
HStem: 0 20<20 30> 90 20<20 30>
VStem: 20 30<10 20 90 100> 20 20<0 10 100 110> 30 30<20 30 80 90> 40 30<30 40 70 80> 50 30<40 50 60 70> 60 20<50 60>
LayerCount: 2
Fore
SplineSet
20 0 m 1xd0
 20 20 l 1xe0
 30 20 l 1
 30 30 l 1xc8
 40 30 l 1
 40 40 l 1xc4
 50 40 l 1
 50 50 l 1xc2
 60 50 l 1
 60 60 l 1xc1
 50 60 l 1
 50 70 l 1xc2
 40 70 l 1
 40 80 l 1xc4
 30 80 l 1
 30 90 l 1xc8
 20 90 l 1xe0
 20 110 l 1
 40 110 l 1
 40 100 l 1xd0
 50 100 l 1
 50 90 l 1xe0
 60 90 l 1
 60 80 l 1xc8
 70 80 l 1
 70 70 l 1xc4
 80 70 l 1
 80 40 l 1xc2
 70 40 l 1
 70 30 l 1xc4
 60 30 l 1
 60 20 l 1xc8
 50 20 l 1
 50 10 l 1xe0
 40 10 l 1
 40 0 l 1
 20 0 l 1xd0
EndSplineSet
Validated: 1
AlternateSubs2: "'ssty' Math Script Style lookup 4 subtable" greater.ssty greater.ssty2
AlternateSubs2: "'aalt' Access All Alternates lookup 1 subtable" greater.ssty greater.ssty2
EndChar

StartChar: question
Encoding: 63 63 34
Width: 110
GlyphClass: 2
Flags: W
HStem: 0 20<40 60> 40 20<40 50> 90 20<20 30> 100 20<40 60>
VStem: 20 20<90 100> 40 20<0 20 40 60> 50 20<60 80> 60 20<80 100>
LayerCount: 2
Fore
SplineSet
20 90 m 1xe9
 20 110 l 1
 30 110 l 1xe9
 30 120 l 1
 70 120 l 1xda
 70 110 l 1xea
 80 110 l 1
 80 80 l 1xe1
 70 80 l 1
 70 60 l 1xe2
 60 60 l 1
 60 40 l 1
 40 40 l 1
 40 60 l 1xe4
 50 60 l 1
 50 80 l 1xe2
 60 80 l 1
 60 100 l 1
 40 100 l 1xd9
 40 90 l 1
 20 90 l 1xe9
40 0 m 1xc4
 40 20 l 1
 60 20 l 1
 60 0 l 1
 40 0 l 1xc4
EndSplineSet
Validated: 1
AlternateSubs2: "'ssty' Math Script Style lookup 4 subtable" question.ssty question.ssty2
AlternateSubs2: "'aalt' Access All Alternates lookup 1 subtable" question.ssty question.ssty2
EndChar

StartChar: at
Encoding: 64 64 35
Width: 110
GlyphClass: 2
Flags: W
HStem: -10 20<30 90> 20 20<50 60 70 80> 70 20<50 60> 90 30<20 30 70 80> 100 20<30 70>
VStem: 0 30<10 20 90 100> 0 20<20 90> 30 20<40 70> 40 20<20 30> 60 10<40 70> 70 20<20 30> 80 20<40 90>
LayerCount: 2
Fore
SplineSet
50 40 m 1xe140
 60 40 l 1
 60 70 l 1
 50 70 l 1
 50 40 l 1xe140
0 10 m 1xd4
 0 100 l 1
 10 100 l 1xcc
 10 110 l 1
 20 110 l 1
 20 120 l 1
 80 120 l 1
 80 110 l 1xd210
 90 110 l 1
 90 100 l 1xc820
 100 100 l 1
 100 30 l 1xc810
 90 30 l 1
 90 20 l 1
 70 20 l 1
 70 30 l 1
 60 30 l 1
 60 20 l 1
 40 20 l 1
 40 30 l 1xc8a0
 30 30 l 1
 30 80 l 1xc9
 40 80 l 1
 40 90 l 1
 70 90 l 1xd0a0
 70 40 l 1
 80 40 l 1
 80 90 l 1xd050
 70 90 l 1xd020
 70 100 l 1
 30 100 l 1xcc20
 30 90 l 1xd420
 20 90 l 1
 20 20 l 1xd2
 30 20 l 1
 30 10 l 1xd4
 90 10 l 1
 90 -10 l 1
 20 -10 l 1
 20 0 l 1xd220
 10 0 l 1
 10 10 l 1
 0 10 l 1xd4
EndSplineSet
Validated: 5
AlternateSubs2: "'ssty' Math Script Style lookup 4 subtable" at.ssty at.ssty2
AlternateSubs2: "'aalt' Access All Alternates lookup 1 subtable" at.ssty at.ssty2
EndChar

StartChar: A
Encoding: 65 65 36
Width: 110
GlyphClass: 2
Flags: W
HStem: 0 21G<10 30 80 100> 30 20<40 70> 100 20G<40 70>
VStem: 10 20<0 30> 20 20<50 70> 30 20<80 90> 40 30<100 120> 60 20<80 90> 70 20<50 70> 80 20<0 30>
LayerCount: 2
Fore
SplineSet
40 50 m 1xe8
 70 50 l 1
 70 70 l 1xe880
 60 70 l 1
 60 90 l 1
 50 90 l 1
 50 70 l 1xe5
 40 70 l 1
 40 50 l 1xe8
30 0 m 1xf040
 10 0 l 1
 10 50 l 1xf040
 20 50 l 1
 20 80 l 1xe8
 30 80 l 1
 30 100 l 1xe4
 40 100 l 1
 40 120 l 1
 70 120 l 1
 70 100 l 1
 80 100 l 1xe240
 80 80 l 1xe1
 90 80 l 1
 90 50 l 1xe080
 100 50 l 1
 100 0 l 1
 80 0 l 1
 80 30 l 1
 30 30 l 1
 30 0 l 1xf040
EndSplineSet
Validated: 1
AlternateSubs2: "'ssty' Math Script Style lookup 4 subtable" A.ssty A.ssty2
AlternateSubs2: "'aalt' Access All Alternates lookup 1 subtable" A.ssty A.ssty2
Substitution2: "'subs' Subscript lookup 0 subtable" A.subs
EndChar

StartChar: B
Encoding: 66 66 37
Width: 110
GlyphClass: 2
Flags: W
HStem: 0 20<30 70> 50 20<30 70> 100 20<30 70>
VStem: 10 20<20 50 70 100> 70 20<20 50 70 100>
CounterMasks: 1 e0
LayerCount: 2
Fore
SplineSet
30 20 m 1
 70 20 l 1
 70 50 l 1
 30 50 l 1
 30 20 l 1
30 100 m 1
 30 70 l 1
 70 70 l 1
 70 100 l 1
 30 100 l 1
10 0 m 1
 10 120 l 1
 80 120 l 1
 80 110 l 1
 90 110 l 1
 90 70 l 1
 80 70 l 1
 80 60 l 1
 90 60 l 1
 90 10 l 1
 80 10 l 1
 80 0 l 1
 10 0 l 1
EndSplineSet
Validated: 1
AlternateSubs2: "'ssty' Math Script Style lookup 4 subtable" B.ssty B.ssty2
AlternateSubs2: "'aalt' Access All Alternates lookup 1 subtable" B.ssty B.ssty2
Substitution2: "'subs' Subscript lookup 0 subtable" B.subs
EndChar

StartChar: C
Encoding: 67 67 38
Width: 110
GlyphClass: 2
Flags: W
HStem: 0 20<40 70> 10 20<80 90> 90 20<80 90> 100 20<40 70>
VStem: 10 30<20 30 90 100> 10 20<30 90> 70 20<20 30 90 100>
LayerCount: 2
Fore
SplineSet
10 20 m 1x8a
 10 100 l 1
 20 100 l 1x9a
 20 110 l 1
 30 110 l 1x26
 30 120 l 1
 80 120 l 1x16
 80 110 l 1
 90 110 l 1
 90 90 l 1
 70 90 l 1x26
 70 100 l 1
 40 100 l 1x1a
 40 90 l 1x2a
 30 90 l 1
 30 30 l 1x66
 40 30 l 1x6a
 40 20 l 1
 70 20 l 1x8a
 70 30 l 1
 90 30 l 1
 90 10 l 1
 80 10 l 1x4a
 80 0 l 1
 30 0 l 1x86
 30 10 l 1
 20 10 l 1x46
 20 20 l 1
 10 20 l 1x8a
EndSplineSet
Validated: 1
AlternateSubs2: "'ssty' Math Script Style lookup 4 subtable" C.ssty C.ssty2
AlternateSubs2: "'aalt' Access All Alternates lookup 1 subtable" C.ssty C.ssty2
Substitution2: "'subs' Subscript lookup 0 subtable" C.subs
EndChar

StartChar: D
Encoding: 68 68 39
Width: 110
GlyphClass: 2
Flags: W
HStem: 0 20<30 60> 100 20<30 60>
VStem: 10 20<20 100> 60 30<20 30 90 100> 70 20<30 90>
LayerCount: 2
Fore
SplineSet
30 20 m 1xf0
 60 20 l 1
 60 30 l 1xf0
 70 30 l 1
 70 90 l 1xe8
 60 90 l 1
 60 100 l 1
 30 100 l 1
 30 20 l 1xf0
90 20 m 1
 80 20 l 1
 80 10 l 1
 70 10 l 1
 70 0 l 1
 10 0 l 1
 10 120 l 1
 70 120 l 1
 70 110 l 1xe8
 80 110 l 1
 80 100 l 1
 90 100 l 1
 90 20 l 1
EndSplineSet
Validated: 1
AlternateSubs2: "'aalt' Access All Alternates lookup 1 subtable" D.ssty D.ssty2
AlternateSubs2: "'ssty' Math Script Style lookup 4 subtable" D.ssty D.ssty2
EndChar

StartChar: E
Encoding: 69 69 40
Width: 110
GlyphClass: 2
Flags: W
HStem: 0 20<30 90> 50 20<30 80> 100 20<30 90>
VStem: 10 20<20 50 70 100>
CounterMasks: 1 e0
LayerCount: 2
Fore
SplineSet
10 0 m 1
 10 120 l 1
 90 120 l 1
 90 100 l 1
 30 100 l 1
 30 70 l 1
 80 70 l 1
 80 50 l 1
 30 50 l 1
 30 20 l 1
 90 20 l 1
 90 0 l 1
 10 0 l 1
EndSplineSet
Validated: 1
AlternateSubs2: "'aalt' Access All Alternates lookup 1 subtable" E.ssty E.ssty2
AlternateSubs2: "'ssty' Math Script Style lookup 4 subtable" E.ssty E.ssty2
EndChar

StartChar: F
Encoding: 70 70 41
Width: 110
GlyphClass: 2
Flags: W
HStem: 0 21G<10 30> 50 20<30 80> 100 20<30 90>
VStem: 10 20<0 50 70 100>
LayerCount: 2
Fore
SplineSet
10 0 m 1
 10 120 l 1
 90 120 l 1
 90 100 l 1
 30 100 l 1
 30 70 l 1
 80 70 l 1
 80 50 l 1
 30 50 l 1
 30 0 l 1
 10 0 l 1
EndSplineSet
Validated: 1
AlternateSubs2: "'aalt' Access All Alternates lookup 1 subtable" F.ssty F.ssty2
AlternateSubs2: "'ssty' Math Script Style lookup 4 subtable" F.ssty F.ssty2
Substitution2: "'subs' Subscript lookup 0 subtable" F.subs
EndChar

StartChar: G
Encoding: 71 71 42
Width: 110
GlyphClass: 2
Flags: W
HStem: 0 20<40 70> 50 20<50 70> 90 20<80 90> 100 20<40 70>
VStem: 10 30<20 30 90 100> 10 20<30 90> 70 20<20 50 90 100>
LayerCount: 2
Fore
SplineSet
10 20 m 1xea
 10 100 l 1
 20 100 l 1xda
 20 110 l 1
 30 110 l 1xe6
 30 120 l 1
 80 120 l 1xd6
 80 110 l 1
 90 110 l 1
 90 90 l 1
 70 90 l 1xe6
 70 100 l 1
 40 100 l 1xda
 40 90 l 1xea
 30 90 l 1
 30 30 l 1xe6
 40 30 l 1
 40 20 l 1xea
 70 20 l 1
 70 50 l 1
 50 50 l 1
 50 70 l 1
 90 70 l 1
 90 10 l 1
 80 10 l 1
 80 0 l 1
 30 0 l 1
 30 10 l 1xe6
 20 10 l 1
 20 20 l 1
 10 20 l 1xea
EndSplineSet
Validated: 1
AlternateSubs2: "'aalt' Access All Alternates lookup 1 subtable" G.ssty G.ssty2
AlternateSubs2: "'ssty' Math Script Style lookup 4 subtable" G.ssty G.ssty2
EndChar

StartChar: H
Encoding: 72 72 43
Width: 110
GlyphClass: 2
Flags: W
HStem: 0 21G<10 30 70 90> 50 20<30 70> 100 20G<10 30 70 90>
VStem: 10 20<0 50 70 120> 70 20<0 50 70 120>
LayerCount: 2
Fore
SplineSet
10 0 m 1
 10 120 l 1
 30 120 l 1
 30 70 l 1
 70 70 l 1
 70 120 l 1
 90 120 l 1
 90 0 l 1
 70 0 l 1
 70 50 l 1
 30 50 l 1
 30 0 l 1
 10 0 l 1
EndSplineSet
AlternateSubs2: "'aalt' Access All Alternates lookup 1 subtable" H.ssty H.ssty2
AlternateSubs2: "'ssty' Math Script Style lookup 4 subtable" H.ssty H.ssty2
EndChar

StartChar: I
Encoding: 73 73 44
Width: 110
GlyphClass: 2
Flags: W
HStem: 0 20<20 40 60 80> 100 20<20 40 60 80>
VStem: 40 20<20 100>
LayerCount: 2
Fore
SplineSet
20 100 m 1
 20 120 l 1
 80 120 l 1
 80 100 l 1
 60 100 l 1
 60 20 l 1
 80 20 l 1
 80 0 l 1
 20 0 l 1
 20 20 l 1
 40 20 l 1
 40 100 l 1
 20 100 l 1
EndSplineSet
Validated: 1
AlternateSubs2: "'ssty' Math Script Style lookup 4 subtable" I.ssty I.ssty2
AlternateSubs2: "'aalt' Access All Alternates lookup 1 subtable" I.ssty I.ssty2
Substitution2: "'subs' Subscript lookup 0 subtable" I.subs
EndChar

StartChar: J
Encoding: 74 74 45
Width: 110
GlyphClass: 2
Flags: W
HStem: -10 20<20 50> 100 20G<60 80>
VStem: 60 20<20 120>
LayerCount: 2
Fore
SplineSet
60 -10 m 1
 20 -10 l 1
 20 10 l 1
 50 10 l 1
 50 20 l 1
 60 20 l 1
 60 120 l 1
 80 120 l 1
 80 10 l 1
 70 10 l 1
 70 0 l 1
 60 0 l 1
 60 -10 l 1
EndSplineSet
Validated: 1
AlternateSubs2: "'ssty' Math Script Style lookup 4 subtable" J.ssty J.ssty2
AlternateSubs2: "'aalt' Access All Alternates lookup 1 subtable" J.ssty J.ssty2
Substitution2: "'subs' Subscript lookup 0 subtable" J.subs
EndChar

StartChar: K
Encoding: 75 75 46
AltUni2: 00212a.ffffffff.0
Width: 110
GlyphClass: 2
Flags: W
HStem: 0 21G<10 30 70 90> 100 20<80 90>
VStem: 10 20<0 50 80 120> 50 20<50 60> 60 20<30 40> 70 20<0 20 110 120>
LayerCount: 2
Fore
SplineSet
10 0 m 1xf0
 10 120 l 1
 30 120 l 1
 30 80 l 1
 40 80 l 1
 40 90 l 1
 50 90 l 1
 50 100 l 1xf0
 60 100 l 1
 60 110 l 1xe8
 70 110 l 1
 70 120 l 1
 90 120 l 1
 90 100 l 1xe4
 80 100 l 1
 80 90 l 1xe8
 70 90 l 1
 70 80 l 1xe4
 60 80 l 1
 60 70 l 1xe8
 70 70 l 1xe4
 70 50 l 1xf0
 80 50 l 1
 80 30 l 1xe8
 90 30 l 1
 90 0 l 1
 70 0 l 1
 70 20 l 1xe4
 60 20 l 1
 60 40 l 1xe8
 50 40 l 1
 50 60 l 1
 40 60 l 1
 40 50 l 1
 30 50 l 1
 30 0 l 1
 10 0 l 1xf0
EndSplineSet
Validated: 1
AlternateSubs2: "'ssty' Math Script Style lookup 4 subtable" K.ssty K.ssty2
AlternateSubs2: "'aalt' Access All Alternates lookup 1 subtable" K.ssty K.ssty2
Substitution2: "'subs' Subscript lookup 0 subtable" K.subs
EndChar

StartChar: L
Encoding: 76 76 47
Width: 110
GlyphClass: 2
Flags: W
HStem: 0 20<30 90> 100 20G<10 30>
VStem: 10 20<20 120>
LayerCount: 2
Fore
SplineSet
10 0 m 1
 10 120 l 1
 30 120 l 1
 30 20 l 1
 90 20 l 1
 90 0 l 1
 10 0 l 1
EndSplineSet
Validated: 1
AlternateSubs2: "'aalt' Access All Alternates lookup 1 subtable" L.ssty L.ssty2
AlternateSubs2: "'ssty' Math Script Style lookup 4 subtable" L.ssty L.ssty2
EndChar

StartChar: M
Encoding: 77 77 48
Width: 110
GlyphClass: 2
Flags: W
HStem: 0 21G<10 30 40 60 70 90> 100 20G<10 30 70 90>
VStem: 10 30<60 90> 10 20<0 40 90 120> 40 20<0 40> 60 30<60 90> 70 20<0 40 90 120>
LayerCount: 2
Fore
SplineSet
10 0 m 1xda
 10 120 l 1
 30 120 l 1
 30 90 l 1xda
 40 90 l 1
 40 60 l 1
 60 60 l 1
 60 90 l 1xe4
 70 90 l 1
 70 120 l 1
 90 120 l 1
 90 0 l 1
 70 0 l 1
 70 40 l 1
 60 40 l 1
 60 0 l 1
 40 0 l 1
 40 40 l 1
 30 40 l 1
 30 0 l 1
 10 0 l 1xda
EndSplineSet
Validated: 1
AlternateSubs2: "'aalt' Access All Alternates lookup 1 subtable" M.ssty M.ssty2
AlternateSubs2: "'ssty' Math Script Style lookup 4 subtable" M.ssty M.ssty2
EndChar

StartChar: N
Encoding: 78 78 49
Width: 110
GlyphClass: 2
Flags: W
HStem: 0 21G<10 30 70 90> 100 20G<10 30 70 90>
VStem: 10 30<90 110> 10 20<0 70 110 120> 40 20<50 70> 60 30<10 30> 70 20<0 10 50 120>
LayerCount: 2
Fore
SplineSet
10 0 m 1xd8
 10 120 l 1
 30 120 l 1
 30 110 l 1xd8
 40 110 l 1
 40 90 l 1xe0
 50 90 l 1
 50 70 l 1
 60 70 l 1
 60 50 l 1
 70 50 l 1
 70 120 l 1
 90 120 l 1
 90 0 l 1
 70 0 l 1
 70 10 l 1xca
 60 10 l 1
 60 30 l 1xc4
 50 30 l 1
 50 50 l 1
 40 50 l 1
 40 70 l 1
 30 70 l 1
 30 0 l 1
 10 0 l 1xd8
EndSplineSet
Validated: 1
AlternateSubs2: "'ssty' Math Script Style lookup 4 subtable" N.ssty N.ssty2
AlternateSubs2: "'aalt' Access All Alternates lookup 1 subtable" N.ssty N.ssty2
Substitution2: "'subs' Subscript lookup 0 subtable" N.subs
EndChar

StartChar: O
Encoding: 79 79 50
Width: 110
GlyphClass: 2
Flags: W
HStem: 0 30<30 40 70 80> 0 20<40 70> 90 30<30 40 70 80> 100 20<40 70>
VStem: 10 30<20 30 90 100> 10 20<30 90> 70 30<20 30 90 100> 80 20<30 90>
LayerCount: 2
Fore
SplineSet
40 30 m 1xa8
 40 20 l 1
 70 20 l 1x4a
 70 30 l 1x8a
 80 30 l 1
 80 90 l 1xa1
 70 90 l 1xa2
 70 100 l 1
 40 100 l 1x1a
 40 90 l 1x2a
 30 90 l 1
 30 30 l 1xa4
 40 30 l 1xa8
20 20 m 1
 10 20 l 1
 10 100 l 1
 20 100 l 1x58
 20 110 l 1
 30 110 l 1
 30 120 l 1
 80 120 l 1
 80 110 l 1x25
 90 110 l 1
 90 100 l 1
 100 100 l 1
 100 20 l 1
 90 20 l 1x52
 90 10 l 1
 80 10 l 1
 80 0 l 1
 30 0 l 1
 30 10 l 1x85
 20 10 l 1
 20 20 l 1
EndSplineSet
Validated: 1
AlternateSubs2: "'aalt' Access All Alternates lookup 1 subtable" O.ssty O.ssty2
AlternateSubs2: "'ssty' Math Script Style lookup 4 subtable" O.ssty O.ssty2
EndChar

StartChar: P
Encoding: 80 80 51
Width: 110
GlyphClass: 2
Flags: W
HStem: 0 21G<10 30> 50 20<30 70> 100 20<30 70>
VStem: 10 20<0 50 70 100> 70 20<70 100>
LayerCount: 2
Fore
SplineSet
30 100 m 1
 30 70 l 1
 70 70 l 1
 70 100 l 1
 30 100 l 1
10 0 m 1
 10 120 l 1
 80 120 l 1
 80 110 l 1
 90 110 l 1
 90 60 l 1
 80 60 l 1
 80 50 l 1
 30 50 l 1
 30 0 l 1
 10 0 l 1
EndSplineSet
Validated: 1
AlternateSubs2: "'ssty' Math Script Style lookup 4 subtable" P.ssty P.ssty2
AlternateSubs2: "'aalt' Access All Alternates lookup 1 subtable" P.ssty P.ssty2
Substitution2: "'subs' Subscript lookup 0 subtable" P.subs
EndChar

StartChar: Q
Encoding: 81 81 52
Width: 110
GlyphClass: 2
Flags: W
HStem: -10 20<90 100> 0 20<40 70> 30 20<40 70> 90 30<30 40 70 80> 100 20<40 70>
VStem: 10 30<20 30 90 100> 10 20<40 90> 70 30<20 30 90 100> 80 20<-10 0 40 90>
LayerCount: 2
Fore
SplineSet
30 40 m 1x32
 40 40 l 1
 40 50 l 1
 70 50 l 1
 70 40 l 1x35
 80 40 l 1
 80 90 l 1x3080
 70 90 l 1x31
 70 100 l 1
 40 100 l 1x2d
 40 90 l 1x35
 30 90 l 1
 30 40 l 1x32
40 20 m 1x65
 70 20 l 1
 70 30 l 1
 40 30 l 1
 40 20 l 1x65
10 20 m 1
 10 100 l 1
 20 100 l 1x6c
 20 110 l 1
 30 110 l 1
 30 120 l 1
 80 120 l 1
 80 110 l 1x3280
 90 110 l 1
 90 100 l 1
 100 100 l 1
 100 20 l 1
 90 20 l 1x69
 90 10 l 1
 100 10 l 1
 100 -10 l 1
 80 -10 l 1xa080
 80 0 l 1
 30 0 l 1x6280
 30 10 l 1
 20 10 l 1xa280
 20 20 l 1
 10 20 l 1
EndSplineSet
Validated: 1
AlternateSubs2: "'aalt' Access All Alternates lookup 1 subtable" Q.ssty Q.ssty2
AlternateSubs2: "'ssty' Math Script Style lookup 4 subtable" Q.ssty Q.ssty2
EndChar

StartChar: R
Encoding: 82 82 53
Width: 110
GlyphClass: 2
Flags: W
HStem: 0 20<80 90> 50 20<30 50> 100 20<30 70>
VStem: 10 20<0 50 70 100> 50 20<40 50> 60 20<20 30> 70 20<0 10 70 100>
CounterMasks: 1 e0
LayerCount: 2
Fore
SplineSet
30 100 m 1xf2
 30 70 l 1
 70 70 l 1
 70 100 l 1
 30 100 l 1xf2
10 0 m 1
 10 120 l 1
 80 120 l 1
 80 110 l 1xf4
 90 110 l 1
 90 60 l 1xf2
 80 60 l 1
 80 50 l 1xf4
 70 50 l 1
 70 40 l 1xf8
 80 40 l 1
 80 20 l 1xf4
 90 20 l 1
 90 0 l 1
 70 0 l 1
 70 10 l 1xf2
 60 10 l 1
 60 30 l 1xf4
 50 30 l 1
 50 50 l 1xf8
 30 50 l 1
 30 0 l 1
 10 0 l 1
EndSplineSet
Validated: 1
AlternateSubs2: "'aalt' Access All Alternates lookup 1 subtable" R.ssty R.ssty2
AlternateSubs2: "'ssty' Math Script Style lookup 4 subtable" R.ssty R.ssty2
EndChar

StartChar: S
Encoding: 83 83 54
Width: 110
GlyphClass: 2
Flags: W
HStem: 0 20<30 70> 10 20<10 20> 50 20<40 70> 90 20<90 100> 100 20<40 80>
VStem: 10 30<70 80 90 100> 10 20<20 30 80 90> 70 30<20 30 40 50> 80 20<30 40 90 100>
LayerCount: 2
Fore
SplineSet
80 90 m 1x3280
 80 100 l 1
 40 100 l 1x2c80
 40 90 l 1x3480
 30 90 l 1
 30 80 l 1x32
 40 80 l 1
 40 70 l 1
 80 70 l 1
 80 60 l 1x3480
 90 60 l 1
 90 50 l 1
 100 50 l 1
 100 20 l 1
 90 20 l 1xb1
 90 10 l 1
 80 10 l 1x6080
 80 0 l 1
 20 0 l 1xa080
 20 10 l 1
 10 10 l 1
 10 30 l 1
 30 30 l 1x6280
 30 20 l 1
 70 20 l 1xa3
 70 30 l 1x63
 80 30 l 1
 80 40 l 1x6080
 70 40 l 1
 70 50 l 1
 30 50 l 1
 30 60 l 1x63
 20 60 l 1
 20 70 l 1
 10 70 l 1
 10 100 l 1
 20 100 l 1x6c
 20 110 l 1
 30 110 l 1x32
 30 120 l 1
 90 120 l 1x2a
 90 110 l 1
 100 110 l 1
 100 90 l 1
 80 90 l 1x3280
EndSplineSet
Validated: 1
AlternateSubs2: "'aalt' Access All Alternates lookup 1 subtable" S.ssty S.ssty2
AlternateSubs2: "'ssty' Math Script Style lookup 4 subtable" S.ssty S.ssty2
EndChar

StartChar: T
Encoding: 84 84 55
Width: 110
GlyphClass: 2
Flags: W
HStem: 0 21G<40 60> 100 20<10 40 60 90>
VStem: 40 20<0 100>
LayerCount: 2
Fore
SplineSet
10 100 m 1
 10 120 l 1
 90 120 l 1
 90 100 l 1
 60 100 l 1
 60 0 l 1
 40 0 l 1
 40 100 l 1
 10 100 l 1
EndSplineSet
Validated: 1
AlternateSubs2: "'ssty' Math Script Style lookup 4 subtable" T.ssty T.ssty2
AlternateSubs2: "'aalt' Access All Alternates lookup 1 subtable" T.ssty T.ssty2
Substitution2: "'subs' Subscript lookup 0 subtable" T.subs
EndChar

StartChar: U
Encoding: 85 85 56
Width: 110
GlyphClass: 2
Flags: W
HStem: 0 20<30 70> 100 20G<10 30 70 90>
VStem: 10 20<20 120> 70 20<20 120>
LayerCount: 2
Fore
SplineSet
20 10 m 1
 10 10 l 1
 10 120 l 1
 30 120 l 1
 30 20 l 1
 70 20 l 1
 70 120 l 1
 90 120 l 1
 90 10 l 1
 80 10 l 1
 80 0 l 1
 20 0 l 1
 20 10 l 1
EndSplineSet
Validated: 1
AlternateSubs2: "'aalt' Access All Alternates lookup 1 subtable" U.ssty U.ssty2
AlternateSubs2: "'ssty' Math Script Style lookup 4 subtable" U.ssty U.ssty2
EndChar

StartChar: V
Encoding: 86 86 57
Width: 110
GlyphClass: 2
Flags: W
HStem: 0 21G<40 70> 100 20G<10 30 80 100>
VStem: 10 20<90 120> 20 20<60 80> 30 20<30 50> 40 30<0 20> 60 20<30 50> 70 20<60 80> 80 20<90 120>
LayerCount: 2
Fore
SplineSet
10 80 m 1xe0
 10 120 l 1
 30 120 l 1
 30 90 l 1
 40 90 l 1xe4
 40 60 l 1xd0
 50 60 l 1
 50 30 l 1
 60 30 l 1
 60 60 l 1xca
 70 60 l 1
 70 90 l 1xc1
 80 90 l 1
 80 120 l 1
 100 120 l 1
 100 80 l 1xc080
 90 80 l 1
 90 50 l 1xc1
 80 50 l 1xc2
 80 20 l 1
 70 20 l 1
 70 0 l 1
 40 0 l 1
 40 20 l 1xc480
 30 20 l 1
 30 50 l 1xc8
 20 50 l 1
 20 80 l 1xd0
 10 80 l 1xe0
EndSplineSet
Validated: 1
AlternateSubs2: "'aalt' Access All Alternates lookup 1 subtable" V.ssty V.ssty2
AlternateSubs2: "'ssty' Math Script Style lookup 4 subtable" V.ssty V.ssty2
EndChar

StartChar: W
Encoding: 87 87 58
Width: 110
GlyphClass: 2
Flags: W
HStem: 0 21G<20 40 60 80> 100 20G<10 30 70 90>
VStem: 10 20<50 120> 20 20<0 30> 40 20<50 100> 60 20<0 30> 70 20<50 120>
LayerCount: 2
Fore
SplineSet
90 120 m 1xea
 90 50 l 1xea
 80 50 l 1
 80 0 l 1
 60 0 l 1
 60 30 l 1
 40 30 l 1
 40 0 l 1
 20 0 l 1
 20 50 l 1xd4
 10 50 l 1
 10 120 l 1
 30 120 l 1
 30 50 l 1
 40 50 l 1
 40 100 l 1
 60 100 l 1
 60 50 l 1
 70 50 l 1
 70 120 l 1
 90 120 l 1xea
EndSplineSet
Validated: 1
AlternateSubs2: "'aalt' Access All Alternates lookup 1 subtable" W.ssty W.ssty2
AlternateSubs2: "'ssty' Math Script Style lookup 4 subtable" W.ssty W.ssty2
EndChar

StartChar: X
Encoding: 88 88 59
Width: 110
GlyphClass: 2
Flags: W
HStem: 0 30<10 20 80 90> 90 30<10 20 80 90>
VStem: 10 20<0 20 100 120> 20 20<30 40 80 90> 60 20<30 40 80 90> 70 20<0 20 100 120>
LayerCount: 2
Fore
SplineSet
10 90 m 1xe0
 10 120 l 1
 30 120 l 1
 30 100 l 1xe0
 40 100 l 1
 40 80 l 1
 60 80 l 1
 60 100 l 1xd8
 70 100 l 1
 70 120 l 1
 90 120 l 1
 90 90 l 1xc4
 80 90 l 1
 80 70 l 1xc8
 70 70 l 1
 70 50 l 1xc4
 80 50 l 1
 80 30 l 1xc8
 90 30 l 1
 90 0 l 1
 70 0 l 1
 70 20 l 1xc4
 60 20 l 1
 60 40 l 1
 40 40 l 1
 40 20 l 1xd8
 30 20 l 1
 30 0 l 1
 10 0 l 1
 10 30 l 1xe0
 20 30 l 1
 20 50 l 1xd0
 30 50 l 1
 30 70 l 1xe0
 20 70 l 1
 20 90 l 1xd0
 10 90 l 1xe0
EndSplineSet
Validated: 1
AlternateSubs2: "'aalt' Access All Alternates lookup 1 subtable" X.ssty X.ssty2
AlternateSubs2: "'ssty' Math Script Style lookup 4 subtable" X.ssty X.ssty2
EndChar

StartChar: Y
Encoding: 89 89 60
Width: 110
GlyphClass: 2
Flags: W
HStem: 0 21G<40 60> 90 30<10 20 80 90>
VStem: 10 20<100 120> 20 20<80 90> 40 20<0 50> 60 20<80 90> 70 20<100 120>
LayerCount: 2
Fore
SplineSet
70 50 m 1xc2
 60 50 l 1
 60 0 l 1
 40 0 l 1
 40 50 l 1
 30 50 l 1
 30 70 l 1xea
 20 70 l 1
 20 90 l 1xd0
 10 90 l 1
 10 120 l 1
 30 120 l 1
 30 100 l 1
 40 100 l 1xe8
 40 80 l 1
 60 80 l 1
 60 100 l 1xd4
 70 100 l 1
 70 120 l 1
 90 120 l 1
 90 90 l 1xc2
 80 90 l 1
 80 70 l 1xc4
 70 70 l 1
 70 50 l 1xc2
EndSplineSet
Validated: 1
AlternateSubs2: "'aalt' Access All Alternates lookup 1 subtable" Y.ssty Y.ssty2
AlternateSubs2: "'ssty' Math Script Style lookup 4 subtable" Y.ssty Y.ssty2
EndChar

StartChar: Z
Encoding: 90 90 61
Width: 110
GlyphClass: 2
Flags: W
HStem: 0 20<40 90> 100 20<10 60>
VStem: 30 20<40 50> 50 20<70 80>
LayerCount: 2
Fore
SplineSet
10 100 m 1xd0
 10 120 l 1
 90 120 l 1
 90 90 l 1
 80 90 l 1
 80 80 l 1
 70 80 l 1
 70 60 l 1xd0
 60 60 l 1
 60 50 l 1
 50 50 l 1xe0
 50 30 l 1xd0
 40 30 l 1
 40 20 l 1
 90 20 l 1
 90 0 l 1
 10 0 l 1
 10 30 l 1
 20 30 l 1
 20 40 l 1
 30 40 l 1
 30 60 l 1xe0
 40 60 l 1
 40 70 l 1
 50 70 l 1
 50 90 l 1
 60 90 l 1
 60 100 l 1
 10 100 l 1xd0
EndSplineSet
Validated: 1
AlternateSubs2: "'aalt' Access All Alternates lookup 1 subtable" Z.ssty Z.ssty2
AlternateSubs2: "'ssty' Math Script Style lookup 4 subtable" Z.ssty Z.ssty2
EndChar

StartChar: bracketleft
Encoding: 91 91 62
Width: 110
GlyphClass: 2
Flags: W
HStem: 0 20<40 70> 100 20<40 70>
VStem: 20 50<0 20 100 120> 20 20<20 100>
LayerCount: 2
Fore
SplineSet
20 0 m 1xe0
 20 120 l 1
 70 120 l 1
 70 100 l 1xe0
 40 100 l 1
 40 20 l 1xd0
 70 20 l 1
 70 0 l 1
 20 0 l 1xe0
EndSplineSet
Validated: 1
AlternateSubs2: "'ssty' Math Script Style lookup 4 subtable" bracketleft.ssty bracketleft.ssty2
AlternateSubs2: "'aalt' Access All Alternates lookup 1 subtable" bracketleft.ssty bracketleft.ssty2
EndChar

StartChar: backslash
Encoding: 92 92 63
Width: 110
GlyphClass: 2
Flags: W
LayerCount: 2
Fore
SplineSet
80 0 m 5
 80 30 l 5
 70 30 l 5
 70 50 l 5
 60 50 l 5
 60 80 l 5
 50 80 l 5
 50 100 l 5
 40 100 l 5
 40 120 l 5
 20 120 l 5
 20 90 l 5
 30 90 l 5
 30 70 l 5
 40 70 l 5
 40 40 l 5
 50 40 l 5
 50 20 l 5
 60 20 l 5
 60 0 l 5
 80 0 l 5
EndSplineSet
Validated: 9
AlternateSubs2: "'ssty' Math Script Style lookup 4 subtable" backslash.ssty backslash.ssty2
AlternateSubs2: "'aalt' Access All Alternates lookup 1 subtable" backslash.ssty backslash.ssty2
EndChar

StartChar: bracketright
Encoding: 93 93 64
Width: 110
GlyphClass: 2
Flags: W
HStem: 0 20<30 60> 100 20<30 60>
VStem: 30 50<0 20 100 120> 60 20<20 100>
LayerCount: 2
Fore
SplineSet
30 120 m 1xe0
 80 120 l 1
 80 0 l 1
 30 0 l 1
 30 20 l 1xe0
 60 20 l 1
 60 100 l 1xd0
 30 100 l 1
 30 120 l 1xe0
EndSplineSet
Validated: 1
AlternateSubs2: "'ssty' Math Script Style lookup 4 subtable" bracketright.ssty bracketright.ssty2
AlternateSubs2: "'aalt' Access All Alternates lookup 1 subtable" bracketright.ssty bracketright.ssty2
EndChar

StartChar: asciicircum
Encoding: 94 94 65
Width: 110
GlyphClass: 2
Flags: W
HStem: 80 30<20 30 70 80> 80 20<10 20 80 90> 90 30<30 40 60 70> 100 20<40 60>
VStem: 10 20<80 90> 70 20<80 90>
LayerCount: 2
Fore
SplineSet
10 80 m 1x4c
 10 100 l 1
 20 100 l 1x4c
 20 110 l 1
 30 110 l 1x8c
 30 120 l 1
 70 120 l 1x2c
 70 110 l 1
 80 110 l 1x8c
 80 100 l 1
 90 100 l 1
 90 80 l 1x4c
 70 80 l 1x8c
 70 90 l 1
 60 90 l 1x2c
 60 100 l 1
 40 100 l 1x1c
 40 90 l 1
 30 90 l 1x2c
 30 80 l 1x8c
 10 80 l 1x4c
EndSplineSet
Validated: 1
AlternateSubs2: "'ssty' Math Script Style lookup 4 subtable" asciicircum.ssty asciicircum.ssty2
AlternateSubs2: "'aalt' Access All Alternates lookup 1 subtable" asciicircum.ssty asciicircum.ssty2
EndChar

StartChar: underscore
Encoding: 95 95 66
Width: 110
GlyphClass: 2
Flags: W
HStem: -10 20<0 100>
LayerCount: 2
Fore
SplineSet
0 -10 m 1
 0 10 l 1
 100 10 l 1
 100 -10 l 1
 0 -10 l 1
EndSplineSet
Validated: 1
AlternateSubs2: "'ssty' Math Script Style lookup 4 subtable" underscore.ssty underscore.ssty2
AlternateSubs2: "'aalt' Access All Alternates lookup 1 subtable" underscore.ssty underscore.ssty2
EndChar

StartChar: a
Encoding: 97 97 67
AltUni2: 00e019.ffffffff.0
Width: 110
GlyphClass: 2
Flags: W
HStem: 0 20<30 70> 40 20<30 70> 70 20<20 70>
VStem: 10 20<20 40> 70 20<20 40 60 70>
LayerCount: 2
Fore
SplineSet
30 20 m 1
 70 20 l 1
 70 40 l 1
 30 40 l 1
 30 20 l 1
80 90 m 1
 80 80 l 1
 90 80 l 1
 90 0 l 1
 20 0 l 1
 20 10 l 1
 10 10 l 1
 10 50 l 1
 20 50 l 1
 20 60 l 1
 70 60 l 1
 70 70 l 1
 20 70 l 1
 20 90 l 1
 80 90 l 1
EndSplineSet
Validated: 1
AlternateSubs2: "'aalt' Access All Alternates lookup 1 subtable" a.ssty a.ssty2 cAlthGk.ssty cAlthGk.ssty2 cAlthGk.ssty cAlthGk.ssty2
AlternateSubs2: "'ssty' Math Script Style lookup 4 subtable" a.ssty a.ssty2 cAlthGk.ssty cAlthGk.ssty2 cAlthGk.ssty cAlthGk.ssty2
Substitution2: "'ss01' Style Set 1 lookup 3 subtable" uni0251
EndChar

StartChar: b
Encoding: 98 98 68
Width: 110
GlyphClass: 2
Flags: W
HStem: 0 20<30 70> 70 20<30 70> 100 20G<10 30>
VStem: 10 20<20 70 90 120> 70 20<20 70>
LayerCount: 2
Fore
SplineSet
30 20 m 1
 70 20 l 1
 70 70 l 1
 30 70 l 1
 30 20 l 1
10 120 m 1
 30 120 l 1
 30 90 l 1
 80 90 l 1
 80 80 l 1
 90 80 l 1
 90 10 l 1
 80 10 l 1
 80 0 l 1
 10 0 l 1
 10 120 l 1
EndSplineSet
Validated: 1
AlternateSubs2: "'ssty' Math Script Style lookup 4 subtable" b.ssty b.ssty2
AlternateSubs2: "'aalt' Access All Alternates lookup 1 subtable" b.ssty b.ssty2
EndChar

StartChar: c
Encoding: 99 99 69
Width: 110
GlyphClass: 2
Flags: W
HStem: 0 20<30 70> 10 20<80 90> 60 20<80 90> 70 20<30 70>
VStem: 10 20<20 70> 70 20<20 30 60 70>
LayerCount: 2
Fore
SplineSet
10 10 m 1x4c
 10 80 l 1
 20 80 l 1x6c
 20 90 l 1
 80 90 l 1x1c
 80 80 l 1
 90 80 l 1
 90 60 l 1
 70 60 l 1x2c
 70 70 l 1
 30 70 l 1
 30 20 l 1
 70 20 l 1x9c
 70 30 l 1
 90 30 l 1
 90 10 l 1
 80 10 l 1x4c
 80 0 l 1
 20 0 l 1x8c
 20 10 l 1
 10 10 l 1x4c
EndSplineSet
Validated: 1
AlternateSubs2: "'aalt' Access All Alternates lookup 1 subtable" c.ssty c.ssty2
AlternateSubs2: "'ssty' Math Script Style lookup 4 subtable" c.ssty c.ssty2
Substitution2: "'ss01' Style Set 1 lookup 3 subtable" uniE018
EndChar

StartChar: d
Encoding: 100 100 70
Width: 110
GlyphClass: 2
Flags: W
HStem: 0 20<30 70> 70 20<30 70> 100 20G<70 90>
VStem: 10 20<20 70> 70 20<20 70 90 120>
LayerCount: 2
Fore
SplineSet
70 20 m 1
 70 70 l 1
 30 70 l 1
 30 20 l 1
 70 20 l 1
90 120 m 1
 90 0 l 1
 20 0 l 1
 20 10 l 1
 10 10 l 1
 10 80 l 1
 20 80 l 1
 20 90 l 1
 70 90 l 1
 70 120 l 1
 90 120 l 1
EndSplineSet
Validated: 1
AlternateSubs2: "'ssty' Math Script Style lookup 4 subtable" d.ssty d.ssty2
AlternateSubs2: "'aalt' Access All Alternates lookup 1 subtable" d.ssty d.ssty2
EndChar

StartChar: e
Encoding: 101 101 71
Width: 110
GlyphClass: 2
Flags: W
HStem: 0 20<30 70> 10 20<80 90> 40 20<30 70> 70 20<30 70>
VStem: 10 20<20 40 60 70> 70 20<20 30 60 70>
LayerCount: 2
Fore
SplineSet
30 70 m 1x3c
 30 60 l 1
 70 60 l 1
 70 70 l 1
 30 70 l 1x3c
20 10 m 1x7c
 10 10 l 1x7c
 10 80 l 1
 20 80 l 1
 20 90 l 1
 80 90 l 1
 80 80 l 1
 90 80 l 1
 90 40 l 1
 30 40 l 1
 30 20 l 1
 70 20 l 1xbc
 70 30 l 1
 90 30 l 1
 90 10 l 1
 80 10 l 1x7c
 80 0 l 1
 20 0 l 1xbc
 20 10 l 1x7c
EndSplineSet
Validated: 1
AlternateSubs2: "'ssty' Math Script Style lookup 4 subtable" e.ssty e.ssty2
AlternateSubs2: "'aalt' Access All Alternates lookup 1 subtable" e.ssty e.ssty2
EndChar

StartChar: f
Encoding: 102 102 72
Width: 110
GlyphClass: 2
Flags: W
HStem: 0 21G<30 50> 60 20<10 30 50 80> 90 20<80 90> 100 20<50 70>
VStem: 30 20<0 60 80 100> 70 20<90 100>
LayerCount: 2
Fore
SplineSet
10 60 m 1xdc
 10 80 l 1
 30 80 l 1
 30 110 l 1
 40 110 l 1xec
 40 120 l 1
 80 120 l 1xdc
 80 110 l 1
 90 110 l 1
 90 90 l 1
 70 90 l 1xec
 70 100 l 1
 50 100 l 1
 50 80 l 1
 80 80 l 1
 80 60 l 1
 50 60 l 1
 50 0 l 1
 30 0 l 1
 30 60 l 1
 10 60 l 1xdc
EndSplineSet
Validated: 1
AlternateSubs2: "'ssty' Math Script Style lookup 4 subtable" f.ssty f.ssty2
AlternateSubs2: "'aalt' Access All Alternates lookup 1 subtable" f.ssty f.ssty2
EndChar

StartChar: g
Encoding: 103 103 73
Width: 110
GlyphClass: 2
Flags: W
HStem: -10 20<30 70> 0 30<10 20 80 90> 20 20<50 70> 50 20<50 60> 80 20<30 60 80 90>
VStem: 10 20<10 20 70 80> 60 20<70 80> 70 20<10 20>
LayerCount: 2
Fore
SplineSet
30 80 m 1x1e
 30 70 l 1
 60 70 l 1
 60 80 l 1
 30 80 l 1x1e
30 20 m 1xbd
 30 10 l 1
 70 10 l 1
 70 20 l 1
 30 20 l 1xbd
20 0 m 1x5e
 10 0 l 1
 10 30 l 1
 20 30 l 1x5e
 20 40 l 1
 30 40 l 1
 30 50 l 1
 20 50 l 1
 20 60 l 1
 10 60 l 1
 10 90 l 1
 20 90 l 1
 20 100 l 1
 90 100 l 1
 90 80 l 1x3d
 80 80 l 1
 80 60 l 1x3e
 70 60 l 1
 70 50 l 1x3d
 50 50 l 1
 50 40 l 1
 80 40 l 1x3e
 80 30 l 1x5e
 90 30 l 1
 90 0 l 1x5d
 80 0 l 1x5e
 80 -10 l 1
 20 -10 l 1x9e
 20 0 l 1x5e
EndSplineSet
Validated: 1
AlternateSubs2: "'aalt' Access All Alternates lookup 1 subtable" g.ssty g.ssty2
AlternateSubs2: "'ssty' Math Script Style lookup 4 subtable" g.ssty g.ssty2
Substitution2: "'ss01' Style Set 1 lookup 3 subtable" uni0261
EndChar

StartChar: h
Encoding: 104 104 74
Width: 110
GlyphClass: 2
Flags: W
HStem: 0 21G<10 30 70 90> 60 20<30 40> 70 20<40 70> 100 20G<10 30>
VStem: 10 20<0 60 80 120> 70 20<0 70>
LayerCount: 2
Fore
SplineSet
90 0 m 1xdc
 70 0 l 1
 70 70 l 1
 40 70 l 1xbc
 40 60 l 1
 30 60 l 1
 30 0 l 1
 10 0 l 1
 10 120 l 1
 30 120 l 1
 30 80 l 1
 40 80 l 1xdc
 40 90 l 1
 80 90 l 1xbc
 80 80 l 1
 90 80 l 1
 90 0 l 1xdc
EndSplineSet
Validated: 1
AlternateSubs2: "'ssty' Math Script Style lookup 4 subtable" h.ssty h.ssty2
AlternateSubs2: "'aalt' Access All Alternates lookup 1 subtable" h.ssty h.ssty2
EndChar

StartChar: i
Encoding: 105 105 75
Width: 110
GlyphClass: 2
Flags: W
HStem: 0 20<20 40 60 80> 70 20<20 40> 100 20<40 60>
VStem: 40 20<20 70 100 120>
LayerCount: 2
Fore
SplineSet
20 70 m 1
 20 90 l 1
 60 90 l 1
 60 20 l 1
 80 20 l 1
 80 0 l 1
 20 0 l 1
 20 20 l 1
 40 20 l 1
 40 70 l 1
 20 70 l 1
40 100 m 1
 40 120 l 1
 60 120 l 1
 60 100 l 1
 40 100 l 1
EndSplineSet
Validated: 1
AlternateSubs2: "'ssty' Math Script Style lookup 4 subtable" i.ssty i.ssty2
AlternateSubs2: "'aalt' Access All Alternates lookup 1 subtable" i.ssty i.ssty2
EndChar

StartChar: j
Encoding: 106 106 76
Width: 110
GlyphClass: 2
Flags: W
HStem: -10 20<30 60> 70 20<40 60> 100 20<60 80>
VStem: 60 20<10 70 100 120>
LayerCount: 2
Fore
SplineSet
40 70 m 1
 40 90 l 1
 80 90 l 1
 80 0 l 1
 70 0 l 1
 70 -10 l 1
 30 -10 l 1
 30 10 l 1
 60 10 l 1
 60 70 l 1
 40 70 l 1
60 100 m 1
 60 120 l 1
 80 120 l 1
 80 100 l 1
 60 100 l 1
EndSplineSet
Validated: 1
AlternateSubs2: "'ssty' Math Script Style lookup 4 subtable" j.ssty j.ssty2
AlternateSubs2: "'aalt' Access All Alternates lookup 1 subtable" j.ssty j.ssty2
EndChar

StartChar: k
Encoding: 107 107 77
Width: 110
GlyphClass: 2
Flags: W
HStem: 0 20<80 90> 70 20<80 90> 100 20G<10 30>
VStem: 10 20<0 20 50 120> 50 30<20 30 60 70> 60 30<10 20 70 80> 70 20<0 10 80 90>
LayerCount: 2
Fore
SplineSet
10 0 m 1xf8
 10 120 l 1
 30 120 l 1
 30 50 l 1
 40 50 l 1
 40 60 l 1
 50 60 l 1
 50 70 l 1xf8
 60 70 l 1
 60 80 l 1xf4
 70 80 l 1
 70 90 l 1
 90 90 l 1xf2
 90 70 l 1xf4
 80 70 l 1
 80 60 l 1xf8
 70 60 l 1
 70 50 l 1xf2
 60 50 l 1
 60 40 l 1xf4
 70 40 l 1
 70 30 l 1xf2
 80 30 l 1
 80 20 l 1xf8
 90 20 l 1xf4
 90 0 l 1
 70 0 l 1
 70 10 l 1xf2
 60 10 l 1
 60 20 l 1xf4
 50 20 l 1
 50 30 l 1
 40 30 l 1
 40 20 l 1
 30 20 l 1
 30 0 l 1
 10 0 l 1xf8
EndSplineSet
Validated: 1
AlternateSubs2: "'aalt' Access All Alternates lookup 1 subtable" k.ssty k.ssty2
AlternateSubs2: "'ssty' Math Script Style lookup 4 subtable" k.ssty k.ssty2
Substitution2: "'subs' Subscript lookup 0 subtable" uniE021
EndChar

StartChar: l
Encoding: 108 108 78
Width: 110
GlyphClass: 2
Flags: W
HStem: 0 20<20 40 60 80> 100 20<20 40>
VStem: 40 20<20 100>
LayerCount: 2
Fore
SplineSet
20 100 m 1
 20 120 l 1
 60 120 l 1
 60 20 l 1
 80 20 l 1
 80 0 l 1
 20 0 l 1
 20 20 l 1
 40 20 l 1
 40 100 l 1
 20 100 l 1
EndSplineSet
Validated: 1
AlternateSubs2: "'ssty' Math Script Style lookup 4 subtable" l.ssty l.ssty2
AlternateSubs2: "'aalt' Access All Alternates lookup 1 subtable" l.ssty l.ssty2
EndChar

StartChar: m
Encoding: 109 109 79
Width: 110
GlyphClass: 2
Flags: W
HStem: 0 21G<0 20 40 60 80 100> 60 20<20 30> 70 20<30 40 70 80>
VStem: 0 20<0 60 80 90> 30 20<80 90> 40 20<0 60> 80 20<0 70>
LayerCount: 2
Fore
SplineSet
60 0 m 1xd6
 40 0 l 1
 40 70 l 1xb6
 30 70 l 1xba
 30 60 l 1
 20 60 l 1xda
 20 0 l 1
 0 0 l 1
 0 90 l 1
 20 90 l 1xba
 20 80 l 1
 30 80 l 1xda
 30 90 l 1
 50 90 l 1xba
 50 80 l 1xda
 60 80 l 1xd6
 60 90 l 1
 90 90 l 1xb6
 90 80 l 1
 100 80 l 1xd6
 100 0 l 1
 80 0 l 1
 80 70 l 1
 70 70 l 1xb6
 70 60 l 1
 60 60 l 1
 60 0 l 1xd6
EndSplineSet
Validated: 1
AlternateSubs2: "'ssty' Math Script Style lookup 4 subtable" m.ssty m.ssty2
AlternateSubs2: "'aalt' Access All Alternates lookup 1 subtable" m.ssty m.ssty2
EndChar

StartChar: n
Encoding: 110 110 80
Width: 110
GlyphClass: 2
Flags: W
HStem: 0 21G<10 30 70 90> 60 20<30 40> 70 20<40 70>
VStem: 10 20<0 60 80 90> 70 20<0 70>
LayerCount: 2
Fore
SplineSet
90 0 m 1xd8
 70 0 l 1
 70 70 l 1
 40 70 l 1xb8
 40 60 l 1
 30 60 l 1xd8
 30 0 l 1
 10 0 l 1
 10 90 l 1
 30 90 l 1xb8
 30 80 l 1
 40 80 l 1xd8
 40 90 l 1
 80 90 l 1xb8
 80 80 l 1
 90 80 l 1
 90 0 l 1xd8
EndSplineSet
Validated: 1
AlternateSubs2: "'ssty' Math Script Style lookup 4 subtable" n.ssty n.ssty2
AlternateSubs2: "'aalt' Access All Alternates lookup 1 subtable" n.ssty n.ssty2
EndChar

StartChar: o
Encoding: 111 111 81
Width: 110
GlyphClass: 2
Flags: W
HStem: 0 20<30 70> 70 20<30 70>
VStem: 10 20<20 70> 70 20<20 70>
LayerCount: 2
Fore
SplineSet
30 70 m 1
 30 20 l 1
 70 20 l 1
 70 70 l 1
 30 70 l 1
20 10 m 1
 10 10 l 1
 10 80 l 1
 20 80 l 1
 20 90 l 1
 80 90 l 1
 80 80 l 1
 90 80 l 1
 90 10 l 1
 80 10 l 1
 80 0 l 1
 20 0 l 1
 20 10 l 1
EndSplineSet
Validated: 1
AlternateSubs2: "'ssty' Math Script Style lookup 4 subtable" o.ssty o.ssty2
AlternateSubs2: "'aalt' Access All Alternates lookup 1 subtable" o.ssty o.ssty2
EndChar

StartChar: p
Encoding: 112 112 82
Width: 110
GlyphClass: 2
Flags: W
HStem: -10 21G<10 30> 20 20<30 70> 70 20<30 70>
VStem: 10 20<-10 20 40 70> 70 20<40 70>
LayerCount: 2
Fore
SplineSet
70 70 m 1
 30 70 l 1
 30 40 l 1
 70 40 l 1
 70 70 l 1
30 -10 m 1
 10 -10 l 1
 10 90 l 1
 80 90 l 1
 80 80 l 1
 90 80 l 1
 90 30 l 1
 80 30 l 1
 80 20 l 1
 30 20 l 1
 30 -10 l 1
EndSplineSet
Validated: 1
AlternateSubs2: "'ssty' Math Script Style lookup 4 subtable" p.ssty p.ssty2
AlternateSubs2: "'aalt' Access All Alternates lookup 1 subtable" p.ssty p.ssty2
EndChar

StartChar: q
Encoding: 113 113 83
Width: 110
GlyphClass: 2
Flags: W
HStem: -10 21G<70 90> 20 20<30 70> 70 20<30 70>
VStem: 10 20<40 70> 70 20<-10 20 40 70>
LayerCount: 2
Fore
SplineSet
70 40 m 1
 70 70 l 1
 30 70 l 1
 30 40 l 1
 70 40 l 1
90 90 m 1
 90 -10 l 1
 70 -10 l 1
 70 20 l 1
 20 20 l 1
 20 30 l 1
 10 30 l 1
 10 80 l 1
 20 80 l 1
 20 90 l 1
 90 90 l 1
EndSplineSet
Validated: 1
AlternateSubs2: "'ssty' Math Script Style lookup 4 subtable" q.ssty q.ssty2
AlternateSubs2: "'aalt' Access All Alternates lookup 1 subtable" q.ssty q.ssty2
EndChar

StartChar: r
Encoding: 114 114 84
Width: 110
GlyphClass: 2
Flags: W
HStem: 0 21G<20 40> 60 20<40 50> 70 20<50 90>
VStem: 20 20<0 60 80 90>
LayerCount: 2
Fore
SplineSet
90 70 m 1xb0
 50 70 l 1xb0
 50 60 l 1
 40 60 l 1xd0
 40 0 l 1
 20 0 l 1
 20 90 l 1
 40 90 l 1xb0
 40 80 l 1
 50 80 l 1xd0
 50 90 l 1
 90 90 l 1
 90 70 l 1xb0
EndSplineSet
Validated: 1
AlternateSubs2: "'ssty' Math Script Style lookup 4 subtable" r.ssty r.ssty2
AlternateSubs2: "'aalt' Access All Alternates lookup 1 subtable" r.ssty r.ssty2
EndChar

StartChar: s
Encoding: 115 115 85
Width: 110
GlyphClass: 2
Flags: W
HStem: 0 20<30 70> 10 20<10 20> 30 20<60 70> 40 20<30 50> 60 20<80 90> 70 20<30 70>
VStem: 10 20<20 30 60 70> 70 20<20 30 60 70>
LayerCount: 2
Fore
SplineSet
10 10 m 1x43
 10 30 l 1x43
 30 30 l 1
 30 20 l 1
 70 20 l 1
 70 30 l 1
 50 30 l 1xa3
 50 40 l 1
 20 40 l 1x13
 20 50 l 1
 10 50 l 1
 10 80 l 1
 20 80 l 1x2b
 20 90 l 1
 80 90 l 1x07
 80 80 l 1
 90 80 l 1
 90 60 l 1
 70 60 l 1x0b
 70 70 l 1
 30 70 l 1
 30 60 l 1x17
 60 60 l 1
 60 50 l 1
 80 50 l 1x2b
 80 40 l 1
 90 40 l 1
 90 10 l 1
 80 10 l 1x53
 80 0 l 1
 20 0 l 1x83
 20 10 l 1
 10 10 l 1x43
EndSplineSet
Validated: 1
AlternateSubs2: "'ssty' Math Script Style lookup 4 subtable" s.ssty s.ssty2
AlternateSubs2: "'aalt' Access All Alternates lookup 1 subtable" s.ssty s.ssty2
EndChar

StartChar: t
Encoding: 116 116 86
Width: 110
GlyphClass: 2
Flags: W
HStem: 0 20<50 80> 70 20<10 30 50 80>
VStem: 30 20<20 70 90 110>
LayerCount: 2
Fore
SplineSet
10 90 m 1
 30 90 l 1
 30 110 l 1
 50 110 l 1
 50 90 l 1
 80 90 l 1
 80 70 l 1
 50 70 l 1
 50 20 l 1
 80 20 l 1
 80 0 l 1
 40 0 l 1
 40 10 l 1
 30 10 l 1
 30 70 l 1
 10 70 l 1
 10 90 l 1
EndSplineSet
Validated: 1
AlternateSubs2: "'ssty' Math Script Style lookup 4 subtable" t.ssty t.ssty2
AlternateSubs2: "'aalt' Access All Alternates lookup 1 subtable" t.ssty t.ssty2
EndChar

StartChar: u
Encoding: 117 117 87
Width: 110
GlyphClass: 2
Flags: W
HStem: 0 20<30 60> 10 20<60 70> 70 20G<10 30 70 90>
VStem: 10 20<20 90> 70 20<0 10 30 90>
LayerCount: 2
Fore
SplineSet
10 90 m 1x78
 30 90 l 1
 30 20 l 1
 60 20 l 1xb8
 60 30 l 1
 70 30 l 1x78
 70 90 l 1
 90 90 l 1
 90 0 l 1
 70 0 l 1xb8
 70 10 l 1
 60 10 l 1x78
 60 0 l 1
 20 0 l 1xb8
 20 10 l 1
 10 10 l 1
 10 90 l 1x78
EndSplineSet
Validated: 1
AlternateSubs2: "'ssty' Math Script Style lookup 4 subtable" u.ssty u.ssty2
AlternateSubs2: "'aalt' Access All Alternates lookup 1 subtable" u.ssty u.ssty2
EndChar

StartChar: v
Encoding: 118 118 88
Width: 110
GlyphClass: 2
Flags: W
HStem: 0 21G<40 60> 60 30<10 20 80 90>
VStem: 10 20<60 90> 20 20<40 60> 40 20<0 20> 60 20<40 60> 70 20<60 90>
LayerCount: 2
Fore
SplineSet
10 60 m 1xe0
 10 90 l 1
 30 90 l 1
 30 60 l 1xe0
 40 60 l 1
 40 40 l 1
 60 40 l 1
 60 60 l 1xd4
 70 60 l 1
 70 90 l 1
 90 90 l 1
 90 60 l 1xc2
 80 60 l 1
 80 40 l 1xc4
 70 40 l 1
 70 20 l 1
 60 20 l 1
 60 0 l 1
 40 0 l 1
 40 20 l 1
 30 20 l 1
 30 40 l 1xea
 20 40 l 1
 20 60 l 1xd0
 10 60 l 1xe0
EndSplineSet
Validated: 1
AlternateSubs2: "'ssty' Math Script Style lookup 4 subtable" v.ssty v.ssty2
AlternateSubs2: "'aalt' Access All Alternates lookup 1 subtable" v.ssty v.ssty2
EndChar

StartChar: w
Encoding: 119 119 89
Width: 110
GlyphClass: 2
Flags: W
HStem: 0 21G<10 30 70 90> 40 50<0 10 40 60 90 100>
VStem: 0 20<40 90> 10 30<20 40> 10 20<0 20> 40 20<60 90> 60 30<20 40> 70 20<0 20> 80 20<40 90>
LayerCount: 2
Fore
SplineSet
10 0 m 1xc8
 10 40 l 1xd0
 0 40 l 1
 0 90 l 1
 20 90 l 1
 20 40 l 1xe0
 30 40 l 1
 30 60 l 1
 40 60 l 1
 40 90 l 1
 60 90 l 1
 60 60 l 1
 70 60 l 1
 70 40 l 1xcd
 80 40 l 1
 80 90 l 1
 100 90 l 1
 100 40 l 1xc080
 90 40 l 1xc2
 90 0 l 1
 70 0 l 1
 70 20 l 1xc1
 60 20 l 1
 60 40 l 1
 40 40 l 1
 40 20 l 1xd2
 30 20 l 1
 30 0 l 1
 10 0 l 1xc8
EndSplineSet
Validated: 1
AlternateSubs2: "'ssty' Math Script Style lookup 4 subtable" w.ssty w.ssty2
AlternateSubs2: "'aalt' Access All Alternates lookup 1 subtable" w.ssty w.ssty2
EndChar

StartChar: x
Encoding: 120 120 90
Width: 110
GlyphClass: 2
Flags: W
HStem: 0 30<20 30 70 80> 0 20<10 20 80 90> 10 30<30 40 60 70> 50 30<30 40 60 70> 60 30<20 30 70 80> 70 20<10 20 80 90>
VStem: 10 30<10 20 70 80> 10 20<0 10 80 90> 40 20<40 50> 60 30<10 20 70 80> 70 20<0 10 80 90>
LayerCount: 2
Fore
SplineSet
20 60 m 1x0980
 20 70 l 1
 10 70 l 1x06
 10 90 l 1x05
 30 90 l 1x09
 30 80 l 1x11
 40 80 l 1x12
 40 70 l 1
 60 70 l 1x0640
 60 80 l 1x1240
 70 80 l 1x1020
 70 90 l 1x0820
 90 90 l 1x0420
 90 70 l 1
 80 70 l 1x0440
 80 60 l 1
 70 60 l 1x0820
 70 50 l 1
 60 50 l 1
 60 40 l 1
 70 40 l 1x30a0
 70 30 l 1
 80 30 l 1x80a0
 80 20 l 1
 90 20 l 1x4040
 90 0 l 1x4020
 70 0 l 1x8020
 70 10 l 1x2020
 60 10 l 1x2040
 60 20 l 1
 40 20 l 1x4240
 40 10 l 1x2240
 30 10 l 1x21
 30 0 l 1x81
 10 0 l 1x41
 10 20 l 1
 20 20 l 1x42
 20 30 l 1
 30 30 l 1x81
 30 40 l 1
 40 40 l 1
 40 50 l 1
 30 50 l 1x3180
 30 60 l 1
 20 60 l 1x0980
EndSplineSet
Validated: 1
AlternateSubs2: "'ssty' Math Script Style lookup 4 subtable" x.ssty x.ssty2
AlternateSubs2: "'aalt' Access All Alternates lookup 1 subtable" x.ssty x.ssty2
EndChar

StartChar: y
Encoding: 121 121 91
Width: 110
GlyphClass: 2
Flags: W
HStem: -10 20<10 30> 70 20<10 20 80 90>
VStem: 10 20<70 90> 20 20<50 70> 40 20<20 30> 60 20<50 70> 70 20<70 90>
LayerCount: 2
Fore
SplineSet
10 70 m 1xe0
 10 90 l 1
 30 90 l 1
 30 70 l 1xe0
 40 70 l 1
 40 50 l 1
 60 50 l 1
 60 70 l 1xd4
 70 70 l 1
 70 90 l 1
 90 90 l 1
 90 70 l 1xc2
 80 70 l 1
 80 50 l 1xc4
 70 50 l 1
 70 30 l 1
 60 30 l 1xca
 60 10 l 1xc4
 50 10 l 1
 50 0 l 1
 40 0 l 1
 40 -10 l 1
 10 -10 l 1
 10 10 l 1
 30 10 l 1
 30 20 l 1
 40 20 l 1
 40 30 l 1
 30 30 l 1
 30 50 l 1xe8
 20 50 l 1
 20 70 l 1xd0
 10 70 l 1xe0
EndSplineSet
Validated: 1
AlternateSubs2: "'ssty' Math Script Style lookup 4 subtable" y.ssty y.ssty2
AlternateSubs2: "'aalt' Access All Alternates lookup 1 subtable" y.ssty y.ssty2
EndChar

StartChar: z
Encoding: 122 122 92
Width: 110
GlyphClass: 2
Flags: W
HStem: 0 20<40 90> 70 20<10 50 80 90>
LayerCount: 2
Fore
SplineSet
10 70 m 1
 10 90 l 1
 90 90 l 1
 90 70 l 1
 80 70 l 1
 80 60 l 1
 70 60 l 1
 70 50 l 1
 60 50 l 1
 60 40 l 1
 50 40 l 1
 50 30 l 1
 40 30 l 1
 40 20 l 1
 90 20 l 1
 90 0 l 1
 10 0 l 1
 10 30 l 1
 20 30 l 1
 20 40 l 1
 30 40 l 1
 30 50 l 1
 40 50 l 1
 40 60 l 1
 50 60 l 1
 50 70 l 1
 10 70 l 1
EndSplineSet
Validated: 1
AlternateSubs2: "'ssty' Math Script Style lookup 4 subtable" z.ssty z.ssty2
AlternateSubs2: "'aalt' Access All Alternates lookup 1 subtable" z.ssty z.ssty2
EndChar

StartChar: braceleft
Encoding: 123 123 93
Width: 110
GlyphClass: 2
Flags: W
HStem: -10 20<60 80> 100 20<60 80>
VStem: 20 30<40 50 60 70> 20 20<50 60> 30 30<30 40 70 80> 40 20<10 30 80 100> 50 30<-10 0 110 120>
LayerCount: 2
Fore
SplineSet
50 120 m 1xc2
 80 120 l 1
 80 100 l 1xc2
 60 100 l 1xc4
 60 70 l 1xc8
 50 70 l 1
 50 60 l 1xe0
 40 60 l 1
 40 50 l 1xd0
 50 50 l 1
 50 40 l 1xe0
 60 40 l 1xc8
 60 10 l 1xc4
 80 10 l 1
 80 -10 l 1
 50 -10 l 1
 50 0 l 1xc2
 40 0 l 1
 40 30 l 1xc4
 30 30 l 1
 30 40 l 1xc8
 20 40 l 1
 20 70 l 1xe0
 30 70 l 1
 30 80 l 1xc8
 40 80 l 1
 40 110 l 1xc4
 50 110 l 1
 50 120 l 1xc2
EndSplineSet
Validated: 1
EndChar

StartChar: bar
Encoding: 124 124 94
Width: 110
GlyphClass: 2
Flags: W
HStem: 0 21G<40 60> 100 20G<40 60>
VStem: 40 20<0 120>
LayerCount: 2
Fore
SplineSet
40 0 m 1
 40 120 l 1
 60 120 l 1
 60 0 l 1
 40 0 l 1
EndSplineSet
EndChar

StartChar: braceright
Encoding: 125 125 95
Width: 110
GlyphClass: 2
Flags: W
HStem: -10 20<30 50> 100 20<30 50>
VStem: 30 30<-10 0 110 120> 50 30<30 40 70 80> 50 20<10 30 80 100> 60 30<40 50 60 70> 70 20<50 60>
LayerCount: 2
Fore
SplineSet
30 100 m 1xe0
 30 120 l 1
 60 120 l 1
 60 110 l 1
 70 110 l 1xe2
 70 80 l 1xc8
 80 80 l 1
 80 70 l 1xd0
 90 70 l 1
 90 40 l 1xc4
 80 40 l 1
 80 30 l 1xd0
 70 30 l 1xc8
 70 0 l 1
 60 0 l 1
 60 -10 l 1
 30 -10 l 1
 30 10 l 1xe2
 50 10 l 1xc8
 50 40 l 1xd0
 60 40 l 1
 60 50 l 1xc4
 70 50 l 1
 70 60 l 1xc2
 60 60 l 1
 60 70 l 1xc4
 50 70 l 1xd0
 50 100 l 1xc8
 30 100 l 1xe0
EndSplineSet
Validated: 1
EndChar

StartChar: asciitilde
Encoding: 126 126 96
Width: 110
GlyphClass: 2
Flags: W
HStem: 40 20<70 80> 50 20<50 60> 60 20<20 40>
VStem: 0 20<40 60> 80 20<60 80>
LayerCount: 2
Fore
SplineSet
0 40 m 1x98
 0 70 l 1
 10 70 l 1x58
 10 80 l 1
 50 80 l 1x38
 50 70 l 1
 70 70 l 1x58
 70 60 l 1
 80 60 l 1x98
 80 80 l 1
 100 80 l 1x38
 100 50 l 1
 90 50 l 1x58
 90 40 l 1
 60 40 l 1x98
 60 50 l 1
 40 50 l 1x58
 40 60 l 1
 20 60 l 1x38
 20 40 l 1
 0 40 l 1x98
EndSplineSet
Validated: 1
EndChar

StartChar: exclamdown
Encoding: 161 161 98
Width: 110
GlyphClass: 2
Flags: W
HStem: 0 21G<40 60>
VStem: 40 20<0 80>
LayerCount: 2
Fore
SplineSet
60 0 m 1
 40 0 l 1
 40 80 l 1
 60 80 l 1
 60 0 l 1
40 120 m 1
 40 100 l 1
 60 100 l 1
 60 120 l 1
 40 120 l 1
EndSplineSet
Validated: 9
EndChar

StartChar: brokenbar
Encoding: 166 166 99
Width: 110
VWidth: 0
GlyphClass: 2
Flags: W
HStem: 0 21G<40 60> 100 20G<40 60>
VStem: 40 20<0 50 70 120>
LayerCount: 2
Fore
SplineSet
40 50 m 257
 60 50 l 257
 60 0 l 257
 40 0 l 257
 40 50 l 257
40 120 m 257
 60 120 l 257
 60 70 l 257
 40 70 l 257
 40 120 l 257
EndSplineSet
EndChar

StartChar: degree
Encoding: 176 176 100
Width: 110
GlyphClass: 2
Flags: W
HStem: 60 20<30 50> 100 20<30 50>
VStem: 10 20<80 100> 50 20<80 100>
LayerCount: 2
Fore
SplineSet
30 80 m 1
 50 80 l 1
 50 100 l 1
 30 100 l 1
 30 80 l 1
10 70 m 1
 10 110 l 1
 20 110 l 1
 20 120 l 1
 60 120 l 1
 60 110 l 1
 70 110 l 1
 70 70 l 1
 60 70 l 1
 60 60 l 1
 20 60 l 1
 20 70 l 1
 10 70 l 1
EndSplineSet
Validated: 1
AlternateSubs2: "'ssty' Math Script Style lookup 4 subtable" degree.ssty degree.ssty2
AlternateSubs2: "'aalt' Access All Alternates lookup 1 subtable" degree.ssty degree.ssty2
EndChar

StartChar: twosuperior
Encoding: 178 178 101
Width: 110
GlyphClass: 2
Flags: W
HStem: 50 20<20 30 50 80> 80 10<50 60> 90 20<70 80> 100 20<20 60>
VStem: 30 20<70 80> 60 20<90 100>
LayerCount: 2
Fore
SplineSet
20 100 m 1xdc
 20 120 l 1
 70 120 l 1xdc
 70 110 l 1
 80 110 l 1
 80 90 l 1
 70 90 l 1xac
 70 80 l 1
 50 80 l 1
 50 70 l 1
 80 70 l 1
 80 50 l 1
 20 50 l 1
 20 70 l 1
 30 70 l 1
 30 80 l 1
 40 80 l 1xcc
 40 90 l 1xac
 60 90 l 1
 60 100 l 1
 20 100 l 1xdc
EndSplineSet
Validated: 1
AlternateSubs2: "'ssty' Math Script Style lookup 4 subtable" twosuperior.ssty twosuperior.ssty2
AlternateSubs2: "'aalt' Access All Alternates lookup 1 subtable" twosuperior.ssty twosuperior.ssty2
EndChar

StartChar: threesuperior
Encoding: 179 179 102
Width: 110
GlyphClass: 2
Flags: W
HStem: 50 20<20 60> 60 20<70 80> 80 10<30 60> 90 20<70 80> 100 20<20 60>
VStem: 60 20<70 80 90 100>
LayerCount: 2
Fore
SplineSet
20 100 m 5xac
 20 120 l 5
 70 120 l 5xac
 70 110 l 5
 80 110 l 5
 80 90 l 5
 70 90 l 5
 70 80 l 5
 80 80 l 5
 80 60 l 5
 70 60 l 5x54
 70 50 l 5
 20 50 l 5
 20 70 l 5
 60 70 l 5
 60 80 l 5
 30 80 l 5
 30 90 l 5
 60 90 l 5
 60 100 l 5
 20 100 l 5xac
EndSplineSet
Validated: 1
AlternateSubs2: "'ssty' Math Script Style lookup 4 subtable" threesuperior.ssty threesuperior.ssty2
AlternateSubs2: "'aalt' Access All Alternates lookup 1 subtable" threesuperior.ssty threesuperior.ssty2
EndChar

StartChar: onesuperior
Encoding: 185 185 103
Width: 110
GlyphClass: 2
Flags: W
HStem: 90 20<20 40> 100 20G<40 60>
VStem: 40 20<50 90 110 120>
LayerCount: 2
Fore
SplineSet
20 90 m 1xa0
 20 110 l 1
 40 110 l 1xa0
 40 120 l 1
 60 120 l 1x60
 60 50 l 1
 40 50 l 1
 40 90 l 1
 20 90 l 1xa0
EndSplineSet
AlternateSubs2: "'ssty' Math Script Style lookup 4 subtable" onesuperior.ssty onesuperior.ssty2
AlternateSubs2: "'aalt' Access All Alternates lookup 1 subtable" onesuperior.ssty onesuperior.ssty2
EndChar

StartChar: questiondown
Encoding: 191 191 104
Width: 110
GlyphClass: 2
Flags: W
HStem: 0 20<40 60> 10 20<70 80> 60 20<50 60> 100 20<40 60>
VStem: 20 20<20 40> 30 20<40 60> 40 20<60 80 100 120> 60 20<20 30>
LayerCount: 2
Fore
SplineSet
80 30 m 1x79
 80 10 l 1
 70 10 l 1x79
 70 0 l 1
 30 0 l 1xb5
 30 10 l 1x75
 20 10 l 1
 20 40 l 1x78
 30 40 l 1
 30 60 l 1x74
 40 60 l 1
 40 80 l 1
 60 80 l 1
 60 60 l 1x72
 50 60 l 1
 50 40 l 1x74
 40 40 l 1
 40 20 l 1
 60 20 l 1xb9
 60 30 l 1
 80 30 l 1x79
60 120 m 1x32
 60 100 l 1
 40 100 l 1
 40 120 l 1
 60 120 l 1x32
EndSplineSet
Validated: 1
EndChar

StartChar: Aacute
Encoding: 193 193 105
Width: 110
GlyphClass: 2
Flags: W
HStem: 0 30<10 20 90 100> 100 10<30 40> 110 10<60 80>
VStem: 10 20<0 20> 20 20<40 50> 30 20<60 70> 40 30<80 100> 60 20<60 70> 70 20<40 50> 80 20<0 20>
LayerCount: 2
Fore
SplineSet
40 50 m 1x88
 40 40 l 1
 70 40 l 1
 70 50 l 1x8880
 60 50 l 1
 60 70 l 1
 50 70 l 1
 50 50 l 1x85
 40 50 l 1x88
100 30 m 1xc040
 100 0 l 1
 80 0 l 1
 80 20 l 1
 30 20 l 1
 30 0 l 1
 10 0 l 1
 10 30 l 1xd040
 20 30 l 1
 20 60 l 1xc8
 30 60 l 1
 30 80 l 1xc4
 40 80 l 1
 40 100 l 1xc2
 30 100 l 1
 30 110 l 1xc4
 50 110 l 1
 50 120 l 1
 80 120 l 1
 80 110 l 1xa440
 60 110 l 1xa1
 60 100 l 1xc1
 70 100 l 1
 70 80 l 1
 80 80 l 1xc240
 80 60 l 1xc1
 90 60 l 1
 90 30 l 1xc080
 100 30 l 1xc040
EndSplineSet
Validated: 1
EndChar

StartChar: Acircumflex
Encoding: 194 194 106
Width: 110
GlyphClass: 2
Flags: W
HStem: 0 30<10 20 90 100> 70 20<50 60> 100 10<20 30 70 80> 110 10<40 60>
VStem: 10 20<0 20> 20 20<40 50 100 110> 30 20<60 70> 60 20<60 70 100 110> 70 20<40 50> 80 20<0 20>
LayerCount: 2
Fore
SplineSet
10 0 m 1xc840
 10 30 l 1xc840
 20 30 l 1
 20 60 l 1xc4
 30 60 l 1
 30 80 l 1xc2
 40 80 l 1
 40 90 l 1
 70 90 l 1
 70 80 l 1xc480
 80 80 l 1xc040
 80 60 l 1xc1
 90 60 l 1
 90 30 l 1xc080
 100 30 l 1
 100 0 l 1
 80 0 l 1
 80 20 l 1
 30 20 l 1
 30 0 l 1
 10 0 l 1xc840
70 40 m 1xc480
 70 50 l 1xc480
 60 50 l 1
 60 70 l 1
 50 70 l 1
 50 50 l 1xc3
 40 50 l 1
 40 40 l 1
 70 40 l 1xc480
60 110 m 1xd1
 40 110 l 1xd5
 40 100 l 1
 20 100 l 1
 20 110 l 1xe5
 30 110 l 1xe2
 30 120 l 1
 70 120 l 1xd280
 70 110 l 1xe280
 80 110 l 1
 80 100 l 1
 60 100 l 1xe1
 60 110 l 1xd1
EndSplineSet
EndChar

StartChar: Aring
Encoding: 197 197 107
Width: 110
GlyphClass: 2
Flags: W
HStem: 0 30<10 20 90 100> 90 20<30 40 70 80> 100 20<50 60>
VStem: 10 20<0 20> 20 20<40 50> 30 20<60 70 90 100> 40 30<80 90 110 120> 60 20<60 70 90 100> 70 20<40 50> 80 20<0 20>
LayerCount: 2
Fore
SplineSet
50 90 m 1xc5
 60 90 l 1xc5
 60 100 l 1
 50 100 l 1xa5
 50 90 l 1xc5
40 40 m 1x88
 70 40 l 1
 70 50 l 1x8880
 60 50 l 1
 60 70 l 1
 50 70 l 1
 50 50 l 1x85
 40 50 l 1
 40 40 l 1x88
30 0 m 1xd040
 10 0 l 1
 10 30 l 1xd040
 20 30 l 1
 20 60 l 1xc8
 30 60 l 1
 30 80 l 1xc4
 40 80 l 1
 40 90 l 1xc2
 30 90 l 1
 30 110 l 1xc4
 40 110 l 1xc2
 40 120 l 1
 70 120 l 1xa2
 70 110 l 1
 80 110 l 1xc240
 80 90 l 1xc1
 70 90 l 1
 70 80 l 1
 80 80 l 1xc240
 80 60 l 1xc1
 90 60 l 1
 90 30 l 1xc080
 100 30 l 1
 100 0 l 1
 80 0 l 1
 80 20 l 1
 30 20 l 1
 30 0 l 1xd040
EndSplineSet
Validated: 1
EndChar

StartChar: Eacute
Encoding: 201 201 108
Width: 110
GlyphClass: 2
Flags: W
HStem: 0 20<30 90> 40 20<30 80> 80 30<30 50> 80 20<60 90> 110 10<60 80>
VStem: 10 20<20 40 60 80>
LayerCount: 2
Fore
SplineSet
10 0 m 1xe4
 10 100 l 1
 30 100 l 1xd4
 30 110 l 1
 50 110 l 1xe4
 50 120 l 1
 80 120 l 1
 80 110 l 1
 60 110 l 1
 60 100 l 1
 90 100 l 1
 90 80 l 1xdc
 30 80 l 1
 30 60 l 1
 80 60 l 1
 80 40 l 1
 30 40 l 1
 30 20 l 1
 90 20 l 1
 90 0 l 1
 10 0 l 1xe4
EndSplineSet
EndChar

StartChar: Eth
Encoding: 208 208 109
Width: 110
GlyphClass: 2
Flags: W
HStem: 0 20<30 60> 50 20<0 10 30 60> 100 20<30 60>
VStem: 10 20<20 50 70 100> 60 30<20 30 90 100> 70 20<30 90>
CounterMasks: 1 e0
LayerCount: 2
Fore
SplineSet
60 50 m 1xf8
 30 50 l 1
 30 20 l 1
 60 20 l 1
 60 30 l 1xf8
 70 30 l 1
 70 90 l 1xf4
 60 90 l 1
 60 100 l 1
 30 100 l 1
 30 70 l 1
 60 70 l 1
 60 50 l 1xf8
10 50 m 1
 0 50 l 1
 0 70 l 1
 10 70 l 1
 10 120 l 1
 70 120 l 1
 70 110 l 1xf4
 80 110 l 1
 80 100 l 1
 90 100 l 1
 90 20 l 1xf8
 80 20 l 1
 80 10 l 1
 70 10 l 1
 70 0 l 1xf4
 10 0 l 1
 10 50 l 1
EndSplineSet
Validated: 1
EndChar

StartChar: Odieresis
Encoding: 214 214 110
Width: 110
GlyphClass: 2
Flags: W
HStem: 0 30<30 40 70 80> 0 20<40 70> 60 30<30 40 70 80> 70 20<40 70> 100 20<20 40 60 80>
VStem: 10 20<30 60> 20 20<100 120> 60 20<100 120> 70 30<20 30 60 70> 80 20<30 60>
LayerCount: 2
Fore
SplineSet
20 100 m 1x0a
 20 120 l 1
 40 120 l 1
 40 100 l 1
 20 100 l 1x0a
60 100 m 1x09
 60 120 l 1
 80 120 l 1
 80 100 l 1
 60 100 l 1x09
10 20 m 1x4c
 10 70 l 1x5c
 20 70 l 1
 20 80 l 1x5a
 30 80 l 1
 30 90 l 1
 80 90 l 1
 80 80 l 1x2c40
 90 80 l 1
 90 70 l 1
 100 70 l 1
 100 20 l 1
 90 20 l 1x5880
 90 10 l 1
 80 10 l 1
 80 0 l 1
 30 0 l 1
 30 10 l 1x8c40
 20 10 l 1
 20 20 l 1x4a
 10 20 l 1x4c
40 20 m 1x4a
 70 20 l 1x4a80
 70 30 l 1x8a80
 80 30 l 1
 80 60 l 1xa840
 70 60 l 1xa880
 70 70 l 1
 40 70 l 1x1a80
 40 60 l 1x2a80
 30 60 l 1
 30 30 l 1xac
 40 30 l 1xaa
 40 20 l 1x4a
EndSplineSet
EndChar

StartChar: multiply
Encoding: 215 215 111
Width: 110
GlyphClass: 2
Flags: W
HStem: 10 30<10 20 80 90> 20 30<20 30 70 80> 20 10<0 10 90 100> 70 30<20 30 70 80> 80 30<10 20 80 90> 90 10<0 10 90 100>
VStem: 0 30<20 30 90 100> 10 30<30 40 80 90> 10 10<10 20 100 110> 60 30<30 40 80 90> 70 30<20 30 90 100> 80 10<10 20 100 110>
LayerCount: 2
Fore
SplineSet
10 90 m 1x05
 0 90 l 1
 0 100 l 1x06
 10 100 l 1x0480
 10 110 l 1
 20 110 l 1x0880
 20 100 l 1x1080
 30 100 l 1x12
 30 90 l 1x06
 40 90 l 1x05
 40 80 l 1
 60 80 l 1x0940
 60 90 l 1x0540
 70 90 l 1x0420
 70 100 l 1x1020
 80 100 l 1x1010
 80 110 l 1
 90 110 l 1x0810
 90 100 l 1x0410
 100 100 l 1
 100 90 l 1x0420
 90 90 l 1x0440
 90 80 l 1x0840
 80 80 l 1x0810
 80 70 l 1x1010
 70 70 l 1
 70 50 l 1x5020
 80 50 l 1x5010
 80 40 l 1x8010
 90 40 l 1x8040
 90 30 l 1x2040
 100 30 l 1
 100 20 l 1x2020
 90 20 l 1x2010
 90 10 l 1
 80 10 l 1x8010
 80 20 l 1x4010
 70 20 l 1x4020
 70 30 l 1x2020
 60 30 l 1x2040
 60 40 l 1
 40 40 l 1x8140
 40 30 l 1x2140
 30 30 l 1x22
 30 20 l 1x42
 20 20 l 1x4080
 20 10 l 1
 10 10 l 1x8080
 10 20 l 1x2080
 0 20 l 1
 0 30 l 1x22
 10 30 l 1x21
 10 40 l 1x81
 20 40 l 1x8080
 20 50 l 1x4080
 30 50 l 1
 30 70 l 1x52
 20 70 l 1x5080
 20 80 l 1x0880
 10 80 l 1x09
 10 90 l 1x05
EndSplineSet
Validated: 1
AlternateSubs2: "'ssty' Math Script Style lookup 4 subtable" multiply.ssty multiply.ssty2
AlternateSubs2: "'aalt' Access All Alternates lookup 1 subtable" multiply.ssty multiply.ssty2
EndChar

StartChar: Uacute
Encoding: 218 218 112
Width: 110
GlyphClass: 2
Flags: W
HStem: 0 20<30 70> 100 10<30 50> 110 10<60 80>
VStem: 10 20<20 100> 70 20<20 100>
LayerCount: 2
Fore
SplineSet
30 100 m 1xd8
 30 110 l 1
 50 110 l 1xd8
 50 120 l 1
 80 120 l 1
 80 110 l 1
 60 110 l 1xb8
 60 100 l 1
 30 100 l 1xd8
20 10 m 1
 10 10 l 1
 10 100 l 1
 30 100 l 1
 30 20 l 1
 70 20 l 1
 70 100 l 1
 90 100 l 1
 90 10 l 1
 80 10 l 1
 80 0 l 1
 20 0 l 1
 20 10 l 1
EndSplineSet
EndChar

StartChar: Udieresis
Encoding: 220 220 113
Width: 110
GlyphClass: 2
Flags: W
HStem: 0 20<30 70> 70 20G<10 30 70 90> 100 20<20 40 60 80>
VStem: 10 20<20 90> 20 20<100 120> 60 20<100 120> 70 20<20 90>
LayerCount: 2
Fore
SplineSet
20 100 m 1xe8
 20 120 l 1
 40 120 l 1
 40 100 l 1
 20 100 l 1xe8
60 100 m 1xe4
 60 120 l 1
 80 120 l 1
 80 100 l 1
 60 100 l 1xe4
20 10 m 1xec
 10 10 l 1
 10 90 l 1
 30 90 l 1
 30 20 l 1
 70 20 l 1
 70 90 l 1
 90 90 l 1
 90 10 l 1xf2
 80 10 l 1
 80 0 l 1
 20 0 l 1
 20 10 l 1xec
EndSplineSet
EndChar

StartChar: germandbls
Encoding: 223 223 114
Width: 110
GlyphClass: 3
Flags: W
HStem: 0 20<40 70> 50 20<40 50> 100 20<30 60>
VStem: 10 20<0 100> 60 20<80 100> 70 20<20 40>
CounterMasks: 1 e0
LayerCount: 2
Fore
SplineSet
10 0 m 1xf8
 10 110 l 1
 20 110 l 1
 20 120 l 1
 70 120 l 1
 70 110 l 1xf4
 80 110 l 1
 80 70 l 1xf8
 70 70 l 1
 70 60 l 1xf4
 80 60 l 1
 80 50 l 1xf8
 90 50 l 1
 90 10 l 1xf4
 80 10 l 1
 80 0 l 1xf8
 40 0 l 1
 40 20 l 1
 70 20 l 1
 70 40 l 1xf4
 60 40 l 1
 60 50 l 1
 40 50 l 1
 40 70 l 1
 50 70 l 1
 50 80 l 1
 60 80 l 1
 60 100 l 1
 30 100 l 1
 30 0 l 1
 10 0 l 1xf8
EndSplineSet
Validated: 1
EndChar

StartChar: agrave
Encoding: 224 224 115
Width: 110
GlyphClass: 2
Flags: W
HStem: 0 20<30 70> 40 20<30 70> 70 20<20 70> 100 10<50 70> 110 10<20 40>
VStem: 10 20<20 40> 70 20<20 40 60 70>
LayerCount: 2
Fore
SplineSet
30 20 m 1xe6
 70 20 l 1
 70 40 l 1
 30 40 l 1
 30 20 l 1xe6
70 110 m 5xf6
 70 100 l 5
 40 100 l 5xf6
 40 110 l 5
 20 110 l 5
 20 120 l 5
 50 120 l 5xee
 50 110 l 5
 70 110 l 5xf6
80 90 m 1
 80 80 l 1
 90 80 l 1
 90 0 l 1
 20 0 l 1
 20 10 l 1
 10 10 l 1
 10 50 l 1
 20 50 l 1
 20 60 l 1
 70 60 l 1
 70 70 l 1
 20 70 l 1
 20 90 l 1
 80 90 l 1
EndSplineSet
Validated: 1
EndChar

StartChar: aacute
Encoding: 225 225 116
Width: 110
GlyphClass: 2
Flags: W
HStem: 0 20<30 70> 40 20<30 70> 70 20<20 70> 100 10<30 50> 110 10<60 80>
VStem: 10 20<20 40> 70 20<20 40 60 70>
LayerCount: 2
Fore
SplineSet
30 20 m 1xe6
 70 20 l 1
 70 40 l 1
 30 40 l 1
 30 20 l 1xe6
80 90 m 1
 80 80 l 1
 90 80 l 1
 90 0 l 1
 20 0 l 1
 20 10 l 1
 10 10 l 1
 10 50 l 1
 20 50 l 1
 20 60 l 1
 70 60 l 1
 70 70 l 1
 20 70 l 1
 20 90 l 1
 80 90 l 1
60 100 m 1xf6
 30 100 l 1
 30 110 l 1
 50 110 l 1xf6
 50 120 l 1
 80 120 l 1
 80 110 l 1
 60 110 l 1xee
 60 100 l 1xf6
EndSplineSet
Validated: 1
EndChar

StartChar: acircumflex
Encoding: 226 226 117
Width: 110
GlyphClass: 2
Flags: W
HStem: 0 20<30 70> 40 20<30 70> 70 20<20 70> 100 10<20 30 70 80> 110 10<40 60>
VStem: 10 20<20 40> 20 20<100 110> 60 20<100 110> 70 20<20 40 60 70>
LayerCount: 2
Fore
SplineSet
30 20 m 1xe480
 70 20 l 1
 70 40 l 1
 30 40 l 1
 30 20 l 1xe480
80 90 m 1xe3
 80 80 l 1xe3
 90 80 l 1
 90 0 l 1
 20 0 l 1
 20 10 l 1xe280
 10 10 l 1
 10 50 l 1xe4
 20 50 l 1
 20 60 l 1
 70 60 l 1
 70 70 l 1xe280
 20 70 l 1
 20 90 l 1
 80 90 l 1xe3
80 100 m 1xf1
 60 100 l 1xf1
 60 110 l 1
 40 110 l 1xeb
 40 100 l 1
 20 100 l 1
 20 110 l 1xf3
 30 110 l 1xf4
 30 120 l 1
 70 120 l 1xec80
 70 110 l 1xf480
 80 110 l 1
 80 100 l 1xf1
EndSplineSet
Validated: 1
EndChar

StartChar: atilde
Encoding: 227 227 118
Width: 110
GlyphClass: 2
Flags: W
HStem: 0 20<30 70> 40 20<30 70> 70 20<20 70> 100 10<20 30 60 70> 110 10<40 50 80 90>
VStem: 10 20<20 40> 20 20<100 110> 70 20<20 40 60 70 110 120>
LayerCount: 2
Fore
SplineSet
30 20 m 1xe5
 70 20 l 1
 70 40 l 1
 30 40 l 1
 30 20 l 1xe5
80 90 m 1
 80 80 l 1
 90 80 l 1
 90 0 l 1
 20 0 l 1
 20 10 l 1xe3
 10 10 l 1
 10 50 l 1xe5
 20 50 l 1
 20 60 l 1
 70 60 l 1
 70 70 l 1
 20 70 l 1
 20 90 l 1xe3
 80 90 l 1
80 100 m 1xf5
 50 100 l 1xf5
 50 110 l 1
 40 110 l 1xeb
 40 100 l 1
 20 100 l 1
 20 110 l 1xf3
 30 110 l 1xf5
 30 120 l 1
 60 120 l 1xed
 60 110 l 1
 70 110 l 1xf5
 70 120 l 1
 90 120 l 1
 90 110 l 1
 80 110 l 1xed
 80 100 l 1xf5
EndSplineSet
Validated: 1
EndChar

StartChar: adieresis
Encoding: 228 228 119
Width: 110
GlyphClass: 2
Flags: W
HStem: 0 20<30 70> 40 20<30 70> 70 20<20 70> 100 20<20 40 60 80>
VStem: 10 20<20 40> 20 20<100 120> 60 20<100 120> 70 20<20 40 60 70>
LayerCount: 2
Fore
SplineSet
20 100 m 1xf4
 20 120 l 1
 40 120 l 1
 40 100 l 1
 20 100 l 1xf4
60 100 m 1xf2
 60 120 l 1
 80 120 l 1
 80 100 l 1
 60 100 l 1xf2
80 80 m 1
 90 80 l 1
 90 0 l 1
 20 0 l 1
 20 10 l 1xf5
 10 10 l 1
 10 50 l 1xf8
 20 50 l 1
 20 60 l 1
 70 60 l 1
 70 70 l 1
 20 70 l 1
 20 90 l 1xf5
 80 90 l 1
 80 80 l 1
70 20 m 1
 70 40 l 1
 30 40 l 1
 30 20 l 1xf9
 70 20 l 1
EndSplineSet
EndChar

StartChar: ccedilla
Encoding: 231 231 120
Width: 110
GlyphClass: 2
Flags: W
HStem: -10 10<20 40> 10 20<30 40 60 70> 20 20<80 90> 60 20<80 90> 70 20<30 70>
VStem: 10 20<30 70> 40 20<0 10> 70 20<30 40 60 70>
CounterMasks: 1 07
LayerCount: 2
Fore
SplineSet
10 20 m 1xa7
 10 80 l 1
 20 80 l 1xb7
 20 90 l 1
 80 90 l 1x8f
 80 80 l 1
 90 80 l 1
 90 60 l 1
 70 60 l 1x97
 70 70 l 1
 30 70 l 1
 30 30 l 1
 70 30 l 1xcf
 70 40 l 1
 90 40 l 1
 90 20 l 1
 80 20 l 1xa7
 80 10 l 1
 60 10 l 1
 60 0 l 1
 50 0 l 1
 50 -10 l 1
 20 -10 l 1
 20 0 l 1
 40 0 l 1
 40 10 l 1
 20 10 l 1xc7
 20 20 l 1
 10 20 l 1xa7
EndSplineSet
Validated: 1
EndChar

StartChar: egrave
Encoding: 232 232 121
Width: 110
GlyphClass: 2
Flags: W
HStem: 0 20<30 70> 10 20<80 90> 40 20<30 70> 70 20<30 70> 100 10<50 70> 110 10<20 40>
VStem: 10 20<20 40 60 70> 70 20<20 30 60 70>
LayerCount: 2
Fore
SplineSet
30 70 m 1x33
 30 60 l 1
 70 60 l 1
 70 70 l 1
 30 70 l 1x33
70 110 m 1x3b
 70 100 l 1
 40 100 l 1x3b
 40 110 l 1
 20 110 l 1
 20 120 l 1
 50 120 l 1x37
 50 110 l 1
 70 110 l 1x3b
20 10 m 1x73
 10 10 l 1x73
 10 80 l 1
 20 80 l 1
 20 90 l 1
 80 90 l 1
 80 80 l 1
 90 80 l 1
 90 40 l 1
 30 40 l 1
 30 20 l 1
 70 20 l 1xb3
 70 30 l 1
 90 30 l 1
 90 10 l 1
 80 10 l 1x73
 80 0 l 1
 20 0 l 1xb3
 20 10 l 1x73
EndSplineSet
Validated: 1
EndChar

StartChar: eacute
Encoding: 233 233 122
Width: 110
GlyphClass: 2
Flags: W
HStem: 0 20<30 70> 10 20<80 90> 40 20<30 70> 70 20<30 70> 100 10<30 50> 110 10<60 80>
VStem: 10 20<20 40 60 70> 70 20<20 30 60 70>
LayerCount: 2
Fore
SplineSet
30 70 m 1x33
 30 60 l 1
 70 60 l 1
 70 70 l 1
 30 70 l 1x33
20 10 m 1x73
 10 10 l 1x73
 10 80 l 1
 20 80 l 1
 20 90 l 1
 80 90 l 1
 80 80 l 1
 90 80 l 1
 90 40 l 1
 30 40 l 1
 30 20 l 1
 70 20 l 1xb3
 70 30 l 1
 90 30 l 1
 90 10 l 1
 80 10 l 1x73
 80 0 l 1
 20 0 l 1xb3
 20 10 l 1x73
60 100 m 1x3b
 30 100 l 1
 30 110 l 1
 50 110 l 1x3b
 50 120 l 1
 80 120 l 1
 80 110 l 1
 60 110 l 1x37
 60 100 l 1x3b
EndSplineSet
Validated: 1
EndChar

StartChar: ecircumflex
Encoding: 234 234 123
Width: 110
GlyphClass: 2
Flags: W
HStem: 0 20<30 70> 10 20<80 90> 40 20<30 70> 70 20<30 70> 100 10<20 30 70 80> 110 10<40 60>
VStem: 10 20<20 40 60 70> 20 20<100 110> 60 20<100 110> 70 20<20 30 60 70>
LayerCount: 2
Fore
SplineSet
30 70 m 1x3240
 30 60 l 1
 70 60 l 1
 70 70 l 1
 30 70 l 1x3240
20 10 m 1x7180
 10 10 l 1
 10 80 l 1x72
 20 80 l 1
 20 90 l 1
 80 90 l 1
 80 80 l 1x7180
 90 80 l 1
 90 40 l 1
 30 40 l 1
 30 20 l 1
 70 20 l 1xb240
 70 30 l 1
 90 30 l 1
 90 10 l 1x7240
 80 10 l 1x7080
 80 0 l 1
 20 0 l 1xb180
 20 10 l 1x7180
80 100 m 1x3880
 60 100 l 1x3880
 60 110 l 1
 40 110 l 1x3580
 40 100 l 1
 20 100 l 1
 20 110 l 1x3980
 30 110 l 1x3a
 30 120 l 1
 70 120 l 1x3640
 70 110 l 1x3a40
 80 110 l 1
 80 100 l 1x3880
EndSplineSet
Validated: 1
EndChar

StartChar: igrave
Encoding: 236 236 124
Width: 110
GlyphClass: 2
Flags: W
HStem: 0 20<20 40 60 80> 70 20<20 40> 100 10<50 70> 110 10<20 40>
VStem: 40 20<20 70>
LayerCount: 2
Fore
SplineSet
20 70 m 1xc8
 20 90 l 1
 60 90 l 1
 60 20 l 1
 80 20 l 1
 80 0 l 1
 20 0 l 1
 20 20 l 1
 40 20 l 1
 40 70 l 1
 20 70 l 1xc8
70 100 m 1xe8
 40 100 l 1xe8
 40 110 l 1
 20 110 l 1
 20 120 l 1
 50 120 l 1xd8
 50 110 l 1
 70 110 l 1
 70 100 l 1xe8
EndSplineSet
Validated: 1
EndChar

StartChar: iacute
Encoding: 237 237 125
Width: 110
GlyphClass: 2
Flags: W
HStem: 0 20<20 40 60 80> 70 20<20 40> 100 10<30 50> 110 10<60 80>
VStem: 40 20<20 70>
LayerCount: 2
Fore
SplineSet
20 70 m 1xc8
 20 90 l 1
 60 90 l 1
 60 20 l 1
 80 20 l 1
 80 0 l 1
 20 0 l 1
 20 20 l 1
 40 20 l 1
 40 70 l 1
 20 70 l 1xc8
30 100 m 1xe8
 30 110 l 1
 50 110 l 1xe8
 50 120 l 1
 80 120 l 1
 80 110 l 1
 60 110 l 1xd8
 60 100 l 1
 30 100 l 1xe8
EndSplineSet
Validated: 1
EndChar

StartChar: ntilde
Encoding: 241 241 126
Width: 110
GlyphClass: 2
Flags: W
HStem: 0 21G<10 30 70 90> 60 20<30 40> 70 20<40 70> 100 10<20 30 60 70> 110 10<40 50 80 90>
VStem: 10 20<0 60 80 90> 20 20<100 110> 70 20<0 70 110 120>
LayerCount: 2
Fore
SplineSet
90 0 m 1xc3
 70 0 l 1
 70 70 l 1
 40 70 l 1xa3
 40 60 l 1xc3
 30 60 l 1xc5
 30 0 l 1
 10 0 l 1
 10 90 l 1
 30 90 l 1xa5
 30 80 l 1xc5
 40 80 l 1xc3
 40 90 l 1
 80 90 l 1xa3
 80 80 l 1
 90 80 l 1
 90 0 l 1xc3
50 100 m 1x95
 50 110 l 1
 40 110 l 1x8b
 40 100 l 1
 20 100 l 1
 20 110 l 1x93
 30 110 l 1x95
 30 120 l 1
 60 120 l 1x8d
 60 110 l 1
 70 110 l 1x95
 70 120 l 1
 90 120 l 1
 90 110 l 1
 80 110 l 1x8d
 80 100 l 1
 50 100 l 1x95
EndSplineSet
Validated: 1
EndChar

StartChar: ograve
Encoding: 242 242 127
Width: 110
GlyphClass: 2
Flags: W
HStem: 0 20<30 70> 70 20<30 70> 100 10<50 70> 110 10<20 40>
VStem: 10 20<20 70> 70 20<20 70>
LayerCount: 2
Fore
SplineSet
30 70 m 1xcc
 30 20 l 1
 70 20 l 1
 70 70 l 1
 30 70 l 1xcc
70 110 m 1xec
 70 100 l 1
 40 100 l 1xec
 40 110 l 1
 20 110 l 1
 20 120 l 1
 50 120 l 1xdc
 50 110 l 1
 70 110 l 1xec
20 10 m 1
 10 10 l 1
 10 80 l 1
 20 80 l 1
 20 90 l 1
 80 90 l 1
 80 80 l 1
 90 80 l 1
 90 10 l 1
 80 10 l 1
 80 0 l 1
 20 0 l 1
 20 10 l 1
EndSplineSet
Validated: 1
EndChar

StartChar: oacute
Encoding: 243 243 128
Width: 110
GlyphClass: 2
Flags: W
HStem: 0 20<30 70> 70 20<30 70> 100 10<30 50> 110 10<60 80>
VStem: 10 20<20 70> 70 20<20 70>
LayerCount: 2
Fore
SplineSet
30 70 m 1xcc
 30 20 l 1
 70 20 l 1
 70 70 l 1
 30 70 l 1xcc
20 10 m 1
 10 10 l 1
 10 80 l 1
 20 80 l 1
 20 90 l 1
 80 90 l 1
 80 80 l 1
 90 80 l 1
 90 10 l 1
 80 10 l 1
 80 0 l 1
 20 0 l 1
 20 10 l 1
60 100 m 1xec
 30 100 l 1
 30 110 l 1
 50 110 l 1xec
 50 120 l 1
 80 120 l 1
 80 110 l 1
 60 110 l 1xdc
 60 100 l 1xec
EndSplineSet
Validated: 1
EndChar

StartChar: ocircumflex
Encoding: 244 244 129
Width: 110
GlyphClass: 2
Flags: W
HStem: 0 20<30 70> 70 20<30 70> 100 10<20 30 70 80> 110 10<40 60>
VStem: 10 20<20 70> 20 20<100 110> 60 20<100 110> 70 20<20 70>
LayerCount: 2
Fore
SplineSet
30 70 m 1xc9
 30 20 l 1
 70 20 l 1
 70 70 l 1
 30 70 l 1xc9
20 10 m 1xc6
 10 10 l 1
 10 80 l 1xc8
 20 80 l 1
 20 90 l 1
 80 90 l 1
 80 80 l 1xc6
 90 80 l 1
 90 10 l 1xc1
 80 10 l 1
 80 0 l 1
 20 0 l 1
 20 10 l 1xc6
80 100 m 1xe2
 60 100 l 1xe2
 60 110 l 1
 40 110 l 1xd6
 40 100 l 1
 20 100 l 1
 20 110 l 1xe6
 30 110 l 1xe8
 30 120 l 1
 70 120 l 1xd9
 70 110 l 1xe9
 80 110 l 1
 80 100 l 1xe2
EndSplineSet
Validated: 1
EndChar

StartChar: odieresis
Encoding: 246 246 130
Width: 110
GlyphClass: 2
Flags: W
HStem: 0 20<30 70> 70 20<30 70> 100 20<20 40 60 80>
VStem: 10 20<20 70> 20 20<100 120> 60 20<100 120> 70 20<20 70>
LayerCount: 2
Fore
SplineSet
30 70 m 1xf2
 30 20 l 1
 70 20 l 1
 70 70 l 1
 30 70 l 1xf2
40 100 m 1xe8
 20 100 l 1
 20 120 l 1
 40 120 l 1
 40 100 l 1xe8
20 10 m 1
 10 10 l 1
 10 80 l 1xf0
 20 80 l 1
 20 90 l 1
 80 90 l 1
 80 80 l 1xec
 90 80 l 1
 90 10 l 1xe2
 80 10 l 1
 80 0 l 1xe4
 20 0 l 1
 20 10 l 1
80 100 m 1xe4
 60 100 l 1
 60 120 l 1
 80 120 l 1
 80 100 l 1xe4
EndSplineSet
Validated: 1
EndChar

StartChar: divide
Encoding: 247 247 131
Width: 110
GlyphClass: 2
Flags: W
HStem: 0 30<40 60> 50 20<0 100> 90 30<40 60>
VStem: 40 20<0 30 90 120>
CounterMasks: 1 e0
LayerCount: 2
Fore
SplineSet
0 50 m 1
 0 70 l 1
 100 70 l 1
 100 50 l 1
 0 50 l 1
40 0 m 1
 40 30 l 1
 60 30 l 1
 60 0 l 1
 40 0 l 1
40 90 m 1
 40 120 l 1
 60 120 l 1
 60 90 l 1
 40 90 l 1
EndSplineSet
Validated: 1
AlternateSubs2: "'ssty' Math Script Style lookup 4 subtable" divide.ssty divide.ssty2
AlternateSubs2: "'aalt' Access All Alternates lookup 1 subtable" divide.ssty divide.ssty2
EndChar

StartChar: uacute
Encoding: 250 250 132
Width: 110
GlyphClass: 2
Flags: W
HStem: 0 20<30 60> 10 20<60 70> 70 20G<10 30 70 90> 100 10<30 50> 110 10<60 80>
VStem: 10 20<20 90> 70 20<0 10 30 90>
LayerCount: 2
Fore
SplineSet
10 90 m 1x66
 30 90 l 1
 30 20 l 1
 60 20 l 1xa6
 60 30 l 1
 70 30 l 1x66
 70 90 l 1
 90 90 l 1
 90 0 l 1
 70 0 l 1xa6
 70 10 l 1
 60 10 l 1x66
 60 0 l 1
 20 0 l 1xa6
 20 10 l 1
 10 10 l 1
 10 90 l 1x66
30 100 m 1x36
 30 110 l 1
 50 110 l 1x36
 50 120 l 1
 80 120 l 1
 80 110 l 1
 60 110 l 1x2e
 60 100 l 1
 30 100 l 1x36
EndSplineSet
Validated: 1
EndChar

StartChar: udieresis
Encoding: 252 252 133
Width: 110
GlyphClass: 2
Flags: W
HStem: 0 20<30 60> 10 20<60 70> 70 20G<10 30 70 90> 100 20<20 40 60 80>
VStem: 10 20<20 90> 20 20<100 120> 60 20<100 120> 70 20<0 10 30 90>
LayerCount: 2
Fore
SplineSet
10 90 m 1x78
 30 90 l 1
 30 20 l 1
 60 20 l 1xba
 60 30 l 1x7a
 70 30 l 1x71
 70 90 l 1
 90 90 l 1
 90 0 l 1
 70 0 l 1xb1
 70 10 l 1x71
 60 10 l 1x72
 60 0 l 1
 20 0 l 1xb6
 20 10 l 1x76
 10 10 l 1
 10 90 l 1x78
20 100 m 1x34
 20 120 l 1
 40 120 l 1
 40 100 l 1
 20 100 l 1x34
60 100 m 1x32
 60 120 l 1
 80 120 l 1
 80 100 l 1
 60 100 l 1x32
EndSplineSet
Validated: 1
EndChar

StartChar: yacute
Encoding: 253 253 134
Width: 110
GlyphClass: 2
Flags: W
HStem: -10 20<10 30> 70 20<10 20 80 90> 100 10<30 50> 110 10<60 80>
VStem: 10 20<70 90> 20 20<50 70> 30 30<10 20 100 110> 40 20<20 30> 60 20<50 70> 70 20<70 90>
LayerCount: 2
Fore
SplineSet
10 70 m 1xc8
 10 90 l 1
 30 90 l 1
 30 70 l 1xc8
 40 70 l 1
 40 50 l 1
 60 50 l 1
 60 70 l 1xc480
 70 70 l 1
 70 90 l 1
 90 90 l 1
 90 70 l 1xc040
 80 70 l 1
 80 50 l 1xc080
 70 50 l 1
 70 30 l 1
 60 30 l 1xc140
 60 10 l 1xc2
 50 10 l 1
 50 0 l 1
 40 0 l 1
 40 -10 l 1
 10 -10 l 1
 10 10 l 1xc9
 30 10 l 1
 30 20 l 1xc2
 40 20 l 1
 40 30 l 1xc1
 30 30 l 1
 30 50 l 1xc2
 20 50 l 1
 20 70 l 1xc4
 10 70 l 1xc8
30 100 m 1xe2
 30 110 l 1
 50 110 l 1xe2
 50 120 l 1
 80 120 l 1
 80 110 l 1xd080
 60 110 l 1xd2
 60 100 l 1
 30 100 l 1xe2
EndSplineSet
Validated: 1
EndChar

StartChar: abreve
Encoding: 259 259 135
Width: 110
GlyphClass: 2
Flags: W
HStem: 0 20<30 70> 40 20<30 70> 70 20<20 70> 100 10<40 70> 110 10<30 40 70 80>
VStem: 10 20<20 40> 30 10<110 120> 70 20<20 40 60 70> 70 10<110 120>
LayerCount: 2
Fore
SplineSet
70 120 m 1xea80
 80 120 l 1
 80 110 l 1xea80
 70 110 l 1
 70 100 l 1
 40 100 l 1
 40 110 l 1xf280
 30 110 l 1
 30 120 l 1
 40 120 l 1xea80
 40 110 l 1
 70 110 l 1xf280
 70 120 l 1xea80
80 80 m 1
 90 80 l 1
 90 0 l 1
 20 0 l 1
 20 10 l 1
 10 10 l 1
 10 50 l 1
 20 50 l 1
 20 60 l 1
 70 60 l 1
 70 70 l 1xe5
 20 70 l 1
 20 90 l 1
 80 90 l 1
 80 80 l 1
70 20 m 1
 70 40 l 1
 30 40 l 1
 30 20 l 1
 70 20 l 1
EndSplineSet
EndChar

StartChar: Aogonek
Encoding: 260 260 136
Width: 110
GlyphClass: 2
Flags: W
HStem: -10 10<90 100> 0 21G<0 20> 30 20<30 60> 100 20G<30 60>
VStem: 0 20<0 30> 10 20<50 70> 20 20<80 90> 30 30<100 120> 50 20<80 90> 60 20<50 70> 70 20<0 30> 80 20<-10 0>
LayerCount: 2
Fore
SplineSet
60 50 m 1x3440
 60 70 l 1x3440
 50 70 l 1
 50 90 l 1
 40 90 l 1
 40 70 l 1x3280
 30 70 l 1
 30 50 l 1
 60 50 l 1x3440
0 0 m 1x7820
 0 50 l 1x7820
 10 50 l 1
 10 80 l 1x74
 20 80 l 1
 20 100 l 1x72
 30 100 l 1
 30 120 l 1
 60 120 l 1
 60 100 l 1
 70 100 l 1x7120
 70 80 l 1
 80 80 l 1x7090
 80 50 l 1x7040
 90 50 l 1
 90 0 l 1xb020
 100 0 l 1
 100 -10 l 1
 80 -10 l 1xb010
 80 0 l 1x7010
 70 0 l 1
 70 30 l 1
 20 30 l 1
 20 0 l 1
 0 0 l 1x7820
EndSplineSet
EndChar

StartChar: aogonek
Encoding: 261 261 137
Width: 110
GlyphClass: 2
Flags: W
HStem: -10 10<90 100> 0 20<30 70> 40 20<30 70> 70 20<20 70>
VStem: 10 20<20 40> 70 20<20 40 60 70> 80 20<-10 0>
LayerCount: 2
Fore
SplineSet
70 20 m 1x7c
 70 40 l 1
 30 40 l 1
 30 20 l 1
 70 20 l 1x7c
90 0 m 1xbc
 100 0 l 1
 100 -10 l 1
 80 -10 l 1xba
 80 0 l 1x7a
 20 0 l 1
 20 10 l 1
 10 10 l 1
 10 50 l 1
 20 50 l 1
 20 60 l 1
 70 60 l 1
 70 70 l 1x7c
 20 70 l 1
 20 90 l 1
 80 90 l 1
 80 80 l 1x7a
 90 80 l 1
 90 0 l 1xbc
EndSplineSet
EndChar

StartChar: cacute
Encoding: 263 263 138
Width: 110
GlyphClass: 2
Flags: W
HStem: 0 20<30 70> 10 20<80 90> 60 20<80 90> 70 20<30 70> 100 10<30 50> 110 10<60 80>
VStem: 10 20<20 70> 70 20<20 30 60 70>
LayerCount: 2
Fore
SplineSet
10 10 m 1x43
 10 80 l 1
 20 80 l 1x63
 20 90 l 1
 80 90 l 1x13
 80 80 l 1
 90 80 l 1
 90 60 l 1
 70 60 l 1x23
 70 70 l 1
 30 70 l 1
 30 20 l 1
 70 20 l 1x93
 70 30 l 1
 90 30 l 1
 90 10 l 1
 80 10 l 1x43
 80 0 l 1
 20 0 l 1x83
 20 10 l 1
 10 10 l 1x43
30 100 m 1x0b
 30 110 l 1
 50 110 l 1x0b
 50 120 l 1
 80 120 l 1
 80 110 l 1
 60 110 l 1x07
 60 100 l 1
 30 100 l 1x0b
EndSplineSet
Validated: 1
EndChar

StartChar: Ccaron
Encoding: 268 268 139
Width: 110
GlyphClass: 2
Flags: W
LayerCount: 2
Fore
SplineSet
30 90 m 1
 30 80 l 1
 20 80 l 1
 20 70 l 1
 10 70 l 1
 10 20 l 1
 20 20 l 1
 20 10 l 1
 30 10 l 1
 30 0 l 1
 80 0 l 1
 80 10 l 1
 90 10 l 1
 90 30 l 1
 70 30 l 1
 70 20 l 1
 40 20 l 1
 40 30 l 1
 30 30 l 1
 30 60 l 1
 40 60 l 1
 40 70 l 1
 70 70 l 1
 70 60 l 1
 90 60 l 1
 90 80 l 1
 80 80 l 1
 80 90 l 1
 30 90 l 1
30 100 m 1
 70 100 l 1
 70 110 l 1
 80 110 l 1
 80 120 l 1
 60 120 l 1
 60 110 l 1
 40 110 l 1
 40 120 l 1
 20 120 l 1
 20 110 l 1
 30 110 l 1
 30 100 l 1
EndSplineSet
EndChar

StartChar: ccaron
Encoding: 269 269 140
Width: 110
GlyphClass: 2
Flags: W
HStem: 0 20<30 70> 10 20<80 90> 60 20<80 90> 70 20<30 70> 100 10<40 60> 110 10<20 30 70 80>
VStem: 10 20<20 70> 20 20<110 120> 60 20<110 120> 70 20<20 30 60 70>
LayerCount: 2
Fore
SplineSet
60 120 m 1x0580
 80 120 l 1
 80 110 l 1x0580
 70 110 l 1x0440
 70 100 l 1
 30 100 l 1x0a40
 30 110 l 1x0640
 20 110 l 1
 20 120 l 1
 40 120 l 1x05
 40 110 l 1
 60 110 l 1x0980
 60 120 l 1x0580
10 10 m 1x42
 10 80 l 1x62
 20 80 l 1x61
 20 90 l 1
 80 90 l 1x1180
 80 80 l 1x2180
 90 80 l 1
 90 60 l 1
 70 60 l 1x2040
 70 70 l 1
 30 70 l 1
 30 20 l 1
 70 20 l 1x9240
 70 30 l 1
 90 30 l 1
 90 10 l 1x4240
 80 10 l 1x4080
 80 0 l 1
 20 0 l 1x8180
 20 10 l 1x4180
 10 10 l 1x42
EndSplineSet
EndChar

StartChar: dcroat
Encoding: 273 273 141
Width: 110
GlyphClass: 2
Flags: W
HStem: 0 20<30 70> 60 20<30 70> 90 20<40 70 90 100> 100 20G<70 90>
VStem: 10 20<20 60> 70 20<20 60 80 90 110 120>
LayerCount: 2
Fore
SplineSet
30 20 m 1xcc
 70 20 l 1
 70 60 l 1
 30 60 l 1
 30 20 l 1xcc
70 120 m 1xdc
 90 120 l 1xdc
 90 110 l 1
 100 110 l 1
 100 90 l 1
 90 90 l 1
 90 0 l 1
 20 0 l 1
 20 10 l 1
 10 10 l 1
 10 70 l 1
 20 70 l 1
 20 80 l 1
 70 80 l 1
 70 90 l 1
 40 90 l 1
 40 110 l 1
 70 110 l 1xec
 70 120 l 1xdc
EndSplineSet
Validated: 1
EndChar

StartChar: eogonek
Encoding: 281 281 142
Width: 110
GlyphClass: 2
Flags: W
HStem: -10 10<60 80> 10 20<30 40 60 70> 20 20<80 90> 50 20<30 70> 80 20<30 70>
VStem: 10 20<30 50 70 80> 40 20<0 10> 70 20<30 40 70 80>
CounterMasks: 1 07
LayerCount: 2
Fore
SplineSet
30 80 m 1x9f
 30 70 l 1
 70 70 l 1
 70 80 l 1
 30 80 l 1x9f
50 0 m 1
 40 0 l 1
 40 10 l 1
 20 10 l 1xdf
 20 20 l 1
 10 20 l 1xbf
 10 90 l 1
 20 90 l 1
 20 100 l 1
 80 100 l 1
 80 90 l 1
 90 90 l 1
 90 50 l 1
 30 50 l 1
 30 30 l 1
 70 30 l 1xdf
 70 40 l 1
 90 40 l 1
 90 20 l 1
 80 20 l 1xbf
 80 10 l 1
 60 10 l 1xdf
 60 0 l 1
 80 0 l 1
 80 -10 l 1
 50 -10 l 1
 50 0 l 1
EndSplineSet
Validated: 1
EndChar

StartChar: ecaron
Encoding: 283 283 143
Width: 110
GlyphClass: 2
Flags: W
HStem: 0 20<30 70> 10 20<80 90> 40 20<30 70> 70 20<30 70> 100 10<40 60> 110 10<20 30 70 80>
VStem: 10 20<20 40 60 70> 20 20<110 120> 60 20<110 120> 70 20<20 30 60 70>
LayerCount: 2
Fore
SplineSet
60 120 m 1x3580
 80 120 l 1
 80 110 l 1x3580
 70 110 l 1x3440
 70 100 l 1
 30 100 l 1x3a40
 30 110 l 1x3640
 20 110 l 1
 20 120 l 1
 40 120 l 1x35
 40 110 l 1
 60 110 l 1x3980
 60 120 l 1x3580
10 10 m 1x72
 10 80 l 1x72
 20 80 l 1
 20 90 l 1
 80 90 l 1
 80 80 l 1x7180
 90 80 l 1
 90 40 l 1
 30 40 l 1
 30 20 l 1
 70 20 l 1xb240
 70 30 l 1
 90 30 l 1
 90 10 l 1x7240
 80 10 l 1x7080
 80 0 l 1
 20 0 l 1xb180
 20 10 l 1x7180
 10 10 l 1x72
30 60 m 1
 70 60 l 1
 70 70 l 1x3240
 30 70 l 1
 30 60 l 1
EndSplineSet
EndChar

StartChar: dotlessi
Encoding: 305 305 144
Width: 110
GlyphClass: 2
Flags: W
HStem: 0 20<20 40 60 80> 70 20<20 40>
VStem: 40 20<20 70>
LayerCount: 2
Fore
SplineSet
20 70 m 1
 20 90 l 1
 60 90 l 1
 60 20 l 1
 80 20 l 1
 80 0 l 1
 20 0 l 1
 20 20 l 1
 40 20 l 1
 40 70 l 1
 20 70 l 1
EndSplineSet
Validated: 1
AlternateSubs2: "'ssty' Math Script Style lookup 4 subtable" dotlessi.ssty dotlessi.ssty2
AlternateSubs2: "'aalt' Access All Alternates lookup 1 subtable" dotlessi.ssty dotlessi.ssty2
EndChar

StartChar: lacute
Encoding: 314 314 145
Width: 110
GlyphClass: 2
Flags: W
HStem: 0 20<20 40 60 80> 80 10<20 40> 100 10<30 50> 110 10<60 80>
VStem: 40 20<20 80>
LayerCount: 2
Fore
SplineSet
30 100 m 5xe8
 30 110 l 5
 50 110 l 5xe8
 50 120 l 5
 80 120 l 5
 80 110 l 5
 60 110 l 5xd8
 60 100 l 5
 30 100 l 5xe8
60 90 m 1
 60 20 l 1
 80 20 l 1
 80 0 l 1
 20 0 l 1
 20 20 l 1
 40 20 l 1
 40 80 l 1
 20 80 l 1
 20 90 l 1
 60 90 l 1
EndSplineSet
EndChar

StartChar: lcaron
Encoding: 318 318 146
Width: 110
GlyphClass: 2
Flags: W
HStem: 0 20<20 40 60 80> 100 20<20 40>
VStem: 40 20<20 100> 70 20<90 120> 70 10<80 90>
LayerCount: 2
Fore
SplineSet
20 100 m 1xe8
 20 120 l 1
 60 120 l 1
 60 20 l 1
 80 20 l 1
 80 0 l 1
 20 0 l 1
 20 20 l 1
 40 20 l 1
 40 100 l 1
 20 100 l 1xe8
80 80 m 1
 70 80 l 1xe8
 70 120 l 1
 90 120 l 1
 90 90 l 1xf0
 80 90 l 1
 80 80 l 1
EndSplineSet
Validated: 1
Substitution2: "'ss01' Style Set 1 lookup 3 subtable" lcaron.ss01
EndChar

StartChar: Lslash
Encoding: 321 321 147
Width: 110
GlyphClass: 2
Flags: W
HStem: 0 20<30 90> 40 20<0 10> 50 20<30 40> 60 20<50 60> 100 20G<10 30>
VStem: 10 20<20 40 70 120> 40 20<70 80>
LayerCount: 2
Fore
SplineSet
10 40 m 1xce
 0 40 l 1
 0 60 l 1
 10 60 l 1xce
 10 120 l 1
 30 120 l 1
 30 70 l 1
 40 70 l 1xae
 40 80 l 1
 60 80 l 1
 60 60 l 1
 50 60 l 1x9e
 50 50 l 1
 30 50 l 1xae
 30 20 l 1
 90 20 l 1
 90 0 l 1
 10 0 l 1
 10 40 l 1xce
EndSplineSet
Validated: 1
EndChar

StartChar: lslash
Encoding: 322 322 148
Width: 110
GlyphClass: 2
Flags: W
HStem: 0 20<20 40 60 80> 40 20<20 30> 50 20<30 40> 70 20<60 70> 80 20<70 80> 100 20<20 40>
VStem: 20 10<40 50> 40 20<20 50 90 100> 70 10<90 100>
CounterMasks: 1 0380
LayerCount: 2
Fore
SplineSet
40 50 m 1xa380
 30 50 l 1xa380
 30 40 l 1
 20 40 l 1
 20 60 l 1
 30 60 l 1xc380
 30 70 l 1
 40 70 l 1xa380
 40 100 l 1
 20 100 l 1
 20 120 l 1
 60 120 l 1
 60 90 l 1
 70 90 l 1x9780
 70 100 l 1
 80 100 l 1
 80 80 l 1
 70 80 l 1x8b80
 70 70 l 1
 60 70 l 1x9380
 60 20 l 1
 80 20 l 1
 80 0 l 1
 20 0 l 1
 20 20 l 1
 40 20 l 1
 40 50 l 1xa380
EndSplineSet
Validated: 1
EndChar

StartChar: nacute
Encoding: 324 324 149
Width: 110
GlyphClass: 2
Flags: W
HStem: 0 21G<10 30 70 90> 60 20<30 40> 70 20<40 70> 100 10<30 50> 110 10<60 80>
VStem: 10 20<0 60 80 90> 70 20<0 70>
LayerCount: 2
Fore
SplineSet
90 0 m 1xc6
 70 0 l 1
 70 70 l 1
 40 70 l 1xa6
 40 60 l 1
 30 60 l 1xc6
 30 0 l 1
 10 0 l 1
 10 90 l 1
 30 90 l 1xa6
 30 80 l 1
 40 80 l 1xc6
 40 90 l 1
 80 90 l 1xa6
 80 80 l 1
 90 80 l 1
 90 0 l 1xc6
30 100 m 1x96
 30 110 l 1
 50 110 l 1x96
 50 120 l 1
 80 120 l 1
 80 110 l 1
 60 110 l 1x8e
 60 100 l 1
 30 100 l 1x96
EndSplineSet
Validated: 1
EndChar

StartChar: ncaron
Encoding: 328 328 150
Width: 110
GlyphClass: 2
Flags: W
HStem: 0 21G<10 30 70 90> 60 20<30 40> 70 20<40 70> 100 10<40 60> 110 10<20 30 70 80>
VStem: 10 20<0 60 80 90> 20 20<110 120> 60 20<110 120> 70 20<0 70>
LayerCount: 2
Fore
SplineSet
90 80 m 1xc080
 90 0 l 1
 70 0 l 1
 70 70 l 1
 40 70 l 1xa280
 40 60 l 1xc280
 30 60 l 1xc4
 30 0 l 1
 10 0 l 1
 10 90 l 1
 30 90 l 1xa4
 30 80 l 1xc4
 40 80 l 1xc2
 40 90 l 1
 80 90 l 1xa3
 80 80 l 1xc3
 90 80 l 1xc080
60 110 m 1x93
 60 120 l 1
 80 120 l 1
 80 110 l 1x8b
 70 110 l 1x8880
 70 100 l 1
 30 100 l 1x9480
 30 110 l 1x8c80
 20 110 l 1
 20 120 l 1
 40 120 l 1x8a
 40 110 l 1
 60 110 l 1x93
EndSplineSet
Validated: 1
EndChar

StartChar: ohungarumlaut
Encoding: 337 337 151
Width: 110
GlyphClass: 2
Flags: W
HStem: 0 20<30 70> 70 20<30 70> 100 10<20 30 50 60> 110 10<40 50 70 80>
VStem: 10 20<20 70> 20 20<100 110> 60 20<110 120> 70 20<20 70>
LayerCount: 2
Fore
SplineSet
30 70 m 1xc9
 30 20 l 1
 70 20 l 1
 70 70 l 1
 30 70 l 1xc9
20 10 m 1xc6
 10 10 l 1
 10 80 l 1xc8
 20 80 l 1
 20 90 l 1
 80 90 l 1
 80 80 l 1xc6
 90 80 l 1
 90 10 l 1xc1
 80 10 l 1
 80 0 l 1
 20 0 l 1
 20 10 l 1xc6
70 100 m 1xe1
 50 100 l 1
 50 110 l 1xe1
 40 110 l 1xd5
 40 100 l 1
 20 100 l 1
 20 110 l 1xe5
 30 110 l 1xe8
 30 120 l 1
 50 120 l 1xd8
 50 110 l 1
 60 110 l 1xea
 60 120 l 1
 80 120 l 1
 80 110 l 1xda
 70 110 l 1xd1
 70 100 l 1xe1
EndSplineSet
Validated: 5
EndChar

StartChar: Rcaron
Encoding: 344 344 152
Width: 110
GlyphClass: 2
Flags: W
HStem: 0 20<80 90> 40 20<30 40> 110 10<20 30 70 80>
VStem: 10 20<0 40 60 80> 20 20<110 120> 60 20<110 120> 70 20<0 10 60 80>
LayerCount: 2
Fore
SplineSet
70 80 m 1xf2
 30 80 l 1
 30 60 l 1
 70 60 l 1
 70 80 l 1xf2
30 0 m 1
 10 0 l 1
 10 100 l 1
 30 100 l 1
 30 110 l 1xf0
 20 110 l 1
 20 120 l 1
 40 120 l 1
 40 110 l 1
 60 110 l 1
 60 120 l 1
 80 120 l 1
 80 110 l 1xec
 70 110 l 1
 70 100 l 1xe2
 80 100 l 1
 80 90 l 1xe4
 90 90 l 1
 90 50 l 1xe2
 80 50 l 1
 80 40 l 1xe4
 70 40 l 1
 70 30 l 1xe2
 80 30 l 1
 80 20 l 1xe4
 90 20 l 1
 90 0 l 1
 70 0 l 1
 70 10 l 1xe2
 60 10 l 1
 60 20 l 1
 50 20 l 1
 50 30 l 1
 40 30 l 1
 40 40 l 1xec
 30 40 l 1
 30 0 l 1
EndSplineSet
Validated: 1
EndChar

StartChar: rcaron
Encoding: 345 345 153
Width: 110
GlyphClass: 2
Flags: W
HStem: 0 21G<20 40> 60 20<40 50> 70 20<50 90> 100 10<40 60> 110 10<20 30 70 80>
VStem: 20 20<0 60 80 90 110 120> 60 20<110 120>
LayerCount: 2
Fore
SplineSet
90 70 m 1xa6
 50 70 l 1xa6
 50 60 l 1
 40 60 l 1xc6
 40 0 l 1
 20 0 l 1
 20 90 l 1
 40 90 l 1xa6
 40 80 l 1
 50 80 l 1xc6
 50 90 l 1
 90 90 l 1
 90 70 l 1xa6
60 120 m 1x8e
 80 120 l 1
 80 110 l 1
 70 110 l 1x8e
 70 100 l 1
 30 100 l 1x96
 30 110 l 1
 20 110 l 1
 20 120 l 1
 40 120 l 1x8e
 40 110 l 1
 60 110 l 1x96
 60 120 l 1x8e
EndSplineSet
Validated: 1
EndChar

StartChar: Sacute
Encoding: 346 346 154
Width: 110
GlyphClass: 2
Flags: W
HStem: 0 20<30 80> 10 20<10 20> 40 20<30 80> 70 20<90 100> 80 20<30 40 60 80> 110 10<60 80>
VStem: 10 20<20 30 60 80> 40 20<100 110> 80 20<20 40 70 80>
LayerCount: 2
Fore
SplineSet
10 10 m 1x6780
 10 30 l 1
 30 30 l 1x6780
 30 20 l 1
 80 20 l 1
 80 40 l 1
 20 40 l 1
 20 50 l 1
 10 50 l 1
 10 90 l 1
 20 90 l 1xb780
 20 100 l 1
 40 100 l 1
 40 110 l 1
 50 110 l 1
 50 120 l 1
 80 120 l 1
 80 110 l 1
 60 110 l 1
 60 100 l 1
 90 100 l 1x2f80
 90 90 l 1
 100 90 l 1
 100 70 l 1
 80 70 l 1x3780
 80 80 l 1
 30 80 l 1
 30 60 l 1
 90 60 l 1
 90 50 l 1
 100 50 l 1
 100 10 l 1
 90 10 l 1x6f80
 90 0 l 1
 20 0 l 1xa780
 20 10 l 1
 10 10 l 1x6780
EndSplineSet
Validated: 1
EndChar

StartChar: sacute
Encoding: 347 347 155
Width: 110
GlyphClass: 2
Flags: W
HStem: 0 20<30 70> 10 20<10 20> 30 20<60 70> 40 20<30 50> 60 20<80 90> 70 20<30 70> 100 10<30 50> 110 10<60 80>
VStem: 10 20<20 30 60 70> 70 20<20 30 60 70>
LayerCount: 2
Fore
SplineSet
10 10 m 1x40c0
 10 30 l 1x40c0
 30 30 l 1
 30 20 l 1
 70 20 l 1
 70 30 l 1
 50 30 l 1xa0c0
 50 40 l 1
 20 40 l 1x10c0
 20 50 l 1
 10 50 l 1
 10 80 l 1
 20 80 l 1x28c0
 20 90 l 1
 80 90 l 1x04c0
 80 80 l 1
 90 80 l 1
 90 60 l 1
 70 60 l 1x08c0
 70 70 l 1
 30 70 l 1
 30 60 l 1x14c0
 60 60 l 1
 60 50 l 1
 80 50 l 1x28c0
 80 40 l 1
 90 40 l 1
 90 10 l 1
 80 10 l 1x50c0
 80 0 l 1
 20 0 l 1x80c0
 20 10 l 1
 10 10 l 1x40c0
30 100 m 1x02c0
 30 110 l 1
 50 110 l 1x02c0
 50 120 l 1
 80 120 l 1
 80 110 l 1
 60 110 l 1x01c0
 60 100 l 1
 30 100 l 1x02c0
EndSplineSet
Validated: 1
EndChar

StartChar: Scaron
Encoding: 352 352 156
Width: 110
GlyphClass: 2
Flags: W
HStem: 0 20<30 80> 10 20<10 20> 30 20<60 80> 40 20<30 50> 60 20<90 100> 70 20<30 80>
VStem: 10 20<20 30 60 70> 80 20<20 30 60 70>
LayerCount: 2
Fore
SplineSet
10 10 m 1x43
 10 30 l 1x43
 30 30 l 1
 30 20 l 1
 80 20 l 1
 80 30 l 1
 50 30 l 1xa3
 50 40 l 1
 20 40 l 1x13
 20 50 l 1
 10 50 l 1
 10 80 l 1
 20 80 l 1x2b
 20 90 l 1
 90 90 l 1x07
 90 80 l 1
 100 80 l 1
 100 60 l 1
 80 60 l 1x0b
 80 70 l 1
 30 70 l 1
 30 60 l 1x17
 60 60 l 1
 60 50 l 1
 90 50 l 1x2b
 90 40 l 1
 100 40 l 1
 100 10 l 1
 90 10 l 1x53
 90 0 l 1
 20 0 l 1x83
 20 10 l 1
 10 10 l 1x43
70 100 m 1
 70 110 l 1
 80 110 l 1
 80 120 l 1
 60 120 l 1
 60 110 l 1
 40 110 l 1
 40 120 l 1
 20 120 l 1
 20 110 l 1
 30 110 l 1
 30 100 l 1
 70 100 l 1
EndSplineSet
EndChar

StartChar: scaron
Encoding: 353 353 157
Width: 110
GlyphClass: 2
Flags: W
HStem: 0 20<30 70> 10 20<10 20> 30 20<60 70> 40 20<30 50> 60 20<80 90> 70 20<30 70> 100 10<40 60> 110 10<20 30 70 80>
VStem: 10 20<20 30 60 70> 20 20<110 120> 60 20<110 120> 70 20<20 30 60 70>
LayerCount: 2
Fore
SplineSet
20 10 m 1x4060
 10 10 l 1
 10 30 l 1x4080
 30 30 l 1
 30 20 l 1
 70 20 l 1
 70 30 l 1
 50 30 l 1xa090
 50 40 l 1
 20 40 l 1x1050
 20 50 l 1x2050
 10 50 l 1
 10 80 l 1x2880
 20 80 l 1x2840
 20 90 l 1
 80 90 l 1x0460
 80 80 l 1x0860
 90 80 l 1
 90 60 l 1
 70 60 l 1x0810
 70 70 l 1
 30 70 l 1
 30 60 l 1x1490
 60 60 l 1
 60 50 l 1
 80 50 l 1x28a0
 80 40 l 1x10a0
 90 40 l 1
 90 10 l 1x5010
 80 10 l 1x5020
 80 0 l 1
 20 0 l 1x8060
 20 10 l 1x4060
60 110 m 1x0260
 60 120 l 1
 80 120 l 1
 80 110 l 1x0160
 70 110 l 1x0110
 70 100 l 1
 30 100 l 1x0290
 30 110 l 1x0190
 20 110 l 1
 20 120 l 1
 40 120 l 1x0140
 40 110 l 1
 60 110 l 1x0260
EndSplineSet
Validated: 1
EndChar

StartChar: tcaron
Encoding: 357 357 158
Width: 110
GlyphClass: 2
Flags: W
HStem: 0 20<40 70> 70 20<0 20 40 70> 100 20G<80 100>
VStem: 20 20<20 70 90 110> 80 20<90 120> 80 10<80 90>
LayerCount: 2
Fore
SplineSet
0 90 m 1xf0
 20 90 l 1
 20 110 l 1
 40 110 l 1
 40 90 l 1
 70 90 l 1
 70 70 l 1
 40 70 l 1
 40 20 l 1
 70 20 l 1
 70 0 l 1
 30 0 l 1
 30 10 l 1
 20 10 l 1
 20 70 l 1
 0 70 l 1
 0 90 l 1xf0
90 80 m 1xf4
 80 80 l 1xf4
 80 120 l 1
 100 120 l 1
 100 90 l 1xf8
 90 90 l 1
 90 80 l 1xf4
EndSplineSet
Validated: 1
Substitution2: "'ss01' Style Set 1 lookup 3 subtable" tcaron.ss01
EndChar

StartChar: utilde
Encoding: 361 361 159
Width: 110
GlyphClass: 2
Flags: W
HStem: 0 20<30 60> 10 20<60 70> 70 20G<10 30 70 90> 100 10<20 30 60 70> 110 10<40 50 80 90>
VStem: 10 20<20 90> 20 20<100 110> 70 20<0 10 30 90 110 120>
LayerCount: 2
Fore
SplineSet
10 90 m 1x65
 30 90 l 1
 30 20 l 1
 60 20 l 1xa5
 60 30 l 1
 70 30 l 1x65
 70 90 l 1
 90 90 l 1
 90 0 l 1
 70 0 l 1xa5
 70 10 l 1
 60 10 l 1x65
 60 0 l 1
 20 0 l 1xa3
 20 10 l 1x63
 10 10 l 1
 10 90 l 1x65
50 100 m 1x35
 50 110 l 1
 40 110 l 1x2b
 40 100 l 1
 20 100 l 1
 20 110 l 1x33
 30 110 l 1x35
 30 120 l 1
 60 120 l 1x2d
 60 110 l 1
 70 110 l 1x35
 70 120 l 1
 90 120 l 1
 90 110 l 1
 80 110 l 1x2d
 80 100 l 1
 50 100 l 1x35
EndSplineSet
Validated: 1
EndChar

StartChar: uring
Encoding: 367 367 160
Width: 110
GlyphClass: 2
Flags: W
HStem: 0 20<30 60> 10 20<60 70> 70 20G<70 90> 90 10<40 50> 100 10<20 30 60 70> 110 10<40 50>
VStem: 10 20<20 90> 20 20<100 110> 30 30<90 100 110 120> 50 20<100 110> 70 20<0 10 30 90>
LayerCount: 2
Fore
SplineSet
50 110 m 1x1540
 40 110 l 1
 40 100 l 1
 50 100 l 1
 50 110 l 1x1540
30 110 m 1x0880
 30 120 l 1
 60 120 l 1x0480
 60 110 l 1x0880
 70 110 l 1
 70 100 l 1x0840
 60 100 l 1x0880
 60 90 l 1x1080
 30 90 l 1
 30 20 l 1x92
 60 20 l 1x9080
 60 30 l 1
 70 30 l 1x40a0
 70 90 l 1
 90 90 l 1
 90 0 l 1
 70 0 l 1xa0a0
 70 10 l 1
 60 10 l 1x40a0
 60 0 l 1x80a0
 20 0 l 1x81
 20 10 l 1x41
 10 10 l 1
 10 90 l 1
 30 90 l 1x52
 30 100 l 1x0880
 20 100 l 1
 20 110 l 1x09
 30 110 l 1x0880
EndSplineSet
Validated: 5
EndChar

StartChar: uhungarumlaut
Encoding: 369 369 161
Width: 110
GlyphClass: 2
Flags: W
HStem: 0 20<30 60> 10 20<60 70> 70 20G<10 30 70 90> 100 10<20 30 50 60> 110 10<40 50 70 80>
VStem: 10 20<20 90> 20 20<100 110> 60 20<110 120> 70 20<0 10 30 90>
LayerCount: 2
Fore
SplineSet
10 90 m 1x64
 30 90 l 1
 30 20 l 1
 60 20 l 1xa5
 60 30 l 1x65
 70 30 l 1x6080
 70 90 l 1
 90 90 l 1
 90 0 l 1
 70 0 l 1xa080
 70 10 l 1x6080
 60 10 l 1x61
 60 0 l 1
 20 0 l 1xa3
 20 10 l 1x63
 10 10 l 1
 10 90 l 1x64
50 100 m 1x3080
 50 110 l 1x3080
 40 110 l 1x2a80
 40 100 l 1
 20 100 l 1
 20 110 l 1x3280
 30 110 l 1x34
 30 120 l 1
 50 120 l 1x2c
 50 110 l 1
 60 110 l 1x35
 60 120 l 1
 80 120 l 1
 80 110 l 1x2d
 70 110 l 1x2880
 70 100 l 1
 50 100 l 1x3080
EndSplineSet
Validated: 5
EndChar

StartChar: zacute
Encoding: 378 378 162
Width: 110
GlyphClass: 2
Flags: W
HStem: 0 20<40 90> 70 20<10 50 80 90> 100 10<30 50> 110 10<60 80>
VStem: 30 30<40 50 100 110> 50 30<60 70 110 120>
LayerCount: 2
Fore
SplineSet
10 70 m 1xc4
 10 90 l 1
 90 90 l 1
 90 70 l 1
 80 70 l 1
 80 60 l 1xc4
 70 60 l 1
 70 50 l 1
 60 50 l 1
 60 40 l 1xc8
 50 40 l 1
 50 30 l 1xc4
 40 30 l 1
 40 20 l 1
 90 20 l 1
 90 0 l 1
 10 0 l 1
 10 30 l 1
 20 30 l 1
 20 40 l 1
 30 40 l 1
 30 50 l 1xc8
 40 50 l 1
 40 60 l 1
 50 60 l 1
 50 70 l 1
 10 70 l 1xc4
30 100 m 1xe8
 30 110 l 1xe8
 50 110 l 1xe4
 50 120 l 1
 80 120 l 1
 80 110 l 1xd4
 60 110 l 1xd8
 60 100 l 1
 30 100 l 1xe8
EndSplineSet
Validated: 1
EndChar

StartChar: zdotaccent
Encoding: 380 380 163
Width: 110
GlyphClass: 2
Flags: W
HStem: 0 20<40 90> 70 20<10 50 80 90> 100 20<40 60>
VStem: 40 20<100 120>
LayerCount: 2
Fore
SplineSet
50 70 m 1
 10 70 l 1
 10 90 l 1
 90 90 l 1
 90 70 l 1
 80 70 l 1
 80 60 l 1
 70 60 l 1
 70 50 l 1
 60 50 l 1
 60 40 l 1
 50 40 l 1
 50 30 l 1
 40 30 l 1
 40 20 l 1
 90 20 l 1
 90 0 l 1
 10 0 l 1
 10 30 l 1
 20 30 l 1
 20 40 l 1
 30 40 l 1
 30 50 l 1
 40 50 l 1
 40 60 l 1
 50 60 l 1
 50 70 l 1
60 100 m 1
 40 100 l 1
 40 120 l 1
 60 120 l 1
 60 100 l 1
EndSplineSet
Validated: 1
EndChar

StartChar: Zcaron
Encoding: 381 381 164
Width: 110
GlyphClass: 2
Flags: W
HStem: 0 20<40 90> 80 30<40 60> 80 20<10 30> 110 10<20 30 70 80>
VStem: 20 20<110 120> 60 20<110 120>
LayerCount: 2
Fore
SplineSet
60 110 m 1xcc
 60 120 l 1
 80 120 l 1
 80 110 l 1
 70 110 l 1
 70 100 l 1
 90 100 l 1xbc
 90 70 l 1
 80 70 l 1
 80 60 l 1
 70 60 l 1
 70 50 l 1
 60 50 l 1
 60 40 l 1
 50 40 l 1
 50 30 l 1
 40 30 l 1
 40 20 l 1
 90 20 l 1
 90 0 l 1
 10 0 l 1
 10 30 l 1
 20 30 l 1
 20 40 l 1
 30 40 l 1
 30 50 l 1
 40 50 l 1
 40 60 l 1
 50 60 l 1
 50 70 l 1
 60 70 l 1
 60 80 l 1xcc
 10 80 l 1
 10 100 l 1
 30 100 l 1
 30 110 l 1
 20 110 l 1
 20 120 l 1
 40 120 l 1xbc
 40 110 l 1
 60 110 l 1xcc
EndSplineSet
Validated: 1
EndChar

StartChar: zcaron
Encoding: 382 382 165
Width: 110
GlyphClass: 2
Flags: W
HStem: 0 20<40 90> 70 20<10 50 80 90> 100 10<40 60> 110 10<20 30 70 80>
VStem: 20 20<110 120> 60 20<110 120>
LayerCount: 2
Fore
SplineSet
50 70 m 1xcc
 10 70 l 1
 10 90 l 1
 90 90 l 1
 90 70 l 1
 80 70 l 1
 80 60 l 1
 70 60 l 1
 70 50 l 1
 60 50 l 1
 60 40 l 1
 50 40 l 1
 50 30 l 1
 40 30 l 1
 40 20 l 1
 90 20 l 1
 90 0 l 1
 10 0 l 1
 10 30 l 1
 20 30 l 1
 20 40 l 1
 30 40 l 1
 30 50 l 1
 40 50 l 1
 40 60 l 1
 50 60 l 1
 50 70 l 1xcc
60 110 m 1xec
 60 120 l 1
 80 120 l 1
 80 110 l 1
 70 110 l 1xdc
 70 100 l 1
 30 100 l 1xec
 30 110 l 1
 20 110 l 1
 20 120 l 1
 40 120 l 1xdc
 40 110 l 1
 60 110 l 1xec
EndSplineSet
Validated: 1
EndChar

StartChar: ohorn
Encoding: 417 417 166
Width: 110
GlyphClass: 2
Flags: W
HStem: 0 20<30 70> 70 20<30 70>
VStem: 10 20<20 70> 70 20<20 70> 80 20<80 100>
LayerCount: 2
Fore
SplineSet
30 70 m 1xf0
 30 20 l 1
 70 20 l 1
 70 70 l 1
 30 70 l 1xf0
20 10 m 1
 10 10 l 1
 10 80 l 1
 20 80 l 1
 20 90 l 1
 70 90 l 1
 70 80 l 1xf0
 80 80 l 1
 80 100 l 1
 100 100 l 1
 100 70 l 1xe8
 90 70 l 1
 90 10 l 1xf0
 80 10 l 1
 80 0 l 1xe8
 20 0 l 1
 20 10 l 1
EndSplineSet
Validated: 1
EndChar

StartChar: uhorn
Encoding: 432 432 167
Width: 110
GlyphClass: 2
Flags: W
HStem: 0 20<20 50> 10 20<50 60> 60 20<80 90> 70 20G<0 20 60 80>
VStem: 0 20<20 90> 60 20<0 10 30 60 80 90> 90 10<80 100>
LayerCount: 2
Fore
SplineSet
90 60 m 1x2e
 80 60 l 1
 80 0 l 1
 60 0 l 1xae
 60 10 l 1
 50 10 l 1x4e
 50 0 l 1
 10 0 l 1x8e
 10 10 l 1
 0 10 l 1x4e
 0 90 l 1
 20 90 l 1
 20 20 l 1
 50 20 l 1x9e
 50 30 l 1
 60 30 l 1
 60 90 l 1
 80 90 l 1x5e
 80 80 l 1
 90 80 l 1x2e
 90 100 l 1
 100 100 l 1
 100 70 l 1
 90 70 l 1x1e
 90 60 l 1x2e
EndSplineSet
Validated: 1
EndChar

StartChar: uni0237
Encoding: 567 567 168
Width: 110
GlyphClass: 2
Flags: W
HStem: -10 20<30 60> 70 20<40 60>
VStem: 60 20<10 70>
LayerCount: 2
Fore
SplineSet
40 70 m 1
 40 90 l 1
 80 90 l 1
 80 0 l 1
 70 0 l 1
 70 -10 l 1
 30 -10 l 1
 30 10 l 1
 60 10 l 1
 60 70 l 1
 40 70 l 1
EndSplineSet
Validated: 1
AlternateSubs2: "'ssty' Math Script Style lookup 4 subtable" dotlessj.ssty dotlessj.ssty2
AlternateSubs2: "'aalt' Access All Alternates lookup 1 subtable" dotlessj.ssty dotlessj.ssty2
EndChar

StartChar: uni026A
Encoding: 618 618 169
Width: 110
GlyphClass: 2
Flags: W
HStem: 0 20<20 40 60 80> 70 20<20 40 60 80>
VStem: 40 20<20 70>
LayerCount: 2
Fore
SplineSet
20 70 m 5
 20 90 l 5
 80 90 l 5
 80 70 l 5
 60 70 l 5
 60 20 l 5
 80 20 l 5
 80 0 l 5
 20 0 l 5
 20 20 l 5
 40 20 l 5
 40 70 l 5
 20 70 l 5
EndSplineSet
AlternateSubs2: "'ssty' Math Script Style lookup 4 subtable" Ismall.ssty Ismall.ssty2
AlternateSubs2: "'aalt' Access All Alternates lookup 1 subtable" Ismall.ssty Ismall.ssty2
EndChar

StartChar: uni0274
Encoding: 628 628 170
Width: 110
GlyphClass: 2
Flags: W
HStem: 0 21G<10 30 70 90> 70 20G<10 30 70 90>
VStem: 10 20<0 50 80 90> 70 20<0 20 50 90>
LayerCount: 2
Fore
SplineSet
10 0 m 5
 10 90 l 5
 30 90 l 5
 30 80 l 5
 40 80 l 5
 40 70 l 5
 50 70 l 5
 50 60 l 5
 60 60 l 5
 60 50 l 5
 70 50 l 5
 70 90 l 5
 90 90 l 5
 90 0 l 5
 70 0 l 5
 70 20 l 5
 60 20 l 5
 60 30 l 5
 50 30 l 5
 50 40 l 5
 40 40 l 5
 40 50 l 5
 30 50 l 5
 30 0 l 5
 10 0 l 5
EndSplineSet
AlternateSubs2: "'ssty' Math Script Style lookup 4 subtable" Nsmall.ssty Nsmall.ssty2
AlternateSubs2: "'aalt' Access All Alternates lookup 1 subtable" Nsmall.ssty Nsmall.ssty2
EndChar

StartChar: uni0299
Encoding: 665 665 171
Width: 110
GlyphClass: 2
Flags: W
HStem: 0 20<30 70> 40 20<30 70> 60 20<80 90> 70 20<30 70>
VStem: 10 20<20 40 60 70> 70 20<20 40 60 70>
LayerCount: 2
Fore
SplineSet
10 0 m 1xac
 10 90 l 1
 80 90 l 1x9c
 80 80 l 1
 90 80 l 1
 90 60 l 1
 80 60 l 1
 80 50 l 1
 90 50 l 1
 90 10 l 1
 80 10 l 1
 80 0 l 1
 10 0 l 1xac
30 70 m 1
 30 60 l 1
 70 60 l 1xdc
 70 70 l 1
 30 70 l 1
30 20 m 1
 70 20 l 1
 70 40 l 1
 30 40 l 1
 30 20 l 1
EndSplineSet
AlternateSubs2: "'ssty' Math Script Style lookup 4 subtable" Bsmall.ssty Bsmall.ssty2
AlternateSubs2: "'aalt' Access All Alternates lookup 1 subtable" Bsmall.ssty Bsmall.ssty2
EndChar

StartChar: uni02B3
Encoding: 691 691 172
Width: 110
GlyphClass: 2
Flags: W
HStem: 90 20<40 50> 100 20<50 80>
VStem: 20 20<60 90 110 120>
LayerCount: 2
Fore
SplineSet
80 100 m 1x60
 50 100 l 1x60
 50 90 l 1
 40 90 l 1xa0
 40 60 l 1
 20 60 l 1
 20 120 l 1
 40 120 l 1x60
 40 110 l 1
 50 110 l 1xa0
 50 120 l 1
 80 120 l 1
 80 100 l 1x60
EndSplineSet
Validated: 1
AlternateSubs2: "'ssty' Math Script Style lookup 4 subtable" rsupmod.ssty rsupmod.ssty2
AlternateSubs2: "'aalt' Access All Alternates lookup 1 subtable" rsupmod.ssty rsupmod.ssty2
EndChar

StartChar: uni1D00
Encoding: 7424 7424 173
Width: 110
GlyphClass: 2
Flags: W
HStem: 0 30<10 20 90 100> 70 20<50 60>
VStem: 10 20<0 20> 20 20<40 50> 30 20<60 70> 60 20<60 70> 70 20<40 50> 80 20<0 20>
LayerCount: 2
Fore
SplineSet
10 0 m 1xe1
 10 30 l 1xe1
 20 30 l 1
 20 60 l 1xd0
 30 60 l 1
 30 80 l 1xc8
 40 80 l 1
 40 90 l 1
 70 90 l 1
 70 80 l 1xd2
 80 80 l 1xc1
 80 60 l 1xc4
 90 60 l 1
 90 30 l 1xc2
 100 30 l 1
 100 0 l 1
 80 0 l 1
 80 20 l 1
 30 20 l 1
 30 0 l 1
 10 0 l 1xe1
70 40 m 1xd2
 70 50 l 1xd2
 60 50 l 1
 60 70 l 1
 50 70 l 1
 50 50 l 1xcc
 40 50 l 1
 40 40 l 1
 70 40 l 1xd2
EndSplineSet
AlternateSubs2: "'ssty' Math Script Style lookup 4 subtable" Asmall.ssty Asmall.ssty2
AlternateSubs2: "'aalt' Access All Alternates lookup 1 subtable" Asmall.ssty Asmall.ssty2
EndChar

StartChar: uni1D04
Encoding: 7428 7428 174
Width: 110
GlyphClass: 2
Flags: W
LayerCount: 2
Fore
SplineSet
30 90 m 1
 30 80 l 1
 20 80 l 1
 20 70 l 1
 10 70 l 1
 10 20 l 1
 20 20 l 1
 20 10 l 1
 30 10 l 1
 30 0 l 1
 80 0 l 1
 80 10 l 1
 90 10 l 1
 90 30 l 1
 70 30 l 1
 70 20 l 1
 40 20 l 1
 40 30 l 1
 30 30 l 1
 30 60 l 1
 40 60 l 1
 40 70 l 1
 70 70 l 1
 70 60 l 1
 90 60 l 1
 90 80 l 1
 80 80 l 1
 80 90 l 1
 30 90 l 1
EndSplineSet
AlternateSubs2: "'ssty' Math Script Style lookup 4 subtable" Csmall.ssty Csmall.ssty2
AlternateSubs2: "'aalt' Access All Alternates lookup 1 subtable" Csmall.ssty Csmall.ssty2
EndChar

StartChar: uni1D0A
Encoding: 7434 7434 175
Width: 110
GlyphClass: 2
Flags: W
HStem: -10 20<20 50> 70 20G<60 80>
VStem: 60 20<20 90>
LayerCount: 2
Fore
SplineSet
20 -10 m 1
 20 10 l 1
 50 10 l 1
 50 20 l 1
 60 20 l 1
 60 90 l 1
 80 90 l 1
 80 10 l 1
 70 10 l 1
 70 0 l 1
 60 0 l 1
 60 -10 l 1
 20 -10 l 1
EndSplineSet
AlternateSubs2: "'ssty' Math Script Style lookup 4 subtable" Jsmall.ssty Jsmall.ssty2
AlternateSubs2: "'aalt' Access All Alternates lookup 1 subtable" Jsmall.ssty Jsmall.ssty2
EndChar

StartChar: uni1D0B
Encoding: 7435 7435 176
Width: 110
GlyphClass: 2
Flags: W
HStem: 0 20<80 90> 70 20<80 90>
VStem: 10 20<0 20 50 90> 50 30<20 30 60 70> 60 30<10 20 70 80> 70 20<0 10 80 90>
LayerCount: 2
Fore
SplineSet
10 0 m 1xf0
 10 90 l 1
 30 90 l 1
 30 50 l 1
 40 50 l 1
 40 60 l 1
 50 60 l 1
 50 70 l 1xf0
 60 70 l 1
 60 80 l 1xe8
 70 80 l 1
 70 90 l 1
 90 90 l 1xe4
 90 70 l 1xe8
 80 70 l 1
 80 60 l 1xf0
 70 60 l 1
 70 50 l 1xe4
 60 50 l 1
 60 40 l 1xe8
 70 40 l 1
 70 30 l 1xe4
 80 30 l 1
 80 20 l 1xf0
 90 20 l 1xe8
 90 0 l 1
 70 0 l 1
 70 10 l 1xe4
 60 10 l 1
 60 20 l 1xe8
 50 20 l 1
 50 30 l 1
 40 30 l 1
 40 20 l 1
 30 20 l 1
 30 0 l 1
 10 0 l 1xf0
EndSplineSet
AlternateSubs2: "'ssty' Math Script Style lookup 4 subtable" Ksmall.ssty Ksmall.ssty2
AlternateSubs2: "'aalt' Access All Alternates lookup 1 subtable" Ksmall.ssty Ksmall.ssty2
EndChar

StartChar: uni1D18
Encoding: 7448 7448 177
Width: 110
GlyphClass: 2
Flags: W
HStem: 0 21G<10 30> 30 20<30 70> 70 20<30 70>
VStem: 10 20<0 30 50 70> 70 20<50 70>
LayerCount: 2
Fore
SplineSet
10 0 m 1
 10 90 l 1
 80 90 l 1
 80 80 l 1
 90 80 l 1
 90 40 l 1
 80 40 l 1
 80 30 l 1
 30 30 l 1
 30 0 l 1
 10 0 l 1
30 70 m 1
 30 50 l 1
 70 50 l 1
 70 70 l 1
 30 70 l 1
EndSplineSet
AlternateSubs2: "'ssty' Math Script Style lookup 4 subtable" Psmall.ssty Psmall.ssty2
AlternateSubs2: "'aalt' Access All Alternates lookup 1 subtable" Psmall.ssty Psmall.ssty2
EndChar

StartChar: uni1D1B
Encoding: 7451 7451 178
Width: 110
GlyphClass: 2
Flags: W
HStem: 0 21G<40 60> 70 20<10 40 60 90>
VStem: 40 20<0 70>
LayerCount: 2
Fore
SplineSet
10 70 m 1
 10 90 l 1
 90 90 l 1
 90 70 l 1
 60 70 l 1
 60 0 l 1
 40 0 l 1
 40 70 l 1
 10 70 l 1
EndSplineSet
AlternateSubs2: "'ssty' Math Script Style lookup 4 subtable" Tsmall.ssty Tsmall.ssty2
AlternateSubs2: "'aalt' Access All Alternates lookup 1 subtable" Tsmall.ssty Tsmall.ssty2
EndChar

StartChar: uni1D4D
Encoding: 7501 7501 179
Width: 110
GlyphClass: 2
Flags: W
HStem: 50 10<40 60> 60 10<10 20 80 90> 70 10<50 60> 90 30<20 30 50 70> 100 10<10 20 70 80> 110 10<40 50 80 90>
VStem: 10 30<60 70 100 110> 80 10<110 120>
LayerCount: 2
Fore
SplineSet
10 110 m 1x0b
 20 110 l 1x0b
 20 120 l 1
 70 120 l 1x13
 70 110 l 1
 80 110 l 1x0b
 80 120 l 1
 90 120 l 1
 90 110 l 1x07
 80 110 l 1
 80 100 l 1
 70 100 l 1x0b
 70 90 l 1
 50 90 l 1
 50 80 l 1
 80 80 l 1x33
 80 70 l 1
 90 70 l 1
 90 60 l 1
 80 60 l 1x43
 80 50 l 1
 20 50 l 1x83
 20 60 l 1
 10 60 l 1
 10 70 l 1
 20 70 l 1x43
 20 80 l 1
 30 80 l 1
 30 90 l 1
 20 90 l 1x33
 20 100 l 1
 10 100 l 1
 10 110 l 1x0b
40 70 m 1xa3
 40 60 l 1
 60 60 l 1
 60 70 l 1
 40 70 l 1xa3
50 110 m 1x07
 40 110 l 1x07
 40 100 l 1
 50 100 l 1x0b
 50 110 l 1x07
EndSplineSet
Validated: 5
AlternateSubs2: "'ssty' Math Script Style lookup 4 subtable" gmod.ssty gmod.ssty2
AlternateSubs2: "'aalt' Access All Alternates lookup 1 subtable" gmod.ssty gmod.ssty2
EndChar

StartChar: uni1D64
Encoding: 7524 7524 180
Width: 110
GlyphClass: 2
Flags: W
HStem: 0 20<40 60> 0 10<80 90>
VStem: 20 20<20 50> 60 20<20 50> 70 20<0 10>
LayerCount: 2
Fore
SplineSet
20 50 m 1x70
 40 50 l 1
 40 20 l 1
 60 20 l 1xb0
 60 50 l 1
 80 50 l 1
 80 10 l 1x70
 90 10 l 1
 90 0 l 1
 70 0 l 1
 70 10 l 1x68
 60 10 l 1x70
 60 0 l 1xb0
 30 0 l 1
 30 10 l 1
 20 10 l 1
 20 50 l 1x70
EndSplineSet
Validated: 1
AlternateSubs2: "'ssty' Math Script Style lookup 4 subtable" uinferior.ssty uinferior.ssty2
AlternateSubs2: "'aalt' Access All Alternates lookup 1 subtable" uinferior.ssty uinferior.ssty2
EndChar

StartChar: uni1EA1
Encoding: 7841 7841 181
Width: 110
GlyphClass: 2
Flags: W
HStem: -10 10<40 60> 10 20<30 70> 50 20<30 70> 80 20<20 70>
VStem: 10 20<30 50> 40 20<-10 0> 70 20<30 50 70 80>
CounterMasks: 1 0e
LayerCount: 2
Fore
SplineSet
70 30 m 1
 70 50 l 1
 30 50 l 1
 30 30 l 1
 70 30 l 1
80 90 m 1
 90 90 l 1
 90 10 l 1
 20 10 l 1
 20 20 l 1
 10 20 l 1
 10 60 l 1
 20 60 l 1
 20 70 l 1
 70 70 l 1
 70 80 l 1
 20 80 l 1
 20 100 l 1
 80 100 l 1
 80 90 l 1
40 -10 m 1
 40 0 l 1
 60 0 l 1
 60 -10 l 1
 40 -10 l 1
EndSplineSet
Validated: 1
EndChar

StartChar: uni1EA3
Encoding: 7843 7843 182
Width: 110
GlyphClass: 2
Flags: W
HStem: 0 20<30 70> 40 20<30 70> 70 20<20 70> 90 10<50 60> 100 10<60 70> 110 10<40 60>
VStem: 10 20<20 40> 40 20<110 120> 50 10<90 100> 60 10<100 110> 70 20<20 40 60 70>
LayerCount: 2
Fore
SplineSet
70 20 m 1xc220
 70 40 l 1
 30 40 l 1
 30 20 l 1
 70 20 l 1xc220
80 80 m 1
 90 80 l 1
 90 0 l 1
 20 0 l 1
 20 10 l 1
 10 10 l 1
 10 50 l 1
 20 50 l 1
 20 60 l 1
 70 60 l 1
 70 70 l 1
 20 70 l 1
 20 90 l 1xe220
 80 90 l 1xd220
 80 80 l 1
40 110 m 1xc7
 40 120 l 1
 60 120 l 1xc7
 60 110 l 1xcb
 40 110 l 1xc7
60 100 m 1xd280
 60 110 l 1xcb
 70 110 l 1
 70 100 l 1xca40
 60 100 l 1xd280
50 90 m 1xe280
 50 100 l 1
 60 100 l 1xd280
 60 90 l 1
 50 90 l 1xe280
EndSplineSet
Validated: 5
EndChar

StartChar: uni1EA5
Encoding: 7845 7845 183
Width: 110
GlyphClass: 2
Flags: W
HStem: 0 20<30 70> 40 20<30 70> 70 20<20 70> 100 10<0 10 50 60 70 80> 110 10<20 40 90 100>
VStem: 0 20<100 110> 10 20<20 40> 40 20<100 110> 70 20<20 40 60 70 100 110> 80 20<110 120>
LayerCount: 2
Fore
SplineSet
70 20 m 1xe380
 70 40 l 1
 30 40 l 1
 30 20 l 1
 70 20 l 1xe380
80 80 m 1xe540
 90 80 l 1
 90 0 l 1
 20 0 l 1
 20 10 l 1xe580
 10 10 l 1
 10 50 l 1xe3
 20 50 l 1
 20 60 l 1
 70 60 l 1
 70 70 l 1xe580
 20 70 l 1
 20 90 l 1
 80 90 l 1
 80 80 l 1xe540
40 100 m 1xf3
 40 110 l 1
 20 110 l 1xed
 20 100 l 1
 0 100 l 1
 0 110 l 1xf5
 10 110 l 1xf3
 10 120 l 1
 50 120 l 1xeb
 50 110 l 1
 60 110 l 1
 60 100 l 1
 40 100 l 1xf3
70 100 m 1xf180
 70 110 l 1xf180
 80 110 l 1xf140
 80 120 l 1
 100 120 l 1
 100 110 l 1xe940
 90 110 l 1xe980
 90 100 l 1
 70 100 l 1xf180
EndSplineSet
Validated: 1
EndChar

StartChar: uni1EA7
Encoding: 7847 7847 184
Width: 110
GlyphClass: 2
Flags: W
HStem: 0 20<30 70> 40 20<30 70> 70 20<20 70> 100 10<20 30 40 50 90 100> 110 10<0 10 60 80>
VStem: 0 20<110 120> 10 20<20 40 100 110> 40 20<100 110> 70 20<20 40 60 70> 80 20<100 110>
LayerCount: 2
Fore
SplineSet
70 20 m 1xe380
 70 40 l 1
 30 40 l 1
 30 20 l 1
 70 20 l 1xe380
80 80 m 1xe540
 90 80 l 1
 90 0 l 1
 20 0 l 1
 20 10 l 1xe580
 10 10 l 1
 10 50 l 1xe3
 20 50 l 1
 20 60 l 1
 70 60 l 1
 70 70 l 1xe580
 20 70 l 1
 20 90 l 1
 80 90 l 1
 80 80 l 1xe540
60 100 m 1xf140
 40 100 l 1
 40 110 l 1
 50 110 l 1xf140
 50 120 l 1
 90 120 l 1xe980
 90 110 l 1xf180
 100 110 l 1
 100 100 l 1
 80 100 l 1xf140
 80 110 l 1
 60 110 l 1xe940
 60 100 l 1xf140
30 100 m 1xf3
 10 100 l 1xf3
 10 110 l 1xeb
 0 110 l 1
 0 120 l 1
 20 120 l 1xed
 20 110 l 1xf5
 30 110 l 1
 30 100 l 1xf3
EndSplineSet
Validated: 1
EndChar

StartChar: uni1EA9
Encoding: 7849 7849 185
Width: 110
GlyphClass: 2
Flags: W
HStem: 0 20<30 70> 40 20<30 70> 70 20<20 70> 90 10<80 90> 100 10<0 10 50 60 90 100> 110 10<20 40 70 90>
VStem: 0 20<100 110> 10 20<20 40> 40 20<100 110> 70 20<20 40 60 70 110 120> 80 10<90 100> 90 10<100 110>
LayerCount: 2
Fore
SplineSet
70 20 m 1xc1c0
 70 40 l 1
 30 40 l 1
 30 20 l 1
 70 20 l 1xc1c0
80 80 m 1xd2a0
 90 80 l 1
 90 0 l 1
 20 0 l 1
 20 10 l 1xd290
 10 10 l 1
 10 50 l 1xd180
 20 50 l 1
 20 60 l 1
 70 60 l 1
 70 70 l 1
 20 70 l 1
 20 90 l 1xe2c0
 80 90 l 1
 80 80 l 1xd2a0
40 100 m 1xc980
 40 110 l 1
 20 110 l 1xc680
 20 100 l 1
 0 100 l 1
 0 110 l 1xca80
 10 110 l 1xc980
 10 120 l 1
 50 120 l 1xc580
 50 110 l 1
 60 110 l 1
 60 100 l 1
 40 100 l 1xc980
70 110 m 1xc4c0
 70 120 l 1
 90 120 l 1xc4c0
 90 110 l 1xc8c0
 70 110 l 1xc4c0
90 100 m 1xd0a0
 90 110 l 1xc8c0
 100 110 l 1
 100 100 l 1xc890
 90 100 l 1xd0a0
80 90 m 1xd0a0
 80 100 l 1
 90 100 l 1
 90 90 l 1
 80 90 l 1xd0a0
EndSplineSet
Validated: 5
EndChar

StartChar: uni1EAC
Encoding: 7852 7852 186
Width: 110
GlyphClass: 2
Flags: W
HStem: -10 10<40 60> 0 30<10 20 90 100> 100 10<20 30 70 80> 110 10<40 60>
VStem: 10 20<0 20> 20 20<40 50 100 110> 30 20<60 70> 40 30<80 100> 40 20<-10 0> 60 20<60 70 100 110> 70 20<40 50> 80 20<0 20>
LayerCount: 2
Fore
SplineSet
40 100 m 1x2440
 60 100 l 1x2440
 60 110 l 1
 40 110 l 1x1440
 40 100 l 1x2440
70 40 m 1x0420
 70 50 l 1x0420
 60 50 l 1
 60 70 l 1
 50 70 l 1
 50 50 l 1x0240
 40 50 l 1
 40 40 l 1
 70 40 l 1x0420
10 0 m 1x6810
 10 30 l 1x6810
 20 30 l 1
 20 60 l 1x64
 30 60 l 1
 30 80 l 1x62
 40 80 l 1x61
 40 100 l 1
 20 100 l 1
 20 110 l 1x64
 30 110 l 1x62
 30 120 l 1
 70 120 l 1x1220
 70 110 l 1x2220
 80 110 l 1
 80 100 l 1x2040
 70 100 l 1
 70 80 l 1
 80 80 l 1x2110
 80 60 l 1x2040
 90 60 l 1
 90 30 l 1x6020
 100 30 l 1
 100 0 l 1
 80 0 l 1
 80 20 l 1
 30 20 l 1
 30 0 l 1
 10 0 l 1x6810
40 -10 m 1x8080
 40 0 l 1
 60 0 l 1
 60 -10 l 1
 40 -10 l 1x8080
EndSplineSet
Validated: 5
EndChar

StartChar: uni1EAD
Encoding: 7853 7853 187
Width: 110
GlyphClass: 2
Flags: W
HStem: -10 10<40 60> 10 20<30 70> 40 20<30 70> 70 20<20 70> 100 10<20 30 70 80> 110 10<40 60>
VStem: 10 20<30 40> 20 20<100 110> 40 20<-10 0> 60 20<100 110> 70 20<30 40 60 70>
LayerCount: 2
Fore
SplineSet
70 30 m 1xf220
 70 40 l 1
 30 40 l 1
 30 30 l 1
 70 30 l 1xf220
80 80 m 1xf140
 90 80 l 1
 90 10 l 1
 20 10 l 1
 20 20 l 1xf120
 10 20 l 1
 10 50 l 1xf2
 20 50 l 1
 20 60 l 1
 70 60 l 1
 70 70 l 1xf120
 20 70 l 1
 20 90 l 1
 80 90 l 1
 80 80 l 1xf140
40 -10 m 1xf080
 40 0 l 1
 60 0 l 1
 60 -10 l 1
 40 -10 l 1xf080
60 100 m 1xf840
 60 110 l 1
 40 110 l 1xf540
 40 100 l 1
 20 100 l 1
 20 110 l 1xf940
 30 110 l 1xfa
 30 120 l 1
 70 120 l 1xf620
 70 110 l 1xfa20
 80 110 l 1
 80 100 l 1
 60 100 l 1xf840
EndSplineSet
Validated: 1
EndChar

StartChar: uni1EAF
Encoding: 7855 7855 188
Width: 110
GlyphClass: 2
Flags: W
HStem: 0 20<30 70> 10 20<10 20> 30 10<30 70> 50 20<20 70> 80 10<40 70> 90 10<20 30 80 90> 100 10<50 60> 110 10<70 90>
VStem: 10 20<20 30> 20 20<90 100> 50 20<100 110> 70 20<20 30 40 50 90 100>
LayerCount: 2
Fore
SplineSet
50 100 m 1x1220
 50 110 l 1
 60 110 l 1x1220
 60 120 l 1
 90 120 l 1
 90 110 l 1x1110
 70 110 l 1x1120
 70 100 l 1
 50 100 l 1x1220
40 100 m 1x1240
 40 90 l 1
 70 90 l 1x1a50
 70 100 l 1x1a20
 90 100 l 1
 90 90 l 1
 80 90 l 1x1410
 80 80 l 1
 30 80 l 1x1890
 30 90 l 1x1490
 20 90 l 1
 20 100 l 1x1440
 40 100 l 1x1240
80 60 m 1
 90 60 l 1
 90 0 l 1
 20 0 l 1xb050
 20 10 l 1x5050
 10 10 l 1
 10 30 l 1x5080
 20 30 l 1x5040
 20 40 l 1
 70 40 l 1x3050
 70 50 l 1
 20 50 l 1
 20 70 l 1
 80 70 l 1
 80 60 l 1
70 20 m 1
 70 30 l 1
 30 30 l 1
 30 20 l 1xb090
 70 20 l 1
EndSplineSet
Validated: 5
EndChar

StartChar: uni1EB1
Encoding: 7857 7857 189
Width: 110
GlyphClass: 2
Flags: W
HStem: 0 20<30 70> 10 20<10 20> 30 10<30 70> 50 20<20 70> 80 10<40 70> 90 10<20 30 80 90> 100 10<50 60> 110 10<20 40>
VStem: 10 20<20 30> 20 20<90 100> 40 20<100 110> 70 20<20 30 40 50 90 100>
LayerCount: 2
Fore
SplineSet
60 100 m 1x1230
 40 100 l 1x1250
 40 110 l 1x1130
 20 110 l 1
 20 120 l 1
 50 120 l 1x1150
 50 110 l 1
 60 110 l 1
 60 100 l 1x1230
70 100 m 1
 90 100 l 1
 90 90 l 1
 80 90 l 1x1450
 80 80 l 1
 30 80 l 1x1890
 30 90 l 1x1490
 20 90 l 1
 20 100 l 1x1450
 40 100 l 1
 40 90 l 1
 70 90 l 1x1a50
 70 100 l 1
80 60 m 1
 90 60 l 1
 90 0 l 1
 20 0 l 1xb050
 20 10 l 1x5050
 10 10 l 1
 10 30 l 1x5090
 20 30 l 1x5050
 20 40 l 1
 70 40 l 1x3050
 70 50 l 1
 20 50 l 1
 20 70 l 1
 80 70 l 1
 80 60 l 1
70 20 m 1
 70 30 l 1
 30 30 l 1
 30 20 l 1xb090
 70 20 l 1
EndSplineSet
Validated: 5
EndChar

StartChar: uni1EB7
Encoding: 7863 7863 190
Width: 110
GlyphClass: 2
Flags: W
HStem: -10 10<40 60> 10 20<30 70> 40 20<30 70> 70 20<20 70> 100 10<40 70> 110 10<20 30 80 90>
VStem: 10 20<30 40> 20 20<110 120> 40 20<-10 0> 70 20<30 40 60 70 110 120>
LayerCount: 2
Fore
SplineSet
70 30 m 1xf240
 70 40 l 1
 30 40 l 1
 30 30 l 1
 70 30 l 1xf240
80 80 m 1
 90 80 l 1
 90 10 l 1
 20 10 l 1
 20 20 l 1xf140
 10 20 l 1
 10 50 l 1xf240
 20 50 l 1
 20 60 l 1
 70 60 l 1
 70 70 l 1
 20 70 l 1
 20 90 l 1xf140
 80 90 l 1
 80 80 l 1
40 -10 m 1xf0c0
 40 0 l 1
 60 0 l 1
 60 -10 l 1
 40 -10 l 1xf0c0
70 120 m 1xf540
 90 120 l 1
 90 110 l 1
 80 110 l 1xf540
 80 100 l 1
 30 100 l 1xfa40
 30 110 l 1xf640
 20 110 l 1
 20 120 l 1
 40 120 l 1xf540
 40 110 l 1
 70 110 l 1xf940
 70 120 l 1xf540
EndSplineSet
Validated: 1
EndChar

StartChar: uni1EBF
Encoding: 7871 7871 191
Width: 110
GlyphClass: 2
Flags: W
HStem: 0 20<30 70> 10 20<80 90> 40 20<30 70> 70 20<30 70> 100 10<0 10 50 60 70 80> 110 10<20 40 90 100>
VStem: 0 20<100 110> 10 20<20 40 60 70> 40 20<100 110> 70 20<20 30 60 70 100 110> 80 20<110 120>
LayerCount: 2
Fore
SplineSet
30 60 m 1x31c0
 70 60 l 1
 70 70 l 1
 30 70 l 1
 30 60 l 1x31c0
10 10 m 1x7180
 10 80 l 1x7180
 20 80 l 1
 20 90 l 1
 80 90 l 1
 80 80 l 1x72a0
 90 80 l 1
 90 40 l 1
 30 40 l 1
 30 20 l 1
 70 20 l 1xb1c0
 70 30 l 1
 90 30 l 1
 90 10 l 1x71c0
 80 10 l 1x70a0
 80 0 l 1
 20 0 l 1xb2a0
 20 10 l 1x72a0
 10 10 l 1x7180
20 100 m 1x3a80
 0 100 l 1
 0 110 l 1x3a80
 10 110 l 1x3980
 10 120 l 1
 50 120 l 1x3580
 50 110 l 1
 60 110 l 1
 60 100 l 1
 40 100 l 1x3980
 40 110 l 1
 20 110 l 1x3680
 20 100 l 1x3a80
70 100 m 1x38c0
 70 110 l 1x38c0
 80 110 l 1x38a0
 80 120 l 1
 100 120 l 1
 100 110 l 1x34a0
 90 110 l 1x34c0
 90 100 l 1
 70 100 l 1x38c0
EndSplineSet
Validated: 1
EndChar

StartChar: uni1EC3
Encoding: 7875 7875 192
Width: 110
GlyphClass: 2
Flags: W
HStem: 0 20<30 70> 10 20<80 90> 40 20<30 70> 70 20<30 70> 90 10<80 90> 100 10<0 10 50 60 90 100> 110 10<20 40 70 90>
VStem: 0 20<100 110> 10 20<20 40 60 70> 40 20<100 110> 70 20<20 30 60 70 110 120> 80 10<90 100> 90 10<100 110>
LayerCount: 2
Fore
SplineSet
30 60 m 1x30e0
 70 60 l 1
 70 70 l 1
 30 70 l 1
 30 60 l 1x30e0
10 10 m 1x60c0
 10 80 l 1x60c0
 20 80 l 1
 20 90 l 1
 80 90 l 1
 80 80 l 1x6950
 90 80 l 1
 90 40 l 1x6848
 30 40 l 1
 30 20 l 1
 70 20 l 1xa8e0
 70 30 l 1
 90 30 l 1x60e0
 90 10 l 1x6048
 80 10 l 1x6050
 80 0 l 1
 20 0 l 1xa150
 20 10 l 1x6150
 10 10 l 1x60c0
40 100 m 1x24c0
 40 110 l 1
 20 110 l 1x2340
 20 100 l 1
 0 100 l 1
 0 110 l 1x2540
 10 110 l 1x24c0
 10 120 l 1
 50 120 l 1x22c0
 50 110 l 1
 60 110 l 1
 60 100 l 1
 40 100 l 1x24c0
70 110 m 1x2260
 70 120 l 1
 90 120 l 1x2260
 90 110 l 1x2460
 70 110 l 1x2260
90 100 m 1x2850
 90 110 l 1x2460
 100 110 l 1
 100 100 l 1x2448
 90 100 l 1x2850
80 90 m 1x2850
 80 100 l 1
 90 100 l 1
 90 90 l 1
 80 90 l 1x2850
EndSplineSet
Validated: 5
EndChar

StartChar: uni1EC7
Encoding: 7879 7879 193
Width: 110
GlyphClass: 2
Flags: W
HStem: -10 10<40 60> 10 20<30 70> 20 20<80 90> 50 10<30 70> 70 20<30 70> 100 10<20 30 70 80> 110 10<40 60>
VStem: 10 20<30 50 60 70> 20 20<100 110> 40 20<-10 0> 60 20<100 110> 70 20<30 40 60 70>
LayerCount: 2
Fore
SplineSet
30 60 m 1x9910
 70 60 l 1
 70 70 l 1
 30 70 l 1
 30 60 l 1x9910
10 20 m 1xb9
 10 80 l 1xb9
 20 80 l 1
 20 90 l 1
 80 90 l 1
 80 80 l 1xb8a0
 90 80 l 1
 90 50 l 1
 30 50 l 1
 30 30 l 1
 70 30 l 1xd910
 70 40 l 1
 90 40 l 1
 90 20 l 1xb910
 80 20 l 1xb820
 80 10 l 1
 20 10 l 1xd8a0
 20 20 l 1xb8a0
 10 20 l 1xb9
40 -10 m 1x9840
 40 0 l 1
 60 0 l 1
 60 -10 l 1
 40 -10 l 1x9840
60 100 m 1x9c20
 60 110 l 1
 40 110 l 1x9aa0
 40 100 l 1
 20 100 l 1
 20 110 l 1x9ca0
 30 110 l 1x9d
 30 120 l 1
 70 120 l 1x9b10
 70 110 l 1x9d10
 80 110 l 1
 80 100 l 1
 60 100 l 1x9c20
EndSplineSet
Validated: 1
EndChar

StartChar: uni1EC9
Encoding: 7881 7881 194
Width: 110
GlyphClass: 2
Flags: W
HStem: 0 20<20 40 60 80> 70 20<20 40> 100 10<60 70> 110 10<40 60>
VStem: 40 20<20 70 110 120> 50 10<90 100> 60 10<100 110>
LayerCount: 2
Fore
SplineSet
40 110 m 1xd8
 40 120 l 1
 60 120 l 1xd8
 60 110 l 1xe8
 40 110 l 1xd8
60 100 m 1xe4
 60 110 l 1xe8
 70 110 l 1
 70 100 l 1xe2
 60 100 l 1xe4
20 70 m 1
 20 90 l 1
 50 90 l 1
 50 100 l 1
 60 100 l 1xe4
 60 20 l 1
 80 20 l 1
 80 0 l 1
 20 0 l 1
 20 20 l 1
 40 20 l 1
 40 70 l 1
 20 70 l 1
EndSplineSet
Validated: 5
EndChar

StartChar: uni1ECB
Encoding: 7883 7883 195
Width: 110
GlyphClass: 2
Flags: W
HStem: -10 10<40 60> 10 20<20 40 60 80> 70 20<20 40> 100 20<40 60>
VStem: 40 20<-10 0 30 70 100 120>
LayerCount: 2
Fore
SplineSet
20 70 m 1
 20 90 l 1
 60 90 l 1
 60 30 l 1
 80 30 l 1
 80 10 l 1
 20 10 l 1
 20 30 l 1
 40 30 l 1
 40 70 l 1
 20 70 l 1
40 100 m 1
 40 120 l 1
 60 120 l 1
 60 100 l 1
 40 100 l 1
40 -10 m 1
 40 0 l 1
 60 0 l 1
 60 -10 l 1
 40 -10 l 1
EndSplineSet
Validated: 1
EndChar

StartChar: uni1ECD
Encoding: 7885 7885 196
Width: 110
GlyphClass: 2
Flags: W
HStem: -10 10<40 60> 10 20<30 70> 80 20<30 70>
VStem: 10 20<30 80> 40 20<-10 0> 70 20<30 80>
CounterMasks: 1 1c
LayerCount: 2
Fore
SplineSet
30 30 m 1
 70 30 l 1
 70 80 l 1
 30 80 l 1
 30 30 l 1
10 20 m 1
 10 90 l 1
 20 90 l 1
 20 100 l 1
 80 100 l 1
 80 90 l 1
 90 90 l 1
 90 20 l 1
 80 20 l 1
 80 10 l 1
 20 10 l 1
 20 20 l 1
 10 20 l 1
40 -10 m 1
 40 0 l 1
 60 0 l 1
 60 -10 l 1
 40 -10 l 1
EndSplineSet
Validated: 1
EndChar

StartChar: uni1ECF
Encoding: 7887 7887 197
Width: 110
GlyphClass: 2
Flags: W
HStem: 0 20<30 70> 70 20<30 50 60 70> 90 21G<50 60> 100 10<60 70> 110 10<40 60>
VStem: 10 20<20 70> 40 20<110 120> 50 10<90 100> 60 10<100 110> 70 20<20 70>
LayerCount: 2
Fore
SplineSet
30 20 m 1xc440
 70 20 l 1
 70 70 l 1
 30 70 l 1
 30 20 l 1xc440
10 10 m 1
 10 80 l 1
 20 80 l 1
 20 90 l 1
 80 90 l 1xa440
 80 80 l 1
 90 80 l 1
 90 10 l 1
 80 10 l 1
 80 0 l 1
 20 0 l 1
 20 10 l 1
 10 10 l 1
40 110 m 1x8e
 40 120 l 1
 60 120 l 1x8e
 60 110 l 1x96
 40 110 l 1x8e
60 100 m 1x95
 60 110 l 1x96
 70 110 l 1
 70 100 l 1x9480
 60 100 l 1x95
50 90 m 1xd5
 50 100 l 1
 60 100 l 1
 60 90 l 1
 50 90 l 1xd5
EndSplineSet
Validated: 5
EndChar

StartChar: uni1ED1
Encoding: 7889 7889 198
Width: 110
GlyphClass: 2
Flags: W
HStem: 0 20<30 70> 70 20<30 70> 100 10<0 10 50 60 70 80> 110 10<20 40 90 100>
VStem: 0 20<100 110> 10 20<20 70> 40 20<100 110> 70 20<20 70 100 110> 80 20<110 120>
LayerCount: 2
Fore
SplineSet
70 20 m 1xc7
 70 70 l 1
 30 70 l 1
 30 20 l 1
 70 20 l 1xc7
90 10 m 1
 80 10 l 1
 80 0 l 1
 20 0 l 1
 20 10 l 1xca80
 10 10 l 1
 10 80 l 1xc6
 20 80 l 1
 20 90 l 1
 80 90 l 1
 80 80 l 1xca80
 90 80 l 1
 90 10 l 1
20 100 m 1xea
 0 100 l 1
 0 110 l 1xea
 10 110 l 1xe6
 10 120 l 1
 50 120 l 1xd6
 50 110 l 1
 60 110 l 1
 60 100 l 1
 40 100 l 1xe6
 40 110 l 1
 20 110 l 1xda
 20 100 l 1xea
70 100 m 1xe3
 70 110 l 1xe3
 80 110 l 1xe280
 80 120 l 1
 100 120 l 1
 100 110 l 1xd280
 90 110 l 1xd3
 90 100 l 1
 70 100 l 1xe3
EndSplineSet
Validated: 1
EndChar

StartChar: uni1ED3
Encoding: 7891 7891 199
Width: 110
GlyphClass: 2
Flags: W
HStem: 0 20<30 70> 70 20<30 70> 100 10<20 30 40 50 90 100> 110 10<0 10 60 80>
VStem: 0 20<110 120> 10 20<20 70 100 110> 40 20<100 110> 70 20<20 70> 80 20<100 110>
LayerCount: 2
Fore
SplineSet
30 20 m 1xc7
 70 20 l 1
 70 70 l 1
 30 70 l 1
 30 20 l 1xc7
10 10 m 1
 10 80 l 1xc6
 20 80 l 1
 20 90 l 1
 80 90 l 1
 80 80 l 1xca80
 90 80 l 1
 90 10 l 1xc3
 80 10 l 1
 80 0 l 1
 20 0 l 1
 20 10 l 1xca80
 10 10 l 1
80 100 m 1xe280
 80 110 l 1
 60 110 l 1xd280
 60 100 l 1
 40 100 l 1
 40 110 l 1
 50 110 l 1xe280
 50 120 l 1
 90 120 l 1xd3
 90 110 l 1xe3
 100 110 l 1
 100 100 l 1
 80 100 l 1xe280
30 100 m 1xe6
 10 100 l 1xe6
 10 110 l 1xd6
 0 110 l 1
 0 120 l 1
 20 120 l 1xda
 20 110 l 1xea
 30 110 l 1
 30 100 l 1xe6
EndSplineSet
Validated: 1
EndChar

StartChar: uni1ED5
Encoding: 7893 7893 200
Width: 110
GlyphClass: 2
Flags: W
HStem: 0 20<30 70> 70 20<30 70> 90 10<80 90> 100 10<0 10 50 60 90 100> 110 10<20 40 70 90>
VStem: 0 20<100 110> 10 20<20 70> 40 20<100 110> 70 20<20 70 110 120> 80 10<90 100> 90 10<100 110>
LayerCount: 2
Fore
SplineSet
30 20 m 1xc380
 70 20 l 1
 70 70 l 1
 30 70 l 1
 30 20 l 1xc380
10 10 m 1
 10 80 l 1xa3
 20 80 l 1
 20 90 l 1
 80 90 l 1
 80 80 l 1xa540
 90 80 l 1
 90 10 l 1xa120
 80 10 l 1
 80 0 l 1
 20 0 l 1
 20 10 l 1xa540
 10 10 l 1
40 100 m 1x93
 40 110 l 1
 20 110 l 1x8d
 20 100 l 1
 0 100 l 1
 0 110 l 1x95
 10 110 l 1x93
 10 120 l 1
 50 120 l 1x8b
 50 110 l 1
 60 110 l 1
 60 100 l 1
 40 100 l 1x93
70 110 m 1x8980
 70 120 l 1
 90 120 l 1x8980
 90 110 l 1x9180
 70 110 l 1x8980
90 100 m 1xa140
 90 110 l 1x9180
 100 110 l 1
 100 100 l 1x9120
 90 100 l 1xa140
80 90 m 1xa140
 80 100 l 1
 90 100 l 1
 90 90 l 1
 80 90 l 1xa140
EndSplineSet
Validated: 5
EndChar

StartChar: uni1ED6
Encoding: 7894 7894 201
Width: 110
GlyphClass: 2
Flags: W
HStem: 0 30<30 40 70 80> 0 20<40 70> 20 30<10 20 90 100> 40 30<30 40 70 80> 50 20<40 70> 80 20<40 50> 80 10<30 40 70 80> 100 10<20 30> 110 10<40 50 80 90>
VStem: 10 20<30 40> 20 20<100 110> 30 20<80 90> 60 20<80 90> 70 20<110 120> 80 20<30 40>
LayerCount: 2
Fore
SplineSet
40 20 m 1x4020
 70 20 l 1x4024
 70 30 l 1x8024
 80 30 l 1
 80 40 l 1x9002
 70 40 l 1x9004
 70 50 l 1
 40 50 l 1x0824
 40 40 l 1x1024
 30 40 l 1
 30 30 l 1x9040
 40 30 l 1x9020
 40 20 l 1x4020
10 20 m 1x2040
 10 50 l 1x2040
 20 50 l 1
 20 60 l 1x2020
 30 60 l 1
 30 70 l 1
 80 70 l 1
 80 60 l 1x1012
 90 60 l 1
 90 50 l 1x2004
 100 50 l 1
 100 20 l 1x2002
 90 20 l 1
 90 10 l 1x2004
 80 10 l 1
 80 0 l 1
 30 0 l 1
 30 10 l 1x8012
 20 10 l 1
 20 20 l 1x2020
 10 20 l 1x2040
60 80 m 1x0308
 60 90 l 1
 50 90 l 1x0318
 50 80 l 1x0418
 30 80 l 1
 30 90 l 1x0218
 40 90 l 1x0220
 40 100 l 1x0420
 50 100 l 1
 50 110 l 1x0490
 40 110 l 1
 40 100 l 1x04a0
 20 100 l 1
 20 110 l 1x0120
 30 110 l 1x0110
 30 120 l 1
 60 120 l 1
 60 110 l 1x0098
 70 110 l 1
 70 120 l 1
 90 120 l 1
 90 110 l 1x0084
 80 110 l 1x0082
 80 100 l 1x0102
 70 100 l 1
 70 90 l 1x0304
 80 90 l 1
 80 80 l 1
 60 80 l 1x0308
EndSplineSet
Validated: 5
EndChar

StartChar: uni1ED9
Encoding: 7897 7897 202
Width: 110
GlyphClass: 2
Flags: W
HStem: -10 10<40 60> 10 20<30 70> 70 20<30 70> 100 10<20 30 70 80> 110 10<40 60>
VStem: 10 20<30 70> 20 20<100 110> 40 20<-10 0> 60 20<100 110> 70 20<30 70>
LayerCount: 2
Fore
SplineSet
30 30 m 1xe440
 70 30 l 1
 70 70 l 1
 30 70 l 1
 30 30 l 1xe440
10 20 m 1
 10 80 l 1xe4
 20 80 l 1
 20 90 l 1
 80 90 l 1
 80 80 l 1xe280
 90 80 l 1
 90 20 l 1xe040
 80 20 l 1
 80 10 l 1
 20 10 l 1
 20 20 l 1xe280
 10 20 l 1
40 -10 m 1xe1
 40 0 l 1
 60 0 l 1
 60 -10 l 1
 40 -10 l 1xe1
60 100 m 1xf080
 60 110 l 1
 40 110 l 1xea80
 40 100 l 1
 20 100 l 1
 20 110 l 1xf280
 30 110 l 1xf4
 30 120 l 1
 70 120 l 1xec40
 70 110 l 1xf440
 80 110 l 1
 80 100 l 1
 60 100 l 1xf080
EndSplineSet
Validated: 1
EndChar

StartChar: uni1EDB
Encoding: 7899 7899 203
Width: 110
GlyphClass: 2
Flags: W
HStem: 0 20<30 70> 70 20<30 70> 100 10<30 50> 110 10<60 80>
VStem: 10 20<20 70> 70 20<20 70> 80 20<80 100>
LayerCount: 2
Fore
SplineSet
10 10 m 1xea
 10 80 l 1
 20 80 l 1
 20 90 l 1
 70 90 l 1
 70 80 l 1xec
 80 80 l 1
 80 100 l 1
 100 100 l 1
 100 70 l 1xea
 90 70 l 1
 90 10 l 1xec
 80 10 l 1
 80 0 l 1
 20 0 l 1
 20 10 l 1
 10 10 l 1xea
30 20 m 1
 70 20 l 1
 70 70 l 1
 30 70 l 1
 30 20 l 1
30 100 m 1
 30 110 l 1
 50 110 l 1xea
 50 120 l 1
 80 120 l 1
 80 110 l 1
 60 110 l 1xda
 60 100 l 1
 30 100 l 1
EndSplineSet
Validated: 1
EndChar

StartChar: uni1EDD
Encoding: 7901 7901 204
Width: 110
GlyphClass: 2
Flags: W
HStem: 0 20<30 70> 70 20<30 70> 100 10<50 70> 110 10<20 40>
VStem: 10 20<20 70> 70 20<20 70> 80 20<80 100>
LayerCount: 2
Fore
SplineSet
10 10 m 1xea
 10 80 l 1
 20 80 l 1
 20 90 l 1
 70 90 l 1
 70 80 l 1xec
 80 80 l 1
 80 100 l 1
 100 100 l 1
 100 70 l 1xea
 90 70 l 1
 90 10 l 1xec
 80 10 l 1
 80 0 l 1
 20 0 l 1
 20 10 l 1
 10 10 l 1xea
30 20 m 1
 70 20 l 1
 70 70 l 1
 30 70 l 1
 30 20 l 1
70 100 m 1
 40 100 l 1xec
 40 110 l 1
 20 110 l 1
 20 120 l 1
 50 120 l 1xdc
 50 110 l 1
 70 110 l 1
 70 100 l 1
EndSplineSet
Validated: 1
EndChar

StartChar: uni1EDF
Encoding: 7903 7903 205
Width: 110
GlyphClass: 2
Flags: W
HStem: 0 20<30 70> 70 30<50 60 90 100> 70 20<30 50 60 70> 90 21G<50 60> 100 10<60 70> 110 10<40 60>
VStem: 10 20<20 70> 40 20<110 120> 50 10<90 100> 60 10<100 110> 70 20<20 70> 80 20<80 100>
LayerCount: 2
Fore
SplineSet
10 10 m 1xc210
 10 80 l 1
 20 80 l 1
 20 90 l 1x9210
 70 90 l 1
 70 80 l 1xa220
 80 80 l 1
 80 100 l 1xaa10
 100 100 l 1
 100 70 l 1xc210
 90 70 l 1
 90 10 l 1xc220
 80 10 l 1
 80 0 l 1
 20 0 l 1
 20 10 l 1
 10 10 l 1xc210
30 20 m 1
 70 20 l 1
 70 70 l 1
 30 70 l 1xa220
 30 20 l 1
40 110 m 1x87
 40 120 l 1
 60 120 l 1x87
 60 110 l 1x8b
 40 110 l 1x87
60 100 m 1xc280
 60 110 l 1x8b
 70 110 l 1
 70 100 l 1x8a40
 60 100 l 1xc280
50 90 m 1xa280
 50 100 l 1
 60 100 l 1xc280
 60 90 l 1
 50 90 l 1xa280
EndSplineSet
Validated: 5
EndChar

StartChar: uni1EE3
Encoding: 7907 7907 206
Width: 110
GlyphClass: 2
Flags: W
HStem: -10 10<40 60> 10 20<30 70> 80 20<30 70>
VStem: 10 20<30 80> 40 20<-10 0> 70 20<30 80> 80 20<90 110>
LayerCount: 2
Fore
SplineSet
10 20 m 1xfa
 10 90 l 1
 20 90 l 1
 20 100 l 1
 70 100 l 1
 70 90 l 1xfc
 80 90 l 1
 80 110 l 1
 100 110 l 1
 100 80 l 1xfa
 90 80 l 1
 90 20 l 1xfc
 80 20 l 1
 80 10 l 1
 20 10 l 1
 20 20 l 1
 10 20 l 1xfa
30 30 m 1
 70 30 l 1
 70 80 l 1
 30 80 l 1
 30 30 l 1
40 -10 m 1
 40 0 l 1
 60 0 l 1
 60 -10 l 1
 40 -10 l 1
EndSplineSet
Validated: 1
EndChar

StartChar: uni1EE7
Encoding: 7911 7911 207
Width: 110
GlyphClass: 2
Flags: W
HStem: 0 20<30 60> 10 20<60 70> 70 20G<10 30 70 90> 90 10<40 50> 100 10<50 60> 110 10<30 50>
VStem: 10 20<20 90> 30 20<110 120> 40 10<90 100> 50 10<100 110> 70 20<0 10 30 90>
LayerCount: 2
Fore
SplineSet
10 90 m 1x6260
 30 90 l 1
 30 20 l 1
 60 20 l 1xa260
 60 30 l 1
 70 30 l 1x4260
 70 90 l 1
 90 90 l 1
 90 0 l 1
 70 0 l 1xa260
 70 10 l 1
 60 10 l 1x4260
 60 0 l 1
 20 0 l 1x8260
 20 10 l 1
 10 10 l 1
 10 90 l 1x6260
30 110 m 1x0520
 30 120 l 1
 50 120 l 1x0520
 50 110 l 1x0920
 30 110 l 1x0520
50 100 m 1x10a0
 50 110 l 1x0920
 60 110 l 1
 60 100 l 1x0860
 50 100 l 1x10a0
40 90 m 1x10a0
 40 100 l 1
 50 100 l 1
 50 90 l 1
 40 90 l 1x10a0
EndSplineSet
Validated: 5
EndChar

StartChar: uni1EE9
Encoding: 7913 7913 208
Width: 110
GlyphClass: 2
Flags: W
HStem: 0 20<20 50> 10 20<50 60> 60 20<80 90> 70 20G<0 20 60 80> 100 10<20 40> 110 10<50 70>
VStem: 0 20<20 90> 60 20<0 10 30 60 80 90> 90 10<80 100>
LayerCount: 2
Fore
SplineSet
0 90 m 1x5380
 20 90 l 1
 20 20 l 1
 50 20 l 1x9380
 50 30 l 1
 60 30 l 1x4380
 60 90 l 1
 80 90 l 1
 80 0 l 1
 60 0 l 1x9380
 60 10 l 1
 50 10 l 1x4380
 50 0 l 1
 10 0 l 1x8380
 10 10 l 1
 0 10 l 1
 0 90 l 1x5380
80 60 m 1x2380
 80 80 l 1
 90 80 l 1x2380
 90 100 l 1
 100 100 l 1
 100 70 l 1
 90 70 l 1x1b80
 90 60 l 1
 80 60 l 1x2380
20 100 m 1x0b80
 20 110 l 1
 40 110 l 1x0b80
 40 120 l 1
 70 120 l 1
 70 110 l 1
 50 110 l 1x0780
 50 100 l 1
 20 100 l 1x0b80
EndSplineSet
Validated: 5
EndChar

StartChar: uni1EED
Encoding: 7917 7917 209
Width: 110
GlyphClass: 2
Flags: W
HStem: 0 20<20 50> 10 20<50 60> 60 20<80 90> 70 20G<0 20 60 80> 90 10<40 50> 100 10<50 60> 110 10<30 50>
VStem: 0 20<20 90> 30 20<110 120> 40 10<90 100> 50 10<100 110> 60 20<0 10 30 60 80 90> 90 10<80 100>
LayerCount: 2
Fore
SplineSet
0 90 m 1x5128
 20 90 l 1
 20 20 l 1
 50 20 l 1x9128
 50 30 l 1x4128
 60 30 l 1x4118
 60 90 l 1
 80 90 l 1
 80 0 l 1
 60 0 l 1x9118
 60 10 l 1x4118
 50 10 l 1x4128
 50 0 l 1
 10 0 l 1x8128
 10 10 l 1
 0 10 l 1
 0 90 l 1x5128
80 60 m 1x2118
 80 80 l 1
 90 80 l 1x2118
 90 100 l 1
 100 100 l 1
 100 70 l 1
 90 70 l 1x1518
 90 60 l 1
 80 60 l 1x2118
30 110 m 1x0388
 30 120 l 1
 50 120 l 1x0388
 50 110 l 1x0588
 30 110 l 1x0388
50 100 m 1x0948
 50 110 l 1x0588
 60 110 l 1
 60 100 l 1x0528
 50 100 l 1x0948
40 90 m 1x0948
 40 100 l 1
 50 100 l 1
 50 90 l 1
 40 90 l 1x0948
EndSplineSet
Validated: 5
EndChar

StartChar: uni1EEF
Encoding: 7919 7919 210
Width: 110
GlyphClass: 2
Flags: W
HStem: 0 20<20 50> 10 20<50 60> 60 20<80 90> 70 20G<0 20 60 80> 100 10<10 20 50 60> 110 10<30 40 70 80>
VStem: 0 20<20 90> 10 20<100 110> 60 20<0 10 30 60 80 90 110 120> 90 10<80 100>
LayerCount: 2
Fore
SplineSet
0 90 m 1x52c0
 20 90 l 1
 20 20 l 1
 50 20 l 1x92c0
 50 30 l 1
 60 30 l 1x42c0
 60 90 l 1
 80 90 l 1
 80 0 l 1
 60 0 l 1x92c0
 60 10 l 1
 50 10 l 1x42c0
 50 0 l 1
 10 0 l 1x81c0
 10 10 l 1x41c0
 0 10 l 1
 0 90 l 1x52c0
80 60 m 1x20c0
 80 80 l 1
 90 80 l 1x20c0
 90 100 l 1
 100 100 l 1
 100 70 l 1
 90 70 l 1x18c0
 90 60 l 1
 80 60 l 1x20c0
40 100 m 1x0ac0
 40 110 l 1
 30 110 l 1x05c0
 30 100 l 1
 10 100 l 1
 10 110 l 1x09c0
 20 110 l 1x0ac0
 20 120 l 1
 50 120 l 1x06c0
 50 110 l 1
 60 110 l 1x0ac0
 60 120 l 1
 80 120 l 1
 80 110 l 1
 70 110 l 1x06c0
 70 100 l 1
 40 100 l 1x0ac0
EndSplineSet
Validated: 5
EndChar

StartChar: uni1EF1
Encoding: 7921 7921 211
Width: 110
GlyphClass: 2
Flags: W
HStem: -10 10<30 50> 10 20<20 50> 20 20<50 60> 60 20<80 90> 70 20G<0 20 60 80>
VStem: 0 20<30 90> 30 20<-10 0> 60 20<10 20 40 60 80 90> 90 10<80 100>
LayerCount: 2
Fore
SplineSet
0 90 m 1xaf80
 20 90 l 1
 20 30 l 1
 50 30 l 1xcf80
 50 40 l 1
 60 40 l 1xa780
 60 90 l 1
 80 90 l 1
 80 10 l 1
 60 10 l 1xcf80
 60 20 l 1
 50 20 l 1xa780
 50 10 l 1
 10 10 l 1xc780
 10 20 l 1
 0 20 l 1
 0 90 l 1xaf80
80 60 m 1x9780
 80 80 l 1
 90 80 l 1x9780
 90 100 l 1
 100 100 l 1
 100 70 l 1
 90 70 l 1x8f80
 90 60 l 1
 80 60 l 1x9780
30 -10 m 1
 30 0 l 1
 50 0 l 1
 50 -10 l 1
 30 -10 l 1
EndSplineSet
Validated: 5
EndChar

StartChar: ellipsis
Encoding: 8230 8230 212
Width: 110
GlyphClass: 2
Flags: W
HStem: 60 20<0 20 40 60 80 100>
VStem: 0 20<60 80> 40 20<60 80> 80 20<60 80>
CounterMasks: 1 70
LayerCount: 2
Fore
SplineSet
0 60 m 1
 0 80 l 1
 20 80 l 1
 20 60 l 1
 0 60 l 1
40 60 m 1
 40 80 l 1
 60 80 l 1
 60 60 l 1
 40 60 l 1
80 60 m 1
 80 80 l 1
 100 80 l 1
 100 60 l 1
 80 60 l 1
EndSplineSet
Validated: 1
EndChar

StartChar: uni2070
Encoding: 8304 8304 213
Width: 110
GlyphClass: 2
Flags: W
HStem: 50 20<40 60> 100 20<40 60>
VStem: 20 20<70 100> 60 20<70 100>
LayerCount: 2
Fore
SplineSet
40 70 m 1
 60 70 l 1
 60 100 l 1
 40 100 l 1
 40 70 l 1
20 60 m 1
 20 110 l 1
 30 110 l 1
 30 120 l 1
 70 120 l 1
 70 110 l 1
 80 110 l 1
 80 60 l 1
 70 60 l 1
 70 50 l 1
 30 50 l 1
 30 60 l 1
 20 60 l 1
EndSplineSet
Validated: 1
AlternateSubs2: "'ssty' Math Script Style lookup 4 subtable" zero.superior.ssty zero.superior.ssty2
AlternateSubs2: "'aalt' Access All Alternates lookup 1 subtable" zero.superior.ssty zero.superior.ssty2
EndChar

StartChar: uni2074
Encoding: 8308 8308 214
Width: 110
GlyphClass: 2
Flags: W
HStem: 60 20<40 50 70 80> 100 20<40 50>
VStem: 20 20<80 90> 30 10<90 100> 50 20<50 60 80 100>
LayerCount: 2
Fore
SplineSet
40 100 m 1xd8
 40 80 l 1xe8
 50 80 l 1
 50 100 l 1
 40 100 l 1xd8
30 90 m 1xd8
 30 110 l 1
 40 110 l 1
 40 120 l 1xd8
 70 120 l 1
 70 80 l 1
 80 80 l 1
 80 60 l 1
 70 60 l 1
 70 50 l 1
 50 50 l 1
 50 60 l 1
 20 60 l 1
 20 90 l 1xe8
 30 90 l 1xd8
EndSplineSet
AlternateSubs2: "'ssty' Math Script Style lookup 4 subtable" four.superior.ssty four.superior.ssty2
AlternateSubs2: "'aalt' Access All Alternates lookup 1 subtable" four.superior.ssty four.superior.ssty2
EndChar

StartChar: uni2075
Encoding: 8309 8309 215
Width: 110
GlyphClass: 2
Flags: W
HStem: 50 20<20 60> 60 20<70 80> 80 10<40 60> 100 20<40 80>
VStem: 20 20<90 100> 60 20<70 80>
LayerCount: 2
Fore
SplineSet
20 70 m 1x9c
 60 70 l 1
 60 80 l 1
 20 80 l 1
 20 120 l 1
 80 120 l 1
 80 100 l 1
 40 100 l 1
 40 90 l 1
 70 90 l 1xbc
 70 80 l 1
 80 80 l 1
 80 60 l 1
 70 60 l 1x5c
 70 50 l 1
 20 50 l 1
 20 70 l 1x9c
EndSplineSet
Validated: 1
AlternateSubs2: "'ssty' Math Script Style lookup 4 subtable" five.superior.ssty five.superior.ssty2
AlternateSubs2: "'aalt' Access All Alternates lookup 1 subtable" five.superior.ssty five.superior.ssty2
EndChar

StartChar: uni2076
Encoding: 8310 8310 216
Width: 110
GlyphClass: 2
Flags: W
HStem: 50 20<40 60> 60 20<70 80> 80 10<40 60> 100 20<40 70>
VStem: 20 20<70 80 90 100> 60 20<70 80>
LayerCount: 2
Fore
SplineSet
70 100 m 1x5c
 40 100 l 1
 40 90 l 1
 70 90 l 1x3c
 70 80 l 1
 80 80 l 1
 80 60 l 1
 70 60 l 1x5c
 70 50 l 1
 30 50 l 1x9c
 30 60 l 1
 20 60 l 1
 20 110 l 1
 30 110 l 1
 30 120 l 1
 70 120 l 1
 70 100 l 1x5c
40 70 m 1xbc
 60 70 l 1
 60 80 l 1
 40 80 l 1
 40 70 l 1xbc
EndSplineSet
Validated: 1
AlternateSubs2: "'ssty' Math Script Style lookup 4 subtable" six.superior.ssty six.superior.ssty2
AlternateSubs2: "'aalt' Access All Alternates lookup 1 subtable" six.superior.ssty six.superior.ssty2
EndChar

StartChar: uni2077
Encoding: 8311 8311 217
Width: 110
GlyphClass: 2
Flags: W
HStem: 50 20<30 40> 100 20<10 50>
VStem: 30 20<50 70> 40 20<70 90> 50 20<90 100>
LayerCount: 2
Fore
SplineSet
10 100 m 1xc8
 10 120 l 1
 70 120 l 1
 70 90 l 1xc8
 60 90 l 1
 60 70 l 1xd0
 50 70 l 1
 50 50 l 1
 30 50 l 1
 30 70 l 1xe0
 40 70 l 1
 40 90 l 1xd0
 50 90 l 1
 50 100 l 1
 10 100 l 1xc8
EndSplineSet
Validated: 1
AlternateSubs2: "'ssty' Math Script Style lookup 4 subtable" seven.superior.ssty seven.superior.ssty2
AlternateSubs2: "'aalt' Access All Alternates lookup 1 subtable" seven.superior.ssty seven.superior.ssty2
EndChar

StartChar: uni2078
Encoding: 8312 8312 218
Width: 110
GlyphClass: 2
Flags: W
HStem: 50 20<40 60> 60 20<20 30 70 80> 80 10<40 60> 90 20<20 30 70 80> 100 20<40 60>
VStem: 20 20<70 80 90 100> 30 40<50 60 80 90 110 120> 60 20<70 80 90 100>
LayerCount: 2
Fore
SplineSet
20 60 m 1x44
 20 80 l 1x44
 30 80 l 1
 30 90 l 1x52
 20 90 l 1
 20 110 l 1x54
 30 110 l 1x52
 30 120 l 1
 70 120 l 1x0a
 70 110 l 1x12
 80 110 l 1
 80 90 l 1x11
 70 90 l 1
 70 80 l 1x52
 80 80 l 1
 80 60 l 1x51
 70 60 l 1x52
 70 50 l 1
 30 50 l 1x82
 30 60 l 1x42
 20 60 l 1x44
40 90 m 1x2d
 60 90 l 1
 60 100 l 1
 40 100 l 1
 40 90 l 1x2d
40 70 m 1xa5
 60 70 l 1
 60 80 l 1
 40 80 l 1
 40 70 l 1xa5
EndSplineSet
Validated: 1
AlternateSubs2: "'ssty' Math Script Style lookup 4 subtable" eight.superior.ssty eight.superior.ssty2
AlternateSubs2: "'aalt' Access All Alternates lookup 1 subtable" eight.superior.ssty eight.superior.ssty2
EndChar

StartChar: uni2079
Encoding: 8313 8313 219
Width: 110
GlyphClass: 2
Flags: W
HStem: 50 20<30 60> 80 10<40 60> 90 20<20 30> 100 20<40 60>
VStem: 20 20<90 100> 60 20<70 80 90 100>
LayerCount: 2
Fore
SplineSet
30 70 m 1xac
 60 70 l 1
 60 80 l 1
 30 80 l 1xcc
 30 90 l 1
 20 90 l 1
 20 110 l 1
 30 110 l 1xac
 30 120 l 1
 70 120 l 1x9c
 70 110 l 1
 80 110 l 1
 80 60 l 1
 70 60 l 1
 70 50 l 1
 30 50 l 1
 30 70 l 1xac
60 100 m 1xdc
 40 100 l 1
 40 90 l 1
 60 90 l 1
 60 100 l 1xdc
EndSplineSet
Validated: 1
AlternateSubs2: "'ssty' Math Script Style lookup 4 subtable" nine.superior.ssty nine.superior.ssty2
AlternateSubs2: "'aalt' Access All Alternates lookup 1 subtable" nine.superior.ssty nine.superior.ssty2
EndChar

StartChar: uni2080
Encoding: 8320 8320 220
Width: 110
GlyphClass: 2
Flags: W
HStem: -10 20<40 60> 40 20<40 60>
VStem: 20 20<10 40> 60 20<10 40>
LayerCount: 2
Fore
SplineSet
20 0 m 1
 20 50 l 1
 30 50 l 1
 30 60 l 1
 70 60 l 1
 70 50 l 1
 80 50 l 1
 80 0 l 1
 70 0 l 1
 70 -10 l 1
 30 -10 l 1
 30 0 l 1
 20 0 l 1
40 10 m 1
 60 10 l 1
 60 40 l 1
 40 40 l 1
 40 10 l 1
EndSplineSet
AlternateSubs2: "'ssty' Math Script Style lookup 4 subtable" zero.inferior.ssty zero.inferior.ssty2
AlternateSubs2: "'aalt' Access All Alternates lookup 1 subtable" zero.inferior.ssty zero.inferior.ssty2
EndChar

StartChar: uni2081
Encoding: 8321 8321 221
Width: 110
GlyphClass: 2
Flags: W
HStem: -10 21G<40 60> 30 20<20 40>
VStem: 40 20<-10 30 50 60>
LayerCount: 2
Fore
SplineSet
20 30 m 1
 20 50 l 1
 40 50 l 1
 40 60 l 1
 60 60 l 1
 60 -10 l 1
 40 -10 l 1
 40 30 l 1
 20 30 l 1
EndSplineSet
AlternateSubs2: "'ssty' Math Script Style lookup 4 subtable" one.inferior.ssty one.inferior.ssty2
AlternateSubs2: "'aalt' Access All Alternates lookup 1 subtable" one.inferior.ssty one.inferior.ssty2
EndChar

StartChar: uni2082
Encoding: 8322 8322 222
Width: 110
GlyphClass: 2
Flags: W
HStem: -10 20<20 30 50 80> 20 10<50 60> 30 20<70 80> 40 20<20 60>
VStem: 30 20<10 20> 60 20<30 40>
LayerCount: 2
Fore
SplineSet
20 40 m 1xdc
 20 60 l 1
 70 60 l 1xdc
 70 50 l 1
 80 50 l 1
 80 30 l 1
 70 30 l 1xac
 70 20 l 1
 50 20 l 1
 50 10 l 1
 80 10 l 1
 80 -10 l 1
 20 -10 l 1
 20 10 l 1
 30 10 l 1
 30 20 l 1
 40 20 l 1xcc
 40 30 l 1xac
 60 30 l 1
 60 40 l 1
 20 40 l 1xdc
EndSplineSet
Validated: 1
AlternateSubs2: "'ssty' Math Script Style lookup 4 subtable" two.inferior.ssty two.inferior.ssty2
AlternateSubs2: "'aalt' Access All Alternates lookup 1 subtable" two.inferior.ssty two.inferior.ssty2
EndChar

StartChar: uni2083
Encoding: 8323 8323 223
Width: 110
GlyphClass: 2
Flags: W
HStem: -10 20<20 60> 0 20<70 80> 20 10<30 60> 30 20<70 80> 40 20<20 60>
VStem: 60 20<10 20 30 40>
LayerCount: 2
Fore
SplineSet
20 40 m 1xac
 20 60 l 1
 70 60 l 1xac
 70 50 l 1
 80 50 l 1
 80 30 l 1
 70 30 l 1
 70 20 l 1
 80 20 l 1
 80 0 l 1
 70 0 l 1x54
 70 -10 l 1
 20 -10 l 1
 20 10 l 1
 60 10 l 1
 60 20 l 1
 30 20 l 1
 30 30 l 1
 60 30 l 1
 60 40 l 1
 20 40 l 1xac
EndSplineSet
Validated: 1
AlternateSubs2: "'ssty' Math Script Style lookup 4 subtable" three.inferior.ssty three.inferior.ssty2
AlternateSubs2: "'aalt' Access All Alternates lookup 1 subtable" three.inferior.ssty three.inferior.ssty2
EndChar

StartChar: uni2084
Encoding: 8324 8324 224
Width: 110
GlyphClass: 2
Flags: W
HStem: -10 21G<50 70> 0 20<40 50 70 80> 40 20<40 50>
VStem: 20 20<20 30> 30 10<30 40> 50 20<-10 0 20 40>
LayerCount: 2
Fore
SplineSet
40 40 m 1x6c
 40 20 l 1x74
 50 20 l 1
 50 40 l 1
 40 40 l 1x6c
30 30 m 1x6c
 30 50 l 1
 40 50 l 1
 40 60 l 1
 70 60 l 1
 70 20 l 1
 80 20 l 1
 80 0 l 1
 70 0 l 1x6c
 70 -10 l 1
 50 -10 l 1xac
 50 0 l 1
 20 0 l 1
 20 30 l 1x74
 30 30 l 1x6c
EndSplineSet
AlternateSubs2: "'ssty' Math Script Style lookup 4 subtable" four.inferior.ssty four.inferior.ssty2
AlternateSubs2: "'aalt' Access All Alternates lookup 1 subtable" four.inferior.ssty four.inferior.ssty2
EndChar

StartChar: uni2085
Encoding: 8325 8325 225
Width: 110
GlyphClass: 2
Flags: W
HStem: -10 20<20 60> 0 20<70 80> 20 10<40 60> 40 20<40 80>
VStem: 20 20<30 40> 60 20<10 20>
LayerCount: 2
Fore
SplineSet
20 10 m 1x9c
 60 10 l 1
 60 20 l 1
 20 20 l 1
 20 60 l 1
 80 60 l 1
 80 40 l 1
 40 40 l 1
 40 30 l 1
 70 30 l 1xbc
 70 20 l 1
 80 20 l 1
 80 0 l 1
 70 0 l 1x5c
 70 -10 l 1
 20 -10 l 1
 20 10 l 1x9c
EndSplineSet
Validated: 1
AlternateSubs2: "'ssty' Math Script Style lookup 4 subtable" five.inferior.ssty five.inferior.ssty2
AlternateSubs2: "'aalt' Access All Alternates lookup 1 subtable" five.inferior.ssty five.inferior.ssty2
EndChar

StartChar: uni2086
Encoding: 8326 8326 226
Width: 110
GlyphClass: 2
Flags: W
HStem: -10 20<40 60> 0 20<70 80> 20 10<40 60> 40 20<40 70>
VStem: 20 20<10 20 30 40> 60 20<10 20>
LayerCount: 2
Fore
SplineSet
70 40 m 1x5c
 40 40 l 1
 40 30 l 1
 70 30 l 1x3c
 70 20 l 1
 80 20 l 1
 80 0 l 1
 70 0 l 1x5c
 70 -10 l 1
 30 -10 l 1x9c
 30 0 l 1
 20 0 l 1
 20 50 l 1
 30 50 l 1
 30 60 l 1
 70 60 l 1
 70 40 l 1x5c
40 10 m 1xbc
 60 10 l 1
 60 20 l 1
 40 20 l 1
 40 10 l 1xbc
EndSplineSet
Validated: 1
AlternateSubs2: "'ssty' Math Script Style lookup 4 subtable" six.inferior.ssty six.inferior.ssty2
AlternateSubs2: "'aalt' Access All Alternates lookup 1 subtable" six.inferior.ssty six.inferior.ssty2
EndChar

StartChar: uni2087
Encoding: 8327 8327 227
Width: 110
GlyphClass: 2
Flags: W
HStem: -10 20<30 40> 40 20<10 50>
VStem: 30 20<-10 10> 40 20<10 30> 50 20<30 40>
LayerCount: 2
Fore
SplineSet
10 40 m 1xc8
 10 60 l 1
 70 60 l 1
 70 30 l 1xc8
 60 30 l 1
 60 10 l 1xd0
 50 10 l 1
 50 -10 l 1
 30 -10 l 1
 30 10 l 1xe0
 40 10 l 1
 40 30 l 1xd0
 50 30 l 1
 50 40 l 1
 10 40 l 1xc8
EndSplineSet
Validated: 1
AlternateSubs2: "'ssty' Math Script Style lookup 4 subtable" seven.inferior.ssty seven.inferior.ssty2
AlternateSubs2: "'aalt' Access All Alternates lookup 1 subtable" seven.inferior.ssty seven.inferior.ssty2
EndChar

StartChar: uni2088
Encoding: 8328 8328 228
Width: 110
GlyphClass: 2
Flags: W
HStem: -10 20<40 60> 0 20<20 30 70 80> 20 10<40 60> 30 20<20 30 70 80> 40 20<40 60>
VStem: 20 20<10 20 30 40> 30 40<-10 0 20 30 50 60> 60 20<10 20 30 40>
LayerCount: 2
Fore
SplineSet
20 0 m 1x44
 20 20 l 1x44
 30 20 l 1
 30 30 l 1x52
 20 30 l 1
 20 50 l 1x54
 30 50 l 1x52
 30 60 l 1
 70 60 l 1x0a
 70 50 l 1x12
 80 50 l 1
 80 30 l 1x11
 70 30 l 1
 70 20 l 1x52
 80 20 l 1
 80 0 l 1x51
 70 0 l 1x52
 70 -10 l 1
 30 -10 l 1x82
 30 0 l 1x42
 20 0 l 1x44
40 30 m 1x2d
 60 30 l 1
 60 40 l 1
 40 40 l 1
 40 30 l 1x2d
40 10 m 1xa5
 60 10 l 1
 60 20 l 1
 40 20 l 1
 40 10 l 1xa5
EndSplineSet
Validated: 1
AlternateSubs2: "'ssty' Math Script Style lookup 4 subtable" eight.inferior.ssty eight.inferior.ssty2
AlternateSubs2: "'aalt' Access All Alternates lookup 1 subtable" eight.inferior.ssty eight.inferior.ssty2
EndChar

StartChar: uni2089
Encoding: 8329 8329 229
Width: 110
GlyphClass: 2
Flags: W
HStem: -10 20<30 60> 20 10<40 60> 30 20<20 30> 40 20<40 60>
VStem: 20 20<30 40> 60 20<10 20 30 40>
LayerCount: 2
Fore
SplineSet
30 10 m 1xac
 60 10 l 1
 60 20 l 1
 30 20 l 1xcc
 30 30 l 1
 20 30 l 1
 20 50 l 1
 30 50 l 1xac
 30 60 l 1
 70 60 l 1x9c
 70 50 l 1
 80 50 l 1
 80 0 l 1
 70 0 l 1
 70 -10 l 1
 30 -10 l 1
 30 10 l 1xac
60 40 m 1xdc
 40 40 l 1
 40 30 l 1
 60 30 l 1
 60 40 l 1xdc
EndSplineSet
Validated: 1
AlternateSubs2: "'ssty' Math Script Style lookup 4 subtable" nine.inferior.ssty nine.inferior.ssty2
AlternateSubs2: "'aalt' Access All Alternates lookup 1 subtable" nine.inferior.ssty nine.inferior.ssty2
EndChar

StartChar: uni208B
Encoding: 8331 8331 230
Width: 110
GlyphClass: 2
Flags: W
HStem: 20 10<20 70>
LayerCount: 2
Fore
SplineSet
20 20 m 1
 20 30 l 1
 70 30 l 1
 70 20 l 1
 20 20 l 1
EndSplineSet
Validated: 1
EndChar

StartChar: uni208D
Encoding: 8333 8333 231
Width: 110
GlyphClass: 2
Flags: W
HStem: -10 20<50 70> 40 20<50 70>
VStem: 30 20<10 40> 40 30<-10 0 50 60>
LayerCount: 2
Fore
SplineSet
70 -10 m 1xd0
 40 -10 l 1
 40 0 l 1xd0
 30 0 l 1
 30 50 l 1xe0
 40 50 l 1
 40 60 l 1
 70 60 l 1
 70 40 l 1xd0
 50 40 l 1
 50 10 l 1xe0
 70 10 l 1
 70 -10 l 1xd0
EndSplineSet
Validated: 1
EndChar

StartChar: uni208E
Encoding: 8334 8334 232
Width: 110
GlyphClass: 2
Flags: W
HStem: -10 20<40 60> 40 20<40 60>
VStem: 40 30<-10 0 50 60> 60 20<10 40>
LayerCount: 2
Fore
SplineSet
40 -10 m 1xe0
 40 10 l 1xe0
 60 10 l 1
 60 40 l 1xd0
 40 40 l 1
 40 60 l 1
 70 60 l 1
 70 50 l 1xe0
 80 50 l 1
 80 0 l 1xd0
 70 0 l 1
 70 -10 l 1
 40 -10 l 1xe0
EndSplineSet
Validated: 1
EndChar

StartChar: uni2091
Encoding: 8337 8337 233
Width: 110
GlyphClass: 2
Flags: W
HStem: -10 10<30 70> 10 20<60 70> 10 10<30 50> 30 10<30 50>
VStem: 10 20<0 10 20 30> 50 20<20 30>
LayerCount: 2
Fore
SplineSet
10 0 m 1xac
 10 30 l 1
 20 30 l 1
 20 40 l 1
 60 40 l 1xbc
 60 30 l 1
 70 30 l 1
 70 10 l 1xcc
 30 10 l 1
 30 0 l 1
 70 0 l 1
 70 -10 l 1
 20 -10 l 1
 20 0 l 1
 10 0 l 1xac
30 20 m 1
 50 20 l 1
 50 30 l 1
 30 30 l 1
 30 20 l 1
EndSplineSet
Validated: 1
AlternateSubs2: "'ssty' Math Script Style lookup 4 subtable" einferior.ssty einferior.ssty2
AlternateSubs2: "'aalt' Access All Alternates lookup 1 subtable" einferior.ssty einferior.ssty2
EndChar

StartChar: uni2095
Encoding: 8341 8341 234
AltUni2: 00e01b.ffffffff.0
Width: 110
GlyphClass: 2
Flags: W
HStem: -10 21G<10 30 50 70> 20 20<30 50>
VStem: 10 20<-10 20 40 60> 50 20<-10 20>
LayerCount: 2
Fore
SplineSet
70 -10 m 1
 50 -10 l 1
 50 20 l 1
 30 20 l 1
 30 -10 l 1
 10 -10 l 1
 10 60 l 1
 30 60 l 1
 30 40 l 1
 60 40 l 1
 60 30 l 1
 70 30 l 1
 70 -10 l 1
EndSplineSet
AlternateSubs2: "'ssty' Math Script Style lookup 4 subtable" hinferior.ssty hinferior.ssty2 caltHGk.ssty caltHGk.ssty2
AlternateSubs2: "'aalt' Access All Alternates lookup 1 subtable" hinferior.ssty hinferior.ssty2 caltHGk.ssty caltHGk.ssty2
EndChar

StartChar: uni2098
Encoding: 8344 8344 235
Width: 110
GlyphClass: 2
Flags: W
HStem: -10 21G<0 20 40 60 80 100> 30 20<20 40 60 80>
VStem: 0 20<-10 30> 0 10<40 50> 40 20<-10 30> 80 20<-10 30>
LayerCount: 2
Fore
SplineSet
60 -10 m 1xec
 40 -10 l 1
 40 30 l 1
 20 30 l 1
 20 -10 l 1
 0 -10 l 1xec
 0 50 l 1
 10 50 l 1
 10 40 l 1xdc
 20 40 l 1
 20 50 l 1
 50 50 l 1
 50 40 l 1
 60 40 l 1
 60 50 l 1
 90 50 l 1
 90 40 l 1
 100 40 l 1
 100 -10 l 1
 80 -10 l 1
 80 30 l 1
 60 30 l 1
 60 -10 l 1xec
EndSplineSet
Validated: 1
AlternateSubs2: "'ssty' Math Script Style lookup 4 subtable" minferior.ssty minferior.ssty2
AlternateSubs2: "'aalt' Access All Alternates lookup 1 subtable" minferior.ssty minferior.ssty2
EndChar

StartChar: uni2099
Encoding: 8345 8345 236
Width: 110
GlyphClass: 2
Flags: W
HStem: -10 21G<10 30 60 80> 20 20<30 40> 30 20<40 60>
VStem: 10 20<-10 20 40 50> 60 20<-10 30>
LayerCount: 2
Fore
SplineSet
80 -10 m 1xd8
 60 -10 l 1
 60 30 l 1
 40 30 l 1xb8
 40 20 l 1
 30 20 l 1xd8
 30 -10 l 1
 10 -10 l 1
 10 50 l 1
 30 50 l 1xb8
 30 40 l 1
 40 40 l 1xd8
 40 50 l 1
 70 50 l 1xb8
 70 40 l 1
 80 40 l 1
 80 -10 l 1xd8
EndSplineSet
Validated: 1
AlternateSubs2: "'ssty' Math Script Style lookup 4 subtable" ninferior.ssty ninferior.ssty2
AlternateSubs2: "'aalt' Access All Alternates lookup 1 subtable" ninferior.ssty ninferior.ssty2
EndChar

StartChar: uni209A
Encoding: 8346 8346 237
Width: 110
GlyphClass: 2
Flags: W
HStem: -10 21G<20 40> 0 20<40 60> 30 20<40 60>
VStem: 20 20<-10 0 20 30> 60 20<20 30>
LayerCount: 2
Fore
SplineSet
40 30 m 1x78
 40 20 l 1
 60 20 l 1
 60 30 l 1
 40 30 l 1x78
20 -10 m 1xb8
 20 50 l 1
 70 50 l 1
 70 40 l 1
 80 40 l 1
 80 10 l 1
 70 10 l 1
 70 0 l 1
 40 0 l 1x78
 40 -10 l 1
 20 -10 l 1xb8
EndSplineSet
Validated: 1
AlternateSubs2: "'ssty' Math Script Style lookup 4 subtable" pinferior.ssty pinferior.ssty2
AlternateSubs2: "'aalt' Access All Alternates lookup 1 subtable" pinferior.ssty pinferior.ssty2
EndChar

StartChar: uni209C
Encoding: 8348 8348 238
Width: 110
GlyphClass: 2
Flags: W
HStem: -10 20<50 70> 30 20<20 30 50 70>
VStem: 30 20<10 30 50 60>
LayerCount: 2
Fore
SplineSet
20 50 m 1
 30 50 l 1
 30 60 l 1
 50 60 l 1
 50 50 l 1
 70 50 l 1
 70 30 l 1
 50 30 l 1
 50 10 l 1
 70 10 l 1
 70 -10 l 1
 40 -10 l 1
 40 0 l 1
 30 0 l 1
 30 30 l 1
 20 30 l 1
 20 50 l 1
EndSplineSet
AlternateSubs2: "'ssty' Math Script Style lookup 4 subtable" tinferior.ssty tinferior.ssty2
AlternateSubs2: "'aalt' Access All Alternates lookup 1 subtable" tinferior.ssty tinferior.ssty2
EndChar

StartChar: uni210E
Encoding: 8462 8462 239
Width: 110
GlyphClass: 2
Flags: W
HStem: 0 21G<10 30 70 90> 60 20<30 40> 70 20<40 70> 100 20G<10 30>
VStem: 10 20<0 60 80 120> 70 20<0 70>
LayerCount: 2
Fore
SplineSet
90 0 m 1xdc
 70 0 l 1
 70 70 l 1
 40 70 l 1xbc
 40 60 l 1
 30 60 l 1
 30 0 l 1
 10 0 l 1
 10 120 l 1
 30 120 l 1
 30 80 l 1
 40 80 l 1xdc
 40 90 l 1
 80 90 l 1xbc
 80 80 l 1
 90 80 l 1
 90 0 l 1xdc
EndSplineSet
Validated: 1
AlternateSubs2: "'ssty' Math Script Style lookup 4 subtable" planck.ssty planck.ssty2
AlternateSubs2: "'aalt' Access All Alternates lookup 1 subtable" planck.ssty planck.ssty2
EndChar

StartChar: uni210F
Encoding: 8463 8463 240
Width: 110
GlyphClass: 2
Flags: W
HStem: 0 21G<10 30 70 90> 50 20<30 40> 60 20<40 70> 80 20<0 10> 90 20<30 50> 100 20<60 80>
VStem: 10 20<0 50 70 80 110 120> 70 20<0 60>
LayerCount: 2
Fore
SplineSet
0 80 m 1xd3
 0 100 l 1
 10 100 l 1xd3
 10 120 l 1
 30 120 l 1x87
 30 110 l 1
 50 110 l 1x8b
 50 120 l 1
 80 120 l 1
 80 100 l 1
 60 100 l 1x87
 60 90 l 1
 30 90 l 1
 30 70 l 1
 40 70 l 1xcb
 40 80 l 1xa3
 80 80 l 1
 80 70 l 1
 90 70 l 1xd3
 90 0 l 1
 70 0 l 1
 70 60 l 1
 40 60 l 1xa3
 40 50 l 1
 30 50 l 1
 30 0 l 1
 10 0 l 1
 10 80 l 1
 0 80 l 1xd3
EndSplineSet
Validated: 1
AlternateSubs2: "'ssty' Math Script Style lookup 4 subtable" plancktwopi.ssty plancktwopi.ssty2
AlternateSubs2: "'aalt' Access All Alternates lookup 1 subtable" plancktwopi.ssty plancktwopi.ssty2
EndChar

StartChar: uni2113
Encoding: 8467 8467 241
Width: 110
GlyphClass: 2
Flags: W
HStem: -10 20<70 80> 0 20<0 20 90 100> 100 20<60 70>
VStem: 20 20<40 70> 30 20<80 90> 50 30<40 50 110 120> 60 20<50 60> 70 20<70 100> 80 20<10 20>
LayerCount: 2
Fore
SplineSet
30 10 m 1xa8
 30 0 l 1x68
 0 0 l 1
 0 20 l 1
 20 20 l 1
 20 30 l 1x70
 30 30 l 1
 30 40 l 1x68
 20 40 l 1
 20 80 l 1x70
 30 80 l 1
 30 100 l 1x68
 40 100 l 1
 40 110 l 1
 50 110 l 1
 50 120 l 1
 80 120 l 1
 80 110 l 1x74
 90 110 l 1
 90 60 l 1x61
 80 60 l 1x62
 80 40 l 1x64
 70 40 l 1
 70 30 l 1x61
 60 30 l 1
 60 20 l 1x62
 70 20 l 1x61
 70 10 l 1xa1
 80 10 l 1xa080
 80 20 l 1
 100 20 l 1
 100 0 l 1x6080
 90 0 l 1x61
 90 -10 l 1xa1
 60 -10 l 1xa2
 60 0 l 1x62
 50 0 l 1x64
 50 10 l 1xa4
 30 10 l 1xa8
50 70 m 1x24
 40 70 l 1
 40 40 l 1
 50 40 l 1
 50 50 l 1x34
 60 50 l 1
 60 70 l 1x22
 70 70 l 1
 70 100 l 1x21
 60 100 l 1
 60 90 l 1
 50 90 l 1x2a
 50 70 l 1x24
EndSplineSet
Validated: 1
AlternateSubs2: "'ssty' Math Script Style lookup 4 subtable" litre.ssty litre.ssty2
AlternateSubs2: "'aalt' Access All Alternates lookup 1 subtable" litre.ssty litre.ssty2
EndChar

StartChar: uni212B
Encoding: 8491 8491 242
Width: 110
GlyphClass: 2
Flags: W
HStem: 0 30<10 20 90 100> 90 20<30 40 70 80> 100 20<50 60>
VStem: 10 20<0 20> 20 20<40 50> 30 20<60 70 90 100> 40 30<80 90 110 120> 60 20<60 70 90 100> 70 20<40 50> 80 20<0 20>
LayerCount: 2
Fore
SplineSet
60 90 m 1xc5
 60 100 l 1
 50 100 l 1xa5
 50 90 l 1
 60 90 l 1xc5
70 40 m 1x8880
 70 50 l 1x8880
 60 50 l 1
 60 70 l 1
 50 70 l 1
 50 50 l 1x85
 40 50 l 1
 40 40 l 1
 70 40 l 1x8880
10 0 m 1xd040
 10 30 l 1xd040
 20 30 l 1
 20 60 l 1xc8
 30 60 l 1
 30 80 l 1xc4
 40 80 l 1
 40 90 l 1xc2
 30 90 l 1
 30 110 l 1xc4
 40 110 l 1xc2
 40 120 l 1
 70 120 l 1xa2
 70 110 l 1
 80 110 l 1xc240
 80 90 l 1xc1
 70 90 l 1
 70 80 l 1
 80 80 l 1xc240
 80 60 l 1xc1
 90 60 l 1
 90 30 l 1xc080
 100 30 l 1
 100 0 l 1
 80 0 l 1
 80 20 l 1
 30 20 l 1
 30 0 l 1
 10 0 l 1xd040
EndSplineSet
Validated: 1
AlternateSubs2: "'ssty' Math Script Style lookup 4 subtable" angstrom.ssty angstrom.ssty2
AlternateSubs2: "'aalt' Access All Alternates lookup 1 subtable" angstrom.ssty angstrom.ssty2
EndChar

StartChar: arrowright
Encoding: 8594 8594 243
Width: 110
GlyphClass: 2
Flags: W
HStem: 50 20<0 60 90 100>
VStem: 60 30<40 50 70 80> 60 20<30 40 80 90> 60 10<20 30 90 100>
LayerCount: 2
Fore
SplineSet
0 50 m 1xc0
 0 70 l 1
 60 70 l 1xc0
 60 100 l 1
 70 100 l 1
 70 90 l 1x90
 80 90 l 1
 80 80 l 1xa0
 90 80 l 1
 90 70 l 1
 100 70 l 1
 100 50 l 1
 90 50 l 1
 90 40 l 1xc0
 80 40 l 1
 80 30 l 1xa0
 70 30 l 1
 70 20 l 1
 60 20 l 1x90
 60 50 l 1
 0 50 l 1xc0
EndSplineSet
Validated: 1
AlternateSubs2: "'ssty' Math Script Style lookup 4 subtable" arrowright.ssty arrowright.ssty2
AlternateSubs2: "'aalt' Access All Alternates lookup 1 subtable" arrowright.ssty arrowright.ssty2
EndChar

StartChar: product
Encoding: 8719 8719 244
Width: 110
GlyphClass: 2
Flags: W
IsExtendedShape: 1
GlyphVariantsVertical: product product.v1
HStem: 0 20<0 10 30 40 60 70 90 100> 100 20<0 10 30 70 90 100>
VStem: 10 20<20 100> 70 20<20 100>
LayerCount: 2
Fore
SplineSet
0 0 m 1
 0 20 l 1
 10 20 l 1
 10 100 l 1
 0 100 l 1
 0 120 l 1
 100 120 l 1
 100 100 l 1
 90 100 l 1
 90 20 l 1
 100 20 l 1
 100 0 l 1
 60 0 l 1
 60 20 l 1
 70 20 l 1
 70 100 l 1
 30 100 l 1
 30 20 l 1
 40 20 l 1
 40 0 l 1
 0 0 l 1
EndSplineSet
Validated: 1
EndChar

StartChar: summation
Encoding: 8721 8721 245
Width: 110
GlyphClass: 2
Flags: W
IsExtendedShape: 1
GlyphVariantsVertical: summation summation.v1
HStem: -10 30<10 20 80 100> -10 20<0 10 40 80> 50 10<70 80> 90 30<10 20 80 100> 100 20<0 10 40 80>
VStem: 10 30<10 20 90 100> 20 30<20 30 80 90> 30 30<30 40 70 80> 40 30<40 50 60 70> 80 20<10 20 90 100>
LayerCount: 2
Fore
SplineSet
0 -10 m 1x6440
 0 10 l 1
 10 10 l 1x6440
 10 20 l 1xa440
 20 20 l 1
 20 30 l 1xa240
 30 30 l 1
 30 40 l 1xa140
 40 40 l 1
 40 50 l 1xa0c0
 50 50 l 1
 50 60 l 1xa240
 40 60 l 1
 40 70 l 1xa0c0
 30 70 l 1
 30 80 l 1xa140
 20 80 l 1
 20 90 l 1xb240
 10 90 l 1xb440
 10 100 l 1
 0 100 l 1
 0 120 l 1x2c40
 100 120 l 1
 100 90 l 1
 80 90 l 1x3440
 80 100 l 1
 40 100 l 1x2c40
 40 90 l 1x3440
 50 90 l 1
 50 80 l 1x3240
 60 80 l 1
 60 70 l 1x3140
 70 70 l 1
 70 60 l 1
 80 60 l 1
 80 50 l 1
 70 50 l 1
 70 40 l 1x30c0
 60 40 l 1
 60 30 l 1x3140
 50 30 l 1
 50 20 l 1xb240
 40 20 l 1xb440
 40 10 l 1
 80 10 l 1x6440
 80 20 l 1
 100 20 l 1
 100 -10 l 1xa440
 0 -10 l 1x6440
EndSplineSet
Validated: 1
EndChar

StartChar: radical
Encoding: 8730 8730 246
Width: 110
GlyphClass: 2
Flags: W
IsExtendedShape: 1
GlyphVariantsVertical: radical radical.v1 radical.v2 radical.v3 radical.v4 radical.v5 radical.v6 radical.v7 radical.v8
GlyphCompositionVertical: 3  uni23B7%0,0,40,190 radical.ex%1,40,40,40 radical.tp%0,0,0,100
HStem: 0 21G<30 50> 60 20<0 10> 100 20<80 100>
VStem: 0 30<60 80> 10 20<50 60> 30 20<0 20> 50 20<60 80> 60 20<90 100>
LayerCount: 2
Fore
SplineSet
0 60 m 1xf0
 0 80 l 1
 30 80 l 1xf0
 30 50 l 1
 40 50 l 1
 40 60 l 1
 50 60 l 1
 50 90 l 1xea
 60 90 l 1
 60 120 l 1
 100 120 l 1
 100 100 l 1
 80 100 l 1
 80 80 l 1xe1
 70 80 l 1
 70 50 l 1xe2
 60 50 l 1
 60 20 l 1
 50 20 l 1
 50 0 l 1
 30 0 l 1
 30 20 l 1xe5
 20 20 l 1
 20 40 l 1
 10 40 l 1
 10 60 l 1xe8
 0 60 l 1xf0
EndSplineSet
Substitution2: "'aalt' Access All Alternates lookup 0 subtable" radical.v2
EndChar

StartChar: uni221B
Encoding: 8731 8731 247
Width: 220
GlyphClass: 2
Flags: W
HStem: 0 21G<140 160> 50 20<20 60> 60 20<70 80 110 120> 80 10<30 60> 100 20<20 60 190 210>
VStem: 60 20<70 80 90 100> 110 30<60 80> 120 20<50 60> 140 20<0 20> 160 20<60 80> 170 20<90 100>
LayerCount: 2
Fore
SplineSet
20 100 m 5xdc
 20 120 l 5
 70 120 l 5
 70 110 l 5
 80 110 l 5
 80 90 l 5
 70 90 l 5xdc
 70 80 l 5
 80 80 l 5
 80 60 l 5
 70 60 l 5xac
 70 50 l 5
 20 50 l 5
 20 70 l 5
 60 70 l 5
 60 80 l 5
 30 80 l 5
 30 90 l 5
 60 90 l 5
 60 100 l 5
 20 100 l 5xdc
110 60 m 5xae
 110 80 l 5xae
 140 80 l 5x9e
 140 50 l 5
 150 50 l 5xdd
 150 60 l 5
 160 60 l 5xad40
 160 90 l 5x9d40
 170 90 l 5
 170 120 l 5
 210 120 l 5
 210 100 l 5
 190 100 l 5
 190 80 l 5x9c20
 180 80 l 5
 180 50 l 5xdc40
 170 50 l 5
 170 20 l 5
 160 20 l 5
 160 0 l 5
 140 0 l 5
 140 20 l 5xdca0
 130 20 l 5
 130 40 l 5
 120 40 l 5
 120 60 l 5xad
 110 60 l 5xae
EndSplineSet
EndChar

StartChar: angle
Encoding: 8736 8736 248
Width: 110
GlyphClass: 2
Flags: W
HStem: 0 20<0 10 40 100> 80 10<90 100>
VStem: 80 10<90 100>
LayerCount: 2
Fore
SplineSet
0 0 m 1
 0 20 l 1
 10 20 l 1
 10 30 l 1
 20 30 l 1
 20 40 l 1
 30 40 l 1
 30 50 l 1
 40 50 l 1
 40 60 l 1
 50 60 l 1
 50 70 l 1
 60 70 l 1
 60 80 l 1
 70 80 l 1
 70 90 l 1
 80 90 l 1
 80 100 l 1
 90 100 l 1
 90 90 l 1
 100 90 l 1
 100 80 l 1
 90 80 l 1
 90 70 l 1
 80 70 l 1
 80 60 l 1
 70 60 l 1
 70 50 l 1
 60 50 l 1
 60 40 l 1
 50 40 l 1
 50 30 l 1
 40 30 l 1
 40 20 l 1
 100 20 l 1
 100 0 l 1
 0 0 l 1
EndSplineSet
Validated: 1
EndChar

StartChar: integral
Encoding: 8747 8747 249
Width: 110
GlyphClass: 2
Flags: W
IsExtendedShape: 1
GlyphVariantsVertical: integral integral.v1 integral.v2 integral.v3 integral.v4
HStem: -10 20<30 40> 0 20<10 20> 90 20<90 100> 100 20<70 80>
VStem: 10 20<10 20> 40 20<10 50> 50 20<60 100> 80 20<90 100>
LayerCount: 2
Fore
SplineSet
10 0 m 1x4b
 10 20 l 1
 30 20 l 1x4b
 30 10 l 1
 40 10 l 1
 40 60 l 1x8d
 50 60 l 1
 50 110 l 1xab
 60 110 l 1xad
 60 120 l 1
 90 120 l 1x1d
 90 110 l 1
 100 110 l 1
 100 90 l 1
 80 90 l 1x2d
 80 100 l 1
 70 100 l 1
 70 50 l 1x1b
 60 50 l 1
 60 0 l 1x5d
 50 0 l 1x5b
 50 -10 l 1
 20 -10 l 1x8b
 20 0 l 1
 10 0 l 1x4b
EndSplineSet
EndChar

StartChar: notequal
Encoding: 8800 8800 250
Width: 110
GlyphClass: 2
Flags: W
HStem: 0 21G<30 50> 30 20<0 30 60 100> 70 20<0 40 70 100> 100 20G<50 70>
VStem: 30 20<0 30> 40 20<50 70> 50 20<90 120>
LayerCount: 2
Fore
SplineSet
0 30 m 1xf8
 0 50 l 1
 40 50 l 1
 40 70 l 1xf4
 0 70 l 1
 0 90 l 1
 50 90 l 1
 50 120 l 1
 70 120 l 1
 70 90 l 1xf2
 100 90 l 1
 100 70 l 1
 60 70 l 1
 60 50 l 1xf4
 100 50 l 1
 100 30 l 1
 50 30 l 1
 50 0 l 1
 30 0 l 1
 30 30 l 1
 0 30 l 1xf8
EndSplineSet
Validated: 1
EndChar

StartChar: lessequal
Encoding: 8804 8804 251
Width: 110
GlyphClass: 2
Flags: W
HStem: 30 20<80 100> 40 20<60 70> 50 20<40 50> 60 30<10 30> 80 20<40 50> 90 20<60 70> 100 20<80 100>
VStem: 70 30<30 40 110 120>
LayerCount: 2
Fore
SplineSet
10 20 m 1x01
 10 0 l 1
 100 0 l 1
 100 20 l 1
 10 20 l 1x01
100 50 m 1x91
 100 30 l 1
 70 30 l 1x91
 70 40 l 1
 50 40 l 1x41
 50 50 l 1
 30 50 l 1x21
 30 60 l 1
 10 60 l 1
 10 90 l 1
 30 90 l 1
 30 100 l 1x13
 50 100 l 1x09
 50 110 l 1
 70 110 l 1x05
 70 120 l 1
 100 120 l 1
 100 100 l 1
 80 100 l 1x03
 80 90 l 1
 60 90 l 1x05
 60 80 l 1
 40 80 l 1
 40 70 l 1
 60 70 l 1x29
 60 60 l 1x41
 80 60 l 1
 80 50 l 1
 100 50 l 1x91
EndSplineSet
EndChar

StartChar: greaterequal
Encoding: 8805 8805 252
Width: 110
GlyphClass: 2
Flags: W
HStem: 30 20<10 30> 40 20<40 50> 50 20<60 70> 60 30<80 100> 80 20<60 70> 90 20<40 50> 100 20<10 30>
VStem: 10 30<30 40 110 120>
LayerCount: 2
Fore
SplineSet
10 0 m 1x01
 100 0 l 1
 100 20 l 1
 10 20 l 1
 10 0 l 1x01
40 30 m 1x81
 10 30 l 1
 10 50 l 1
 30 50 l 1
 30 60 l 1x91
 50 60 l 1x41
 50 70 l 1
 70 70 l 1
 70 80 l 1
 50 80 l 1x29
 50 90 l 1
 30 90 l 1x05
 30 100 l 1
 10 100 l 1
 10 120 l 1
 40 120 l 1x03
 40 110 l 1
 60 110 l 1x05
 60 100 l 1x09
 80 100 l 1
 80 90 l 1
 100 90 l 1
 100 60 l 1
 80 60 l 1x13
 80 50 l 1
 60 50 l 1x21
 60 40 l 1
 40 40 l 1x41
 40 30 l 1x81
EndSplineSet
EndChar

StartChar: dotmath
Encoding: 8901 8901 253
Width: 110
GlyphClass: 2
Flags: W
HStem: 50 20<30 40 60 70>
VStem: 40 20<40 50 70 80>
LayerCount: 2
Fore
SplineSet
30 70 m 1
 40 70 l 1
 40 80 l 1
 60 80 l 1
 60 70 l 1
 70 70 l 1
 70 50 l 1
 60 50 l 1
 60 40 l 1
 40 40 l 1
 40 50 l 1
 30 50 l 1
 30 70 l 1
EndSplineSet
Validated: 1
EndChar

StartChar: uni239B
Encoding: 9115 9115 254
Width: 110
GlyphClass: 2
Flags: W
HStem: 0 21G<20 40> 190 20<50 60> 200 10<60 70>
VStem: 20 20<0 170> 30 20<170 190> 40 20<190 200> 50 20<200 210>
LayerCount: 2
Fore
SplineSet
70 210 m 1xa2
 70 200 l 1xa2
 60 200 l 1xa4
 60 190 l 1xc4
 50 190 l 1
 50 170 l 1xc8
 40 170 l 1
 40 0 l 1
 20 0 l 1
 20 170 l 1xd0
 30 170 l 1
 30 190 l 1xc8
 40 190 l 1xc4
 40 200 l 1xa4
 50 200 l 1xa2
 50 210 l 1xc2
 70 210 l 1xa2
EndSplineSet
Validated: 1
EndChar

StartChar: uni239C
Encoding: 9116 9116 255
Width: 110
GlyphClass: 2
Flags: W
HStem: 0 21G<20 40> 70 20G<20 40>
VStem: 20 20<0 90>
LayerCount: 2
Fore
SplineSet
20 0 m 1
 20 90 l 1
 40 90 l 1
 40 0 l 1
 20 0 l 1
EndSplineSet
Validated: 1
EndChar

StartChar: uni239D
Encoding: 9117 9117 256
Width: 110
GlyphClass: 2
Flags: W
HStem: 0 20<50 60> 0 10<60 70>
VStem: 20 20<40 210> 30 20<20 40> 40 20<10 20> 50 20<0 10>
LayerCount: 2
Fore
SplineSet
70 0 m 1x44
 50 0 l 1x84
 50 10 l 1x44
 40 10 l 1x48
 40 20 l 1x88
 30 20 l 1
 30 40 l 1x90
 20 40 l 1
 20 210 l 1
 40 210 l 1
 40 40 l 1xa0
 50 40 l 1
 50 20 l 1x90
 60 20 l 1x88
 60 10 l 1x48
 70 10 l 1
 70 0 l 1x44
EndSplineSet
Validated: 1
EndChar

StartChar: uni239E
Encoding: 9118 9118 257
Width: 110
GlyphClass: 2
Flags: W
HStem: 0 21G<70 90> 190 20<50 60> 200 10<40 50>
VStem: 40 20<200 210> 50 20<190 200> 60 20<170 190> 70 20<0 170>
LayerCount: 2
Fore
SplineSet
40 210 m 1xb0
 60 210 l 1xd0
 60 200 l 1xb0
 70 200 l 1xa8
 70 190 l 1xc8
 80 190 l 1
 80 170 l 1xc4
 90 170 l 1
 90 0 l 1
 70 0 l 1
 70 170 l 1xc2
 60 170 l 1
 60 190 l 1xc4
 50 190 l 1xc8
 50 200 l 1xa8
 40 200 l 1
 40 210 l 1xb0
EndSplineSet
Validated: 1
EndChar

StartChar: uni239F
Encoding: 9119 9119 258
Width: 110
GlyphClass: 2
Flags: W
HStem: 0 21G<70 90> 70 20G<70 90>
VStem: 70 20<0 90>
LayerCount: 2
Fore
SplineSet
70 0 m 1
 70 90 l 1
 90 90 l 1
 90 0 l 1
 70 0 l 1
EndSplineSet
Validated: 1
EndChar

StartChar: uni23A0
Encoding: 9120 9120 259
Width: 110
GlyphClass: 2
Flags: W
HStem: 0 20<50 60> 0 10<40 50>
VStem: 40 20<0 10> 50 20<10 20> 60 20<20 40> 70 20<40 210>
LayerCount: 2
Fore
SplineSet
40 0 m 1x60
 40 10 l 1x60
 50 10 l 1x50
 50 20 l 1x90
 60 20 l 1
 60 40 l 1x88
 70 40 l 1
 70 210 l 1
 90 210 l 1
 90 40 l 1x84
 80 40 l 1
 80 20 l 1x88
 70 20 l 1x90
 70 10 l 1x50
 60 10 l 1x60
 60 0 l 1xa0
 40 0 l 1x60
EndSplineSet
Validated: 1
EndChar

StartChar: uni23B7
Encoding: 9143 9143 260
Width: 90
GlyphClass: 2
Flags: W
HStem: 0 21G<60 70> 60 20<30 40> 70 20<40 50>
VStem: 30 10<60 70> 40 10<80 90> 50 20<30 70> 60 10<0 30 70 130> 70 10<130 190>
LayerCount: 2
Fore
SplineSet
70 130 m 1x82
 70 190 l 1
 80 190 l 1
 80 130 l 1x81
 70 130 l 1x82
70 130 m 1xa2
 70 0 l 1
 60 0 l 1
 60 30 l 1xa2
 50 30 l 1
 50 70 l 1
 40 70 l 1xb4
 40 60 l 1
 30 60 l 1
 30 80 l 1xd4
 40 80 l 1xc8
 40 90 l 1
 50 90 l 1xa8
 50 70 l 1xa4
 60 70 l 1
 60 130 l 1
 70 130 l 1xa2
EndSplineSet
EndChar

StartChar: uni251C
Encoding: 9500 9500 261
Width: 110
GlyphClass: 2
Flags: W
HStem: -10 21G<50 60> 50 10<60 110> 100 20G<50 60>
VStem: 50 10<-10 50 60 120>
LayerCount: 2
Fore
SplineSet
50 120 m 1
 60 120 l 1
 60 60 l 1
 110 60 l 1
 110 50 l 1
 60 50 l 1
 60 -10 l 1
 50 -10 l 1
 50 120 l 1
EndSplineSet
Validated: 1
EndChar

StartChar: uni2524
Encoding: 9508 9508 262
Width: 110
GlyphClass: 2
Flags: W
HStem: -10 21G<50 60> 50 10<0 50> 100 20G<50 60>
VStem: 50 10<-10 50 60 120>
LayerCount: 2
Fore
SplineSet
60 120 m 1
 60 -10 l 1
 50 -10 l 1
 50 50 l 1
 0 50 l 1
 0 60 l 1
 50 60 l 1
 50 120 l 1
 60 120 l 1
EndSplineSet
Validated: 1
EndChar

StartChar: uni252C
Encoding: 9516 9516 263
Width: 110
GlyphClass: 2
Flags: W
HStem: -10 21G<50 60> 50 10<0 50 60 110>
VStem: 50 10<-10 50>
LayerCount: 2
Fore
SplineSet
50 -10 m 1
 50 50 l 1
 0 50 l 1
 0 60 l 1
 110 60 l 1
 110 50 l 1
 60 50 l 1
 60 -10 l 1
 50 -10 l 1
EndSplineSet
Validated: 1
EndChar

StartChar: uni2534
Encoding: 9524 9524 264
Width: 110
GlyphClass: 2
Flags: W
HStem: 50 10<0 50 60 110> 100 20G<50 60>
VStem: 50 10<60 120>
LayerCount: 2
Fore
SplineSet
50 120 m 1
 60 120 l 1
 60 60 l 1
 110 60 l 1
 110 50 l 1
 0 50 l 1
 0 60 l 1
 50 60 l 1
 50 120 l 1
EndSplineSet
Validated: 1
EndChar

StartChar: block
Encoding: 9608 9608 265
Width: 110
GlyphClass: 2
Flags: W
HStem: -10 21G<0 100> 100 20G<0 100>
VStem: 0 100<-10 120>
LayerCount: 2
Fore
SplineSet
0 -10 m 1
 0 120 l 1
 100 120 l 1
 100 -10 l 1
 0 -10 l 1
EndSplineSet
Validated: 1
AlternateSubs2: "'ssty' Math Script Style lookup 4 subtable" block.ssty block.ssty2
AlternateSubs2: "'aalt' Access All Alternates lookup 1 subtable" block.ssty block.ssty2
EndChar

StartChar: shade
Encoding: 9618 9618 266
Width: 110
GlyphClass: 2
Flags: W
HStem: -10 10<0 10 20 30 40 50 60 70 80 90> 0 10<10 20 30 40 50 60 70 80 90 100> 10 10<0 10 20 30 40 50 60 70 80 90> 20 10<10 20 30 40 50 60 70 80 90 100> 30 10<0 10 20 30 40 50 60 70 80 90> 40 10<10 20 30 40 50 60 70 80 90 100> 50 10<0 10 20 30 40 50 60 70 80 90> 60 10<10 20 30 40 50 60 70 80 90 100> 70 10<0 10 20 30 40 50 60 70 80 90> 80 10<10 20 30 40 50 60 70 80 90 100> 90 10<0 10 20 30 40 50 60 70 80 90> 100 10<10 20 30 40 50 60 70 80 90 100> 110 10<0 10 20 30 40 50 60 70 80 90>
VStem: 0 10<-10 0 10 20 30 40 50 60 70 80 90 100 110 120> 10 10<0 10 20 30 40 50 60 70 80 90 100 110> 20 10<-10 0 10 20 30 40 50 60 70 80 90 100 110 120> 30 10<0 10 20 30 40 50 60 70 80 90 100 110> 40 10<-10 0 10 20 30 40 50 60 70 80 90 100 110 120> 50 10<0 10 20 30 40 50 60 70 80 90 100 110> 60 10<-10 0 10 20 30 40 50 60 70 80 90 100 110 120> 70 10<0 10 20 30 40 50 60 70 80 90 100 110> 80 10<-10 0 10 20 30 40 50 60 70 80 90 100 110 120> 90 10<0 10 20 30 40 50 60 70 80 90 100 110>
LayerCount: 2
Fore
SplineSet
10 90 m 1x0044
 0 90 l 1
 0 100 l 1
 10 100 l 1x0024
 10 110 l 1x0014
 0 110 l 1
 0 120 l 1
 10 120 l 1x000c
 10 110 l 1x0014
 20 110 l 1x0012
 20 120 l 1
 30 120 l 1x0009
 30 110 l 1x0011
 40 110 l 1x001080
 40 120 l 1
 50 120 l 1x000840
 50 110 l 1x001040
 60 110 l 1x001020
 60 120 l 1
 70 120 l 1x000810
 70 110 l 1x001010
 80 110 l 1x001008
 80 120 l 1
 90 120 l 1x000804
 90 110 l 1x001004
 100 110 l 1
 100 100 l 1x001002
 90 100 l 1x002004
 90 90 l 1x004004
 100 90 l 1
 100 80 l 1x004002
 90 80 l 1x008004
 90 70 l 1x010004
 100 70 l 1
 100 60 l 1x010002
 90 60 l 1x020004
 90 50 l 1x040004
 100 50 l 1
 100 40 l 1x040002
 90 40 l 1x080004
 90 30 l 1x100004
 100 30 l 1
 100 20 l 1x100002
 90 20 l 1x200004
 90 10 l 1x400004
 100 10 l 1
 100 0 l 1x400002
 90 0 l 1
 90 -10 l 1
 80 -10 l 1x800004
 80 0 l 1x800008
 70 0 l 1
 70 -10 l 1
 60 -10 l 1x800010
 60 0 l 1x800020
 50 0 l 1
 50 -10 l 1
 40 -10 l 1x800040
 40 0 l 1x800080
 30 0 l 1
 30 -10 l 1
 20 -10 l 1x8001
 20 0 l 1x8002
 10 0 l 1
 10 -10 l 1
 0 -10 l 1
 0 0 l 1
 10 0 l 1x8004
 10 10 l 1x4004
 0 10 l 1
 0 20 l 1
 10 20 l 1x2004
 10 30 l 1x1004
 0 30 l 1
 0 40 l 1
 10 40 l 1x0804
 10 50 l 1x0404
 0 50 l 1
 0 60 l 1
 10 60 l 1x0204
 10 70 l 1x0104
 0 70 l 1
 0 80 l 1
 10 80 l 1x0084
 10 90 l 1x0044
20 20 m 1x2002
 10 20 l 1x2004
 10 10 l 1x4004
 20 10 l 1x4002
 20 0 l 1x8002
 30 0 l 1x8001
 30 10 l 1x4001
 40 10 l 1x400080
 40 0 l 1x800080
 50 0 l 1x800040
 50 10 l 1x400040
 60 10 l 1x400020
 60 0 l 1x800020
 70 0 l 1x800010
 70 10 l 1x400010
 80 10 l 1x400008
 80 0 l 1x800008
 90 0 l 1x800004
 90 10 l 1x400004
 80 10 l 1x400008
 80 20 l 1x200008
 90 20 l 1x200004
 90 30 l 1x100004
 80 30 l 1x100008
 80 40 l 1x080008
 90 40 l 1x080004
 90 50 l 1x040004
 80 50 l 1x040008
 80 60 l 1x020008
 90 60 l 1x020004
 90 70 l 1x010004
 80 70 l 1x010008
 80 80 l 1x008008
 90 80 l 1x008004
 90 90 l 1x004004
 80 90 l 1x004008
 80 100 l 1x002008
 90 100 l 1x002004
 90 110 l 1x001004
 80 110 l 1x001008
 80 100 l 1x002008
 70 100 l 1x002010
 70 110 l 1x001010
 60 110 l 1x001020
 60 100 l 1x002020
 50 100 l 1x002040
 50 110 l 1x001040
 40 110 l 1x001080
 40 100 l 1x002080
 30 100 l 1x0021
 30 110 l 1x0011
 20 110 l 1x0012
 20 100 l 1x0022
 10 100 l 1x0024
 10 90 l 1x0044
 20 90 l 1x0042
 20 80 l 1x0082
 10 80 l 1x0084
 10 70 l 1x0104
 20 70 l 1x0102
 20 60 l 1x0202
 10 60 l 1x0204
 10 50 l 1x0404
 20 50 l 1x0402
 20 40 l 1x0802
 10 40 l 1x0804
 10 30 l 1x1004
 20 30 l 1x1002
 20 20 l 1x2002
20 10 m 1x4002
 20 20 l 1x2002
 30 20 l 1x2001
 30 30 l 1x1001
 20 30 l 1x1002
 20 40 l 1x0802
 30 40 l 1x0801
 30 50 l 1x0401
 20 50 l 1x0402
 20 60 l 1x0202
 30 60 l 1x0201
 30 70 l 1x0101
 20 70 l 1x0102
 20 80 l 1x0082
 30 80 l 1x0081
 30 90 l 1x0041
 20 90 l 1x0042
 20 100 l 1x0022
 30 100 l 1x0021
 30 90 l 1x0041
 40 90 l 1x004080
 40 100 l 1x002080
 50 100 l 1x002040
 50 90 l 1x004040
 60 90 l 1x004020
 60 100 l 1x002020
 70 100 l 1x002010
 70 90 l 1x004010
 80 90 l 1x004008
 80 80 l 1x008008
 70 80 l 1x008010
 70 70 l 1x010010
 80 70 l 1x010008
 80 60 l 1x020008
 70 60 l 1x020010
 70 50 l 1x040010
 80 50 l 1x040008
 80 40 l 1x080008
 70 40 l 1x080010
 70 30 l 1x100010
 80 30 l 1x100008
 80 20 l 1x200008
 70 20 l 1x200010
 70 10 l 1x400010
 60 10 l 1x400020
 60 20 l 1x200020
 50 20 l 1x200040
 50 10 l 1x400040
 40 10 l 1x400080
 40 20 l 1x200080
 30 20 l 1x2001
 30 10 l 1x4001
 20 10 l 1x4002
30 30 m 1x1001
 40 30 l 1x100080
 40 20 l 1x200080
 50 20 l 1x200040
 50 30 l 1x100040
 60 30 l 1x100020
 60 20 l 1x200020
 70 20 l 1x200010
 70 30 l 1x100010
 60 30 l 1x100020
 60 40 l 1x080020
 70 40 l 1x080010
 70 50 l 1x040010
 60 50 l 1x040020
 60 60 l 1x020020
 70 60 l 1x020010
 70 70 l 1x010010
 60 70 l 1x010020
 60 80 l 1x008020
 70 80 l 1x008010
 70 90 l 1x004010
 60 90 l 1x004020
 60 80 l 1x008020
 50 80 l 1x008040
 50 90 l 1x004040
 40 90 l 1x004080
 40 80 l 1x008080
 30 80 l 1x0081
 30 70 l 1x0101
 40 70 l 1x010080
 40 60 l 1x020080
 30 60 l 1x0201
 30 50 l 1x0401
 40 50 l 1x040080
 40 40 l 1x080080
 30 40 l 1x0801
 30 30 l 1x1001
50 60 m 1x020040
 50 70 l 1x010040
 40 70 l 1x010080
 40 80 l 1x008080
 50 80 l 1x008040
 50 70 l 1x010040
 60 70 l 1x010020
 60 60 l 1x020020
 50 60 l 1x020040
 50 50 l 1x040040
 60 50 l 1x040020
 60 40 l 1x080020
 50 40 l 1x080040
 50 30 l 1x100040
 40 30 l 1x100080
 40 40 l 1x080080
 50 40 l 1x080040
 50 50 l 1x040040
 40 50 l 1x040080
 40 60 l 1x020080
 50 60 l 1x020040
EndSplineSet
Validated: 5
AlternateSubs2: "'ssty' Math Script Style lookup 4 subtable" shade.ssty shade.ssty2
AlternateSubs2: "'aalt' Access All Alternates lookup 1 subtable" shade.ssty shade.ssty2
EndChar

StartChar: filledbox
Encoding: 9632 9632 267
Width: 110
GlyphClass: 2
Flags: W
HStem: -10 21G<0 100> 100 20G<0 100>
VStem: 0 100<-10 120>
LayerCount: 2
Fore
SplineSet
0 -10 m 1
 0 120 l 1
 100 120 l 1
 100 -10 l 1
 0 -10 l 1
EndSplineSet
Validated: 1
AlternateSubs2: "'ssty' Math Script Style lookup 4 subtable" filledbox.ssty filledbox.ssty2
AlternateSubs2: "'aalt' Access All Alternates lookup 1 subtable" filledbox.ssty filledbox.ssty2
EndChar

StartChar: uni25A1
Encoding: 9633 9633 268
Width: 110
GlyphClass: 2
Flags: W
HStem: -10 20<20 80> 100 20<20 80>
VStem: 0 20<10 100> 80 20<10 100>
LayerCount: 2
Fore
SplineSet
0 120 m 1
 100 120 l 1
 100 -10 l 1
 0 -10 l 1
 0 120 l 1
20 100 m 1
 20 10 l 1
 80 10 l 1
 80 100 l 1
 20 100 l 1
EndSplineSet
Validated: 1
AlternateSubs2: "'ssty' Math Script Style lookup 4 subtable" squarewhite.ssty squarewhite.ssty2
AlternateSubs2: "'aalt' Access All Alternates lookup 1 subtable" squarewhite.ssty squarewhite.ssty2
EndChar

StartChar: uni2B1A
Encoding: 11034 11034 269
Width: 110
GlyphClass: 2
Flags: W
HStem: -10 20<20 80> 100 20<20 80>
VStem: 0 20<10 100> 80 20<10 100>
LayerCount: 2
Fore
SplineSet
0 120 m 1
 100 120 l 1
 100 -10 l 1
 0 -10 l 1
 0 120 l 1
20 100 m 1
 20 10 l 1
 80 10 l 1
 80 100 l 1
 20 100 l 1
EndSplineSet
Validated: 1
AlternateSubs2: "'ssty' Math Script Style lookup 4 subtable" dottedSquare.ssty dottedSquare.ssty2
AlternateSubs2: "'aalt' Access All Alternates lookup 1 subtable" dottedSquare.ssty dottedSquare.ssty2
EndChar

StartChar: uni2B1B
Encoding: 11035 11035 270
Width: 110
GlyphClass: 2
Flags: W
HStem: -10 21G<0 100> 100 20G<0 100>
VStem: 0 100<-10 120>
LayerCount: 2
Fore
SplineSet
0 -10 m 1
 0 120 l 1
 100 120 l 1
 100 -10 l 1
 0 -10 l 1
EndSplineSet
Validated: 1
AlternateSubs2: "'ssty' Math Script Style lookup 4 subtable" blackLargeSquare.ssty blackLargeSquare.ssty2
AlternateSubs2: "'aalt' Access All Alternates lookup 1 subtable" blackLargeSquare.ssty blackLargeSquare.ssty2
EndChar

StartChar: uni2B1C
Encoding: 11036 11036 271
Width: 110
GlyphClass: 2
Flags: W
HStem: -10 20<20 80> 100 20<20 80>
VStem: 0 20<10 100> 80 20<10 100>
LayerCount: 2
Fore
SplineSet
0 120 m 1
 100 120 l 1
 100 -10 l 1
 0 -10 l 1
 0 120 l 1
20 100 m 1
 20 10 l 1
 80 10 l 1
 80 100 l 1
 20 100 l 1
EndSplineSet
Validated: 1
AlternateSubs2: "'ssty' Math Script Style lookup 4 subtable" whiteLargeSquare.ssty whiteLargeSquare.ssty2
AlternateSubs2: "'aalt' Access All Alternates lookup 1 subtable" whiteLargeSquare.ssty whiteLargeSquare.ssty2
EndChar

StartChar: uniE001
Encoding: 57345 57345 272
Width: 110
GlyphClass: 1
Flags: W
HStem: 0 21G<0 20 70 100> 30 20<30 50> 100 20G<30 70>
VStem: 0 20<0 30> 10 20<50 70> 70 30<0 30>
LayerCount: 2
Fore
SplineSet
0 0 m 1xf4
 0 50 l 1xf4
 10 50 l 1
 10 80 l 1xec
 20 80 l 1
 20 100 l 1xf4
 30 100 l 1
 30 120 l 1xec
 70 120 l 1
 70 100 l 1
 80 100 l 1
 80 80 l 1
 90 80 l 1
 90 50 l 1
 100 50 l 1
 100 0 l 1
 70 0 l 1
 70 30 l 1
 20 30 l 1
 20 0 l 1
 0 0 l 1xf4
50 50 m 1
 50 70 l 1
 30 70 l 1
 30 50 l 1xec
 50 50 l 1
EndSplineSet
Validated: 1
AlternateSubs2: "'ssty' Math Script Style lookup 4 subtable" HexA.ssty HexA.ssty2
AlternateSubs2: "'aalt' Access All Alternates lookup 1 subtable" HexA.ssty HexA.ssty2
EndChar

StartChar: uniE002
Encoding: 57346 57346 273
Width: 110
GlyphClass: 1
Flags: W
HStem: 0 20<40 80> 50 20<40 80> 100 20<40 80>
VStem: 0 40<20 50 70 100> 80 20<20 50 70 100>
CounterMasks: 1 e0
LayerCount: 2
Fore
SplineSet
40 20 m 1
 80 20 l 1
 80 50 l 1
 40 50 l 1
 40 20 l 1
40 100 m 1
 40 70 l 1
 80 70 l 1
 80 100 l 1
 40 100 l 1
0 0 m 1
 0 120 l 1
 90 120 l 1
 90 110 l 1
 100 110 l 1
 100 70 l 1
 90 70 l 1
 90 60 l 1
 100 60 l 1
 100 10 l 1
 90 10 l 1
 90 0 l 1
 0 0 l 1
EndSplineSet
Validated: 1
AlternateSubs2: "'ssty' Math Script Style lookup 4 subtable" HexB.ssty HexB.ssty2
AlternateSubs2: "'aalt' Access All Alternates lookup 1 subtable" HexB.ssty HexB.ssty2
EndChar

StartChar: uniE003
Encoding: 57347 57347 274
Width: 110
GlyphClass: 1
Flags: W
HStem: 0 20<50 80> 10 20<90 100> 90 20<90 100> 100 20<50 80>
VStem: 0 40<30 90> 80 20<20 30 90 100>
LayerCount: 2
Fore
SplineSet
0 30 m 1x4c
 0 90 l 1
 10 90 l 1
 10 110 l 1
 30 110 l 1x6c
 30 120 l 1
 90 120 l 1x1c
 90 110 l 1
 100 110 l 1
 100 90 l 1
 80 90 l 1x2c
 80 100 l 1
 50 100 l 1x1c
 50 90 l 1
 40 90 l 1
 40 30 l 1
 50 30 l 1x6c
 50 20 l 1
 80 20 l 1x8c
 80 30 l 1
 100 30 l 1
 100 10 l 1
 90 10 l 1x4c
 90 0 l 1
 30 0 l 1x8c
 30 10 l 1
 10 10 l 1
 10 30 l 1
 0 30 l 1x4c
EndSplineSet
Validated: 1
AlternateSubs2: "'ssty' Math Script Style lookup 4 subtable" HexCNCr.ssty HexCNCr.ssty2
AlternateSubs2: "'aalt' Access All Alternates lookup 1 subtable" HexCNCr.ssty HexCNCr.ssty2
EndChar

StartChar: uniE004
Encoding: 57348 57348 275
Width: 110
GlyphClass: 1
Flags: W
HStem: 0 20<40 70> 100 20<40 70>
VStem: 0 40<20 100> 70 30<20 30 90 100> 80 20<30 90>
LayerCount: 2
Fore
SplineSet
40 20 m 1xf0
 70 20 l 1
 70 30 l 1xf0
 80 30 l 1
 80 90 l 1xe8
 70 90 l 1
 70 100 l 1
 40 100 l 1
 40 20 l 1xf0
100 20 m 1
 90 20 l 1
 90 10 l 1
 80 10 l 1
 80 0 l 1
 0 0 l 1
 0 120 l 1
 80 120 l 1
 80 110 l 1xe8
 90 110 l 1
 90 100 l 1
 100 100 l 1
 100 20 l 1
EndSplineSet
Validated: 1
AlternateSubs2: "'ssty' Math Script Style lookup 4 subtable" HexD.ssty HexD.ssty2
AlternateSubs2: "'aalt' Access All Alternates lookup 1 subtable" HexD.ssty HexD.ssty2
EndChar

StartChar: uniE005
Encoding: 57349 57349 276
Width: 110
GlyphClass: 1
Flags: W
HStem: 0 20<50 100> 50 20<50 90> 100 20<50 100>
VStem: 10 40<20 50 70 100>
CounterMasks: 1 e0
LayerCount: 2
Fore
SplineSet
10 0 m 1
 10 120 l 1
 100 120 l 1
 100 100 l 1
 50 100 l 1
 50 70 l 1
 90 70 l 1
 90 50 l 1
 50 50 l 1
 50 20 l 1
 100 20 l 1
 100 0 l 1
 10 0 l 1
EndSplineSet
Validated: 1
AlternateSubs2: "'ssty' Math Script Style lookup 4 subtable" HexE.ssty HexE.ssty2
AlternateSubs2: "'aalt' Access All Alternates lookup 1 subtable" HexE.ssty HexE.ssty2
EndChar

StartChar: uniE006
Encoding: 57350 57350 277
Width: 110
GlyphClass: 1
Flags: W
HStem: 0 21G<10 50> 50 20<50 90> 100 20<50 100>
VStem: 10 40<0 50 70 100>
LayerCount: 2
Fore
SplineSet
10 0 m 1
 10 120 l 1
 100 120 l 1
 100 100 l 1
 50 100 l 1
 50 70 l 1
 90 70 l 1
 90 50 l 1
 50 50 l 1
 50 0 l 1
 10 0 l 1
EndSplineSet
Validated: 1
AlternateSubs2: "'ssty' Math Script Style lookup 4 subtable" HexF.ssty HexF.ssty2
AlternateSubs2: "'aalt' Access All Alternates lookup 1 subtable" HexF.ssty HexF.ssty2
EndChar

StartChar: uniE007
Encoding: 57351 57351 278
Width: 110
GlyphClass: 1
Flags: W
HStem: 0 21G<0 40> 50 20<40 80> 100 20<40 80>
VStem: 0 40<0 50 70 100> 80 20<70 100>
LayerCount: 2
Fore
SplineSet
40 100 m 1
 40 70 l 1
 80 70 l 1
 80 100 l 1
 40 100 l 1
0 0 m 1
 0 120 l 1
 90 120 l 1
 90 110 l 1
 100 110 l 1
 100 60 l 1
 90 60 l 1
 90 50 l 1
 40 50 l 1
 40 0 l 1
 0 0 l 1
EndSplineSet
Validated: 1
AlternateSubs2: "'ssty' Math Script Style lookup 4 subtable" nPr.ssty nPr.ssty2
AlternateSubs2: "'aalt' Access All Alternates lookup 1 subtable" nPr.ssty nPr.ssty2
EndChar

StartChar: uniE008
Encoding: 57352 57352 279
Width: 110
GlyphClass: 2
Flags: W
HStem: 0 30<20 30 70 80> 0 20<10 20 80 90> 10 30<30 40 60 70> 50 30<30 40 60 70> 60 30<20 30 70 80> 70 20<10 20 80 90> 100 20<10 90>
VStem: 10 30<10 20 70 80> 10 20<0 10 80 90> 40 20<40 50> 60 30<10 20 70 80> 70 20<0 10 80 90>
LayerCount: 2
Fore
SplineSet
10 100 m 1x0290
 10 120 l 1
 90 120 l 1
 90 100 l 1
 10 100 l 1x0290
20 60 m 1x0ac0
 20 70 l 1
 10 70 l 1x07
 10 90 l 1x0680
 30 90 l 1x0a80
 30 80 l 1x1280
 40 80 l 1x13
 40 70 l 1
 60 70 l 1x0720
 60 80 l 1x1320
 70 80 l 1x1210
 70 90 l 1x0a10
 90 90 l 1x0610
 90 70 l 1
 80 70 l 1x0620
 80 60 l 1
 70 60 l 1x0a10
 70 50 l 1
 60 50 l 1
 60 40 l 1
 70 40 l 1x3250
 70 30 l 1
 80 30 l 1x8250
 80 20 l 1
 90 20 l 1x4220
 90 0 l 1x4210
 70 0 l 1x8210
 70 10 l 1x2210
 60 10 l 1x2220
 60 20 l 1
 40 20 l 1x4320
 40 10 l 1x2320
 30 10 l 1x2280
 30 0 l 1x8280
 10 0 l 1x4280
 10 20 l 1
 20 20 l 1x43
 20 30 l 1
 30 30 l 1x8280
 30 40 l 1
 40 40 l 1
 40 50 l 1
 30 50 l 1x32c0
 30 60 l 1
 20 60 l 1x0ac0
EndSplineSet
Validated: 1
LCarets2: 1 0
Ligature2: "'ccmp' Glyph Composition/Decomposition lookup 2 subtable" x uni0305
AlternateSubs2: "'aalt' Access All Alternates lookup 1 subtable" x.bar.ssty x.bar.ssty2
AlternateSubs2: "'ssty' Math Script Style lookup 4 subtable" x.bar.ssty x.bar.ssty2
EndChar

StartChar: uniE009
Encoding: 57353 57353 280
Width: 110
GlyphClass: 2
Flags: W
HStem: 0 30<20 30 70 80> 0 20<10 20 80 90> 50 30<20 30 70 80> 60 20<10 20 80 90> 90 20<20 30 60 70> 90 10<10 20 70 80> 100 20<40 50>
VStem: 10 30<10 20 60 70 90 100> 10 20<0 10 70 80> 60 30<10 20 60 70> 70 20<0 10 70 80>
LayerCount: 2
Fore
SplineSet
10 90 m 1x0520
 10 100 l 1
 20 100 l 1x0520
 20 110 l 1
 30 110 l 1x0880
 30 120 l 1
 60 120 l 1x02c0
 60 110 l 1x08c0
 70 110 l 1x0820
 70 100 l 1
 80 100 l 1
 80 90 l 1
 50 90 l 1x0420
 50 100 l 1
 40 100 l 1x0320
 40 90 l 1
 10 90 l 1x0520
20 50 m 1xa080
 20 60 l 1
 10 60 l 1x11
 10 80 l 1x1080
 30 80 l 1
 30 70 l 1x2080
 40 70 l 1
 40 60 l 1
 60 60 l 1
 60 70 l 1x1140
 70 70 l 1
 70 80 l 1x2020
 90 80 l 1x1020
 90 60 l 1
 80 60 l 1x1040
 80 50 l 1
 70 50 l 1
 70 30 l 1
 80 30 l 1xa020
 80 20 l 1
 90 20 l 1x4040
 90 0 l 1x4020
 70 0 l 1
 70 10 l 1x8020
 60 10 l 1
 60 20 l 1
 40 20 l 1
 40 10 l 1x4140
 30 10 l 1
 30 0 l 1x8080
 10 0 l 1x4080
 10 20 l 1
 20 20 l 1x41
 20 30 l 1
 30 30 l 1
 30 50 l 1
 20 50 l 1xa080
EndSplineSet
Validated: 1
Ligature2: "'ccmp' Glyph Composition/Decomposition lookup 2 subtable" x uni0302
AlternateSubs2: "'ssty' Math Script Style lookup 4 subtable" x.hat.ssty x.hat.ssty2
AlternateSubs2: "'aalt' Access All Alternates lookup 1 subtable" x.hat.ssty x.hat.ssty2
EndChar

StartChar: uniE00A
Encoding: 57354 57354 281
Width: 110
GlyphClass: 2
Flags: W
HStem: -10 20<10 30> 70 20<10 20 80 90>
VStem: 10 20<70 90> 20 20<50 70> 40 20<20 30> 60 20<50 70> 70 20<70 90>
LayerCount: 2
Fore
SplineSet
90 100 m 1xe2
 90 120 l 1
 10 120 l 1
 10 100 l 1
 90 100 l 1xe2
10 70 m 1
 10 90 l 1
 30 90 l 1
 30 70 l 1xe0
 40 70 l 1
 40 50 l 1
 60 50 l 1
 60 70 l 1xd4
 70 70 l 1
 70 90 l 1
 90 90 l 1
 90 70 l 1xc2
 80 70 l 1
 80 50 l 1xc4
 70 50 l 1
 70 30 l 1
 60 30 l 1xca
 60 10 l 1xc4
 50 10 l 1
 50 0 l 1
 40 0 l 1
 40 -10 l 1
 10 -10 l 1
 10 10 l 1
 30 10 l 1
 30 20 l 1
 40 20 l 1
 40 30 l 1
 30 30 l 1
 30 50 l 1xe8
 20 50 l 1
 20 70 l 1xd0
 10 70 l 1
EndSplineSet
Validated: 9
Ligature2: "'ccmp' Glyph Composition/Decomposition lookup 2 subtable" y uni0305
AlternateSubs2: "'ssty' Math Script Style lookup 4 subtable" y.bar.ssty y.bar.ssty2
AlternateSubs2: "'aalt' Access All Alternates lookup 1 subtable" y.bar.ssty y.bar.ssty2
EndChar

StartChar: uniE00B
Encoding: 57355 57355 282
Width: 110
GlyphClass: 2
Flags: W
HStem: -10 20<10 40> 60 20<10 20 80 90> 90 20<20 30 60 70> 90 10<10 20 70 80> 100 20<40 50>
VStem: 10 20<60 80> 20 20<40 60> 40 20<10 20> 60 20<40 60> 70 20<60 80>
LayerCount: 2
Fore
SplineSet
10 90 m 1xd5
 10 100 l 1xd5
 20 100 l 1xd2
 20 110 l 1xe2
 30 110 l 1xe4
 30 120 l 1
 60 120 l 1xcc80
 60 110 l 1xe480
 70 110 l 1xe040
 70 100 l 1xd040
 80 100 l 1
 80 90 l 1
 50 90 l 1xd080
 50 100 l 1
 40 100 l 1xc9
 40 90 l 1
 10 90 l 1xd5
10 60 m 1
 10 80 l 1
 30 80 l 1
 30 60 l 1xc4
 40 60 l 1
 40 40 l 1
 60 40 l 1
 60 60 l 1xc280
 70 60 l 1
 70 80 l 1
 90 80 l 1
 90 60 l 1xc040
 80 60 l 1
 80 40 l 1xc080
 70 40 l 1
 70 20 l 1
 60 20 l 1xc140
 60 0 l 1xc080
 50 0 l 1
 50 -10 l 1
 10 -10 l 1
 10 10 l 1
 40 10 l 1
 40 20 l 1
 30 20 l 1
 30 40 l 1xc5
 20 40 l 1
 20 60 l 1xc2
 10 60 l 1
EndSplineSet
Validated: 1
Ligature2: "'ccmp' Glyph Composition/Decomposition lookup 2 subtable" y uni0302
AlternateSubs2: "'ssty' Math Script Style lookup 4 subtable" y.hat.ssty y.hat.ssty2
AlternateSubs2: "'aalt' Access All Alternates lookup 1 subtable" y.hat.ssty y.hat.ssty2
EndChar

StartChar: uniE00C
Encoding: 57356 57356 283
Width: 110
GlyphClass: 1
Flags: W
HStem: 0 20<30 40 80 90> 10 20<40 50 70 80> 40 20<40 50 70 80> 50 20<30 40 80 90>
VStem: 30 20<10 20 50 60> 30 10<0 10 60 70> 70 20<10 20 50 60> 80 10<0 10 60 70>
LayerCount: 2
Fore
SplineSet
30 20 m 1x88
 40 20 l 1x84
 40 30 l 1x44
 50 30 l 1
 50 40 l 1x68
 40 40 l 1x64
 40 50 l 1x14
 30 50 l 1x18
 30 70 l 1
 40 70 l 1x14
 40 60 l 1x24
 50 60 l 1x28
 50 50 l 1
 70 50 l 1x1a
 70 60 l 1x2a
 80 60 l 1x21
 80 70 l 1
 90 70 l 1x11
 90 50 l 1x12
 80 50 l 1x11
 80 40 l 1x21
 70 40 l 1
 70 30 l 1x62
 80 30 l 1x61
 80 20 l 1x81
 90 20 l 1x82
 90 0 l 1
 80 0 l 1x81
 80 10 l 1x41
 70 10 l 1x42
 70 20 l 1
 50 20 l 1x8a
 50 10 l 1x4a
 40 10 l 1x44
 40 0 l 1
 30 0 l 1x84
 30 20 l 1x88
EndSplineSet
AlternateSubs2: "'ssty' Math Script Style lookup 4 subtable" times.small.ssty times.small.ssty2
AlternateSubs2: "'aalt' Access All Alternates lookup 1 subtable" times.small.ssty times.small.ssty2
EndChar

StartChar: uniE00D
Encoding: 57357 57357 284
Width: 110
GlyphClass: 1
Flags: W
HStem: 0 20<70 80> 40 20<70 80>
VStem: 10 20<0 60> 50 20<20 40> 60 30<0 10 50 60> 80 20<20 40>
LayerCount: 2
Fore
SplineSet
50 10 m 1xf0
 50 50 l 1xf0
 60 50 l 1
 60 60 l 1
 90 60 l 1
 90 50 l 1xe8
 100 50 l 1
 100 10 l 1xe4
 90 10 l 1
 90 0 l 1
 60 0 l 1
 60 10 l 1xe8
 50 10 l 1xf0
70 40 m 1
 70 20 l 1
 80 20 l 1
 80 40 l 1xf4
 70 40 l 1
10 60 m 1
 30 60 l 1
 30 0 l 1
 10 0 l 1
 10 60 l 1
EndSplineSet
Validated: 1
AlternateSubs2: "'ssty' Math Script Style lookup 4 subtable" EE.ssty EE.ssty2
AlternateSubs2: "'aalt' Access All Alternates lookup 1 subtable" EE.ssty EE.ssty2
EndChar

StartChar: uniE00E
Encoding: 57358 57358 285
Width: 110
GlyphClass: 1
Flags: W
HStem: 0 20<20 30 70 80> 10 20<30 40 60 70> 40 20<30 40 60 70> 50 20<20 30 70 80>
VStem: 20 20<10 20 50 60> 20 10<0 10 60 70> 60 20<10 20 50 60> 70 10<0 10 60 70>
LayerCount: 2
Fore
SplineSet
80 0 m 1x81
 70 0 l 1x81
 70 10 l 1x41
 60 10 l 1x42
 60 20 l 1
 40 20 l 1x8a
 40 10 l 1x4a
 30 10 l 1x44
 30 0 l 1
 20 0 l 1x84
 20 20 l 1x88
 30 20 l 1x84
 30 30 l 1x44
 40 30 l 1
 40 40 l 1x68
 30 40 l 1x64
 30 50 l 5x14
 20 50 l 5x18
 20 70 l 1
 30 70 l 1x14
 30 60 l 1x24
 40 60 l 1x28
 40 50 l 1
 60 50 l 1x1a
 60 60 l 1x2a
 70 60 l 1x21
 70 70 l 1
 80 70 l 1x11
 80 50 l 1x12
 70 50 l 1x11
 70 40 l 1x21
 60 40 l 1
 60 30 l 1x62
 70 30 l 1x61
 70 20 l 1x81
 80 20 l 1x82
 80 0 l 1x81
EndSplineSet
AlternateSubs2: "'ssty' Math Script Style lookup 4 subtable" times.small.2.ssty times.small.2.ssty2
AlternateSubs2: "'aalt' Access All Alternates lookup 1 subtable" times.small.2.ssty times.small.2.ssty2
EndChar

StartChar: uniE00F
Encoding: 57359 57359 286
Width: 110
GlyphClass: 1
Flags: W
HStem: 0 20<50 60> 40 20<50 60> 80 20<50 100>
VStem: 0 20<0 60> 30 20<20 40> 40 30<0 10 50 60> 60 20<20 40>
CounterMasks: 1 e0
LayerCount: 2
Fore
SplineSet
30 10 m 1xf8
 30 50 l 1xf8
 40 50 l 1
 40 60 l 1
 70 60 l 1
 70 50 l 1xf4
 80 50 l 1
 80 10 l 1xf2
 70 10 l 1
 70 0 l 1
 40 0 l 1
 40 10 l 1xf4
 30 10 l 1xf8
50 40 m 1
 50 20 l 1
 60 20 l 1
 60 40 l 1xfa
 50 40 l 1
0 60 m 1
 20 60 l 1
 20 0 l 1
 0 0 l 1
 0 60 l 1
50 80 m 1
 50 100 l 1
 100 100 l 1
 100 80 l 1
 50 80 l 1
EndSplineSet
Validated: 1
AlternateSubs2: "'ssty' Math Script Style lookup 4 subtable" EE.ssty.1 EE.ssty2.1
AlternateSubs2: "'aalt' Access All Alternates lookup 1 subtable" EE.ssty.1 EE.ssty2.1
EndChar

StartChar: uniE011
Encoding: 57361 57361 287
Width: 110
GlyphClass: 2
Flags: W
HStem: 70 20<0 50> 100 20G<70 90>
VStem: 70 20<50 90 110 120>
LayerCount: 2
Fore
SplineSet
70 90 m 1
 50 90 l 1
 50 110 l 1
 70 110 l 1
 70 120 l 1
 90 120 l 1
 90 50 l 1
 70 50 l 1
 70 90 l 1
0 70 m 1
 0 90 l 1
 50 90 l 1
 50 70 l 1
 0 70 l 1
EndSplineSet
Validated: 5
AlternateSubs2: "'ssty' Math Script Style lookup 4 subtable" minus.one.superior.ssty minus.one.superior.ssty2
AlternateSubs2: "'aalt' Access All Alternates lookup 1 subtable" minus.one.superior.ssty minus.one.superior.ssty2
EndChar

